<?xml version="1.0" encoding="utf-8"?>
<!-- Generator: Adobe Illustrator 19.0.0, SVG Export Plug-In . SVG Version: 6.00 Build 0)  -->
<svg version="1.1" id="Layer_1" xmlns="http://www.w3.org/2000/svg" xmlns:xlink="http://www.w3.org/1999/xlink" x="0px" y="0px"
	 viewBox="0 0 32 32" style="enable-background:new 0 0 32 32;" xml:space="preserve">
<style type="text/css">
	.st0{fill:#FFFFFF;}
</style>
<g id="XMLID_19_">
	<rect id="XMLID_16_" x="3.8" y="14.3" class="st0" width="5.2" height="3.7"/>
	<rect id="XMLID_15_" x="10" y="14.3" class="st0" width="5.2" height="3.7"/>
	<rect id="XMLID_14_" x="16.2" y="14.3" class="st0" width="5.2" height="3.7"/>
	<rect id="XMLID_13_" x="22.3" y="14.3" class="st0" width="5.2" height="3.7"/>
	<rect id="XMLID_12_" x="3.8" y="18.8" class="st0" width="5.2" height="3.7"/>
	<rect id="XMLID_11_" x="10" y="18.8" class="st0" width="5.2" height="3.7"/>
	<rect id="XMLID_10_" x="16.2" y="18.8" class="st0" width="5.2" height="3.7"/>
	<rect id="XMLID_9_" x="22.3" y="18.8" class="st0" width="5.2" height="3.7"/>
	<rect id="XMLID_8_" x="3.8" y="23.3" class="st0" width="5.2" height="3.7"/>
	<rect id="XMLID_7_" x="10" y="23.3" class="st0" width="5.2" height="3.7"/>
	<rect id="XMLID_6_" x="16.2" y="23.3" class="st0" width="5.2" height="3.7"/>
	<rect id="XMLID_5_" x="22.3" y="23.3" class="st0" width="5.2" height="3.7"/>
	<path id="XMLID_22_" class="st0" d="M25.9,4.4v3.4h-4.4V4.4H9.8v3.4H5.4V4.4H1v25h29.3v-25H25.9z M28.8,28.1H2.5V13.3h26.3V28.1z"
		/>
	<rect id="XMLID_2_" x="6.5" y="2" class="st0" width="2.1" height="4.8"/>
	<rect id="XMLID_1_" x="22.7" y="2" class="st0" width="2.1" height="4.8"/>
</g>
</svg>
