<?xml version="1.0" encoding="utf-8"?>
<!-- Generator: Adobe Illustrator 19.0.0, SVG Export Plug-In . SVG Version: 6.00 Build 0)  -->
<svg version="1.1" id="Layer_1" xmlns="http://www.w3.org/2000/svg" xmlns:xlink="http://www.w3.org/1999/xlink" x="0px" y="0px"
	 viewBox="0 13 700 100" style="enable-background:new 0 13 700 100;" xml:space="preserve">
<style type="text/css">
	.st0{fill:url(#XMLID_5_);}
	.st1{fill:none;}
	.st2{fill:#FFFFFF;}
	.st3{font-family:'Roboto-Regular';}
	.st4{font-size:13.2191px;}
	.st5{font-size:14px;}
</style>
<linearGradient id="XMLID_5_" gradientUnits="userSpaceOnUse" x1="41.5" y1="45.7003" x2="651.0922" y2="45.7003" gradientTransform="matrix(1 0 0 -1 0 127)">
	<stop  offset="0.1626" style="stop-color:#CF9352"/>
	<stop  offset="0.9996" style="stop-color:#006DA4"/>
</linearGradient>
<path id="XMLID_1_" class="st0" d="M641.5,92l-85.1,4.8l-82.1,3.8l-71.6,8.2c-7,0.8-14.2,0.8-21.2,0l-70.3-8.3l-84.6-4.7l-82.7-1.9
	l-92.7-2.7c-5.4,0-9.7-4.3-9.7-9.7l0,0c0-5.4,4.3-9.7,9.7-9.7l92.7-2.3l82.7-1.9l84.6-4.7l69.5-9c7.5-0.9,14.9-0.9,22.4-0.1l71,8.5
	l82.1,3.4l85.1,4.7c5.4,0,9.7,5.8,9.7,11l0,0C651.2,86.7,646.8,92,641.5,92z"/>
<rect id="XMLID_2_" x="52.5" y="75.4" class="st1" width="14.5" height="15.8"/>
<text id="XMLID_3_" transform="matrix(1 0 0 1 52.5044 85.3105)" class="st2 st3 st4">4</text>
<rect id="XMLID_6_" x="135.1" y="75.4" class="st1" width="17.9" height="15.8"/>
<text id="_x31_8" transform="matrix(1 0 0 1 135.0493 85.3105)" class="st2 st3 st4">18</text>
<rect id="XMLID_8_" x="217.6" y="75.4" class="st1" width="18.3" height="15.8"/>
<text id="XMLID_7_" transform="matrix(1 0 0 1 217.5947 85.3105)" class="st2 st3 st4">32</text>
<rect id="XMLID_10_" x="300.1" y="75.4" class="st1" width="22.4" height="15.8"/>
<text id="XMLID_9_" transform="matrix(1 0 0 1 300.1396 85.3105)" class="st2 st3 st4">55</text>
<rect id="XMLID_12_" x="382.6" y="75.4" class="st1" width="18.7" height="15.8"/>
<text id="XMLID_11_" transform="matrix(1 0 0 1 382.6855 85.3105)" class="st2 st3 st4">93</text>
<rect id="XMLID_14_" x="465.3" y="75.4" class="st1" width="17.9" height="15.8"/>
<text id="XMLID_13_" transform="matrix(1 0 0 1 465.2295 85.3105)" class="st2 st3 st4">76</text>
<rect id="XMLID_16_" x="547.8" y="75.4" class="st1" width="17.2" height="15.8"/>
<text id="XMLID_15_" transform="matrix(1 0 0 1 547.7764 85.3105)" class="st2 st3 st4">40</text>
<rect id="XMLID_18_" x="630.3" y="75.4" class="st1" width="14.5" height="15.8"/>
<text id="XMLID_17_" transform="matrix(1 0 0 1 630.3203 85.3105)" class="st2 st3 st4">7</text>
<rect x="30.3" y="31.2" class="st1" width="49.9" height="12.1"/>
<text transform="matrix(1 0 0 1 30.2617 41.6812)" class="st3 st5" fill="#f0ede7">13+ hrs</text>
<rect x="105.8" y="31.2" class="st1" width="65.5" height="12.1"/>
<text transform="matrix(1 0 0 1 105.7996 41.6812)" class="st3 st5" fill="#f0ede7">10-12 hrs</text>
<rect x="194.6" y="31.2" class="st1" width="54.6" height="12.1"/>
<text transform="matrix(1 0 0 1 194.5779 41.6812)" class="st3 st5" fill="#f0ede7">8-10 hrs</text>
<rect x="283.3" y="31.2" class="st1" width="43.8" height="12.1"/>
<text transform="matrix(1 0 0 1 283.3059 41.6812)" class="st3 st5" fill="#f0ede7">6-8 hrs</text>
<rect x="366.6" y="31.2" class="st1" width="43.8" height="12.1"/>
<text transform="matrix(1 0 0 1 366.6482 41.6812)" class="st3 st5" fill="#f0ede7">4-6 hrs</text>
<rect x="450" y="31.2" class="st1" width="43.8" height="12.1"/>
<text transform="matrix(1 0 0 1 449.9904 41.6812)" class="st3 st5" fill="#f0ede7">2-4 hrs</text>
<rect x="528.9" y="31.2" class="st1" width="52.7" height="12.1"/>
<text transform="matrix(1 0 0 1 528.8723 41.6812)" class="st3 st5" fill="#f0ede7">1-2 hrs</text>
<rect x="616.7" y="31.2" class="st1" width="43.8" height="12.1"/>
<text transform="matrix(1 0 0 1 616.6749 41.6812)" class="st3 st5" fill="#f0ede7">0-1 hrs</text>
</svg>
