<?xml version="1.0" encoding="utf-8"?>
<!-- Generator: Adobe Illustrator 19.0.0, SVG Export Plug-In . SVG Version: 6.00 Build 0)  -->
<svg version="1.1" id="Layer_1" xmlns="http://www.w3.org/2000/svg" xmlns:xlink="http://www.w3.org/1999/xlink" x="0px" y="0px"
	 viewBox="0 0 32 32" style="enable-background:new 0 0 32 32;" xml:space="preserve">
<style type="text/css">
	.st0{fill:#FFFFFF;}
</style>
<path id="XMLID_2_" class="st0" d="M29,3.2c-0.3-0.5-1-0.6-1.5-0.2c0,0-3.7,2.7-7.5,5.3c-0.2,0.2-0.5,0.3-0.7,0.5L19.1,9l-0.4,0.2
	c-0.5,0.3-0.9,0.6-1.4,0.9c-0.9,0.6-1.7,1.2-2.4,1.6c-0.3,0.2-0.5,0.4-0.8,0.5l-2.8-3.6L14,7.5l-0.5,1.9c-0.2,0.6,0.2,1.2,0.8,1.4
	c0.6,0.2,1.2-0.2,1.4-0.8l1.1-4.4c0.1-0.4,0-0.9-0.4-1.2c-0.4-0.3-0.8-0.3-1.2-0.1L9.8,6.9C9.8,7,9.7,7,9.6,7.1L6.5,9.9L6,10.4l0,0
	l-0.2,0.2c-0.1,0.1-0.1,0.1-0.2,0.2l-2.2,3.3c-0.1,0.2-0.2,0.4-0.2,0.6l-0.4,5c0,0.6,0.4,1.2,1.1,1.2c0,0,0.1,0,0.1,0
	c0.6,0,1.1-0.5,1.2-1.1l0.4-4.7l2-2.9L7.6,12l3.5,3.4l-1.9,5.2l-0.1,0.2c0,0.1,0,0.1,0,0.2l-1.3,8.9c-0.1,0.5,0.3,1.1,0.8,1.2
	c0.6,0.1,1.2-0.2,1.3-0.8l2-8.5l2.6-5c0-0.1,0.1-0.1,0.1-0.2c0-0.1,0-0.1,0.1-0.2c0,0,0,0,0,0c0,0,0.9-0.7,2.2-1.8
	c0.7-0.5,1.4-1.2,2.3-1.8c0.4-0.3,0.8-0.7,1.3-1l0.3-0.3l0.4-0.3c0.2-0.2,0.4-0.4,0.7-0.6c3.5-3,7-5.9,7-5.9
	C29.3,4.3,29.4,3.7,29,3.2z"/>
<circle id="XMLID_1_" class="st0" cx="5.9" cy="6.5" r="2.4"/>
</svg>
