<?xml version="1.0" encoding="utf-8"?>
<!-- Generated by IcoMoon.io -->
<svg version="1.1" xmlns="http://www.w3.org/2000/svg" xmlns:xlink="http://www.w3.org/1999/xlink" width="32" height="1344" viewBox="0 0 32 1344">
<svg id="icon-gainer41" width="32" height="32" viewBox="0 0 32 32" x="0" y="0">
<path fill="#fff" d="M21.773 9.257l-4.554 6.539-0.525-0.366 4.554-6.539 0.525 0.366z"></path>
<path fill="#fff" d="M16.608 15.744h0.64v10.208h-0.64v-10.208z"></path>
<path fill="#fff" d="M22.88 9.664c-1.664 0-3.040-1.344-3.040-3.040s1.376-3.040 3.040-3.040 3.040 1.344 3.040 3.040-1.344 3.040-3.040 3.040zM22.88 4.256c-1.312 0-2.4 1.088-2.4 2.4s1.088 2.4 2.4 2.4 2.4-1.088 2.4-2.4-1.056-2.4-2.4-2.4z"></path>
<path fill="#fff" d="M16.928 26.24c-0.192 0-0.32-0.128-0.32-0.32s0.128-0.32 0.32-0.32h2.112c0.192 0 0.32 0.128 0.32 0.32s-0.128 0.32-0.32 0.32h-2.112z"></path>
<path fill="#fff" d="M20.128 11.328h-7.040c-0.192 0-0.32-0.128-0.32-0.32s0.128-0.32 0.32-0.32h7.040c0.192 0 0.32 0.128 0.32 0.32s-0.16 0.32-0.32 0.32z"></path>
<path fill="#fff" d="M13.184 13.024c-0.16 0-0.288-0.096-0.32-0.256s0.064-0.352 0.256-0.384l6.848-1.536c0.16-0.032 0.352 0.064 0.384 0.256 0.032 0.16-0.064 0.352-0.256 0.384l-6.912 1.536c0.032 0 0 0 0 0z"></path>
<path fill="#fff" d="M11.552 15.904c-0.128 0-0.256-0.096-0.32-0.224l-1.312-4.512c-0.064-0.16 0.032-0.352 0.224-0.384 0.16-0.064 0.352 0.032 0.384 0.224l1.312 4.512c0.064 0.16-0.032 0.352-0.224 0.384 0-0.032-0.032 0-0.064 0z"></path>
<path fill="#fff" d="M16.896 15.872h-5.312c-0.192 0-0.32-0.128-0.32-0.32s0.128-0.32 0.32-0.32h5.344c0.192 0 0.32 0.128 0.32 0.32s-0.16 0.32-0.352 0.32z"></path>
<path fill="#fff" d="M8.192 11.936c-0.128 0-0.256-0.096-0.32-0.224-0.032-0.16 0.064-0.352 0.224-0.384l2.048-0.576c0.16-0.032 0.352 0.064 0.384 0.224s-0.064 0.352-0.224 0.384l-2.048 0.576c0 0-0.032 0-0.064 0z"></path>
</svg>
<svg id="icon-gainer1" width="32" height="32" viewBox="0 0 32 32" x="0" y="32">
<path fill="#fff" d="M20.062 10.39l-4.554 6.539-0.525-0.366 4.554-6.539 0.525 0.366z"></path>
<path fill="#fff" d="M14.912 16.864h0.64v10.208h-0.64v-10.208z"></path>
<path fill="#fff" d="M21.184 10.784c-1.664 0-3.040-1.344-3.040-3.040s1.376-3.040 3.040-3.040 3.040 1.344 3.040 3.040-1.344 3.040-3.040 3.040zM21.184 5.376c-1.312 0-2.4 1.088-2.4 2.4s1.088 2.4 2.4 2.4 2.4-1.088 2.4-2.4-1.056-2.4-2.4-2.4z"></path>
<path fill="#fff" d="M15.232 27.392c-0.192 0-0.32-0.128-0.32-0.32s0.128-0.32 0.32-0.32h2.112c0.192 0 0.32 0.128 0.32 0.32s-0.128 0.32-0.32 0.32h-2.112z"></path>
<path fill="#fff" d="M18.432 12.448h-7.040c-0.192 0-0.32-0.128-0.32-0.32s0.128-0.32 0.32-0.32h7.040c0.192 0 0.32 0.128 0.32 0.32s-0.16 0.32-0.32 0.32z"></path>
<path fill="#fff" d="M11.488 14.144c-0.16 0-0.288-0.096-0.32-0.256s0.064-0.352 0.256-0.384l6.848-1.536c0.16-0.032 0.352 0.064 0.384 0.256 0.032 0.16-0.064 0.352-0.256 0.384l-6.912 1.536c0.032 0 0 0 0 0z"></path>
<path fill="#fff" d="M9.856 17.024c-0.128 0-0.256-0.096-0.32-0.224l-1.312-4.512c-0.064-0.16 0.032-0.352 0.224-0.384 0.16-0.064 0.352 0.032 0.384 0.224l1.312 4.512c0.064 0.16-0.032 0.352-0.224 0.384 0-0.032-0.032 0-0.064 0z"></path>
<path fill="#fff" d="M15.2 16.992h-5.312c-0.192 0-0.32-0.128-0.32-0.32s0.128-0.32 0.32-0.32h5.344c0.192 0 0.32 0.128 0.32 0.32s-0.16 0.32-0.352 0.32z"></path>
<path fill="#fff" d="M6.496 13.056c-0.128 0-0.256-0.096-0.32-0.224-0.032-0.16 0.064-0.352 0.224-0.384l2.048-0.576c0.16-0.032 0.352 0.064 0.384 0.224s-0.064 0.352-0.224 0.384l-2.048 0.576c0 0-0.032 0-0.064 0z"></path>
</svg>
<svg id="icon-gainer2" width="32" height="32" viewBox="0 0 32 32" x="0" y="64">
<path fill="#fff" d="M15.879 15.773l4.554-6.539 0.525 0.366-4.554 6.539-0.525-0.366z"></path>
<path fill="#fff" d="M15.808 16.064h0.64v10.208h-0.64v-10.208z"></path>
<path fill="#fff" d="M22.080 9.984c-1.664 0-3.040-1.344-3.040-3.040s1.376-3.040 3.040-3.040 3.040 1.344 3.040 3.040-1.344 3.040-3.040 3.040zM22.080 4.576c-1.312 0-2.4 1.088-2.4 2.4s1.088 2.4 2.4 2.4 2.4-1.088 2.4-2.4-1.056-2.4-2.4-2.4z"></path>
<path fill="#fff" d="M16.128 26.592c-0.192 0-0.32-0.128-0.32-0.32s0.128-0.32 0.32-0.32h2.112c0.192 0 0.32 0.128 0.32 0.32s-0.128 0.32-0.32 0.32h-2.112z"></path>
<path fill="#fff" d="M19.328 11.648l-6.848 1.632c-0.192 0.032-0.352-0.064-0.384-0.224-0.032-0.192 0.064-0.352 0.224-0.384l6.848-1.632c0.192-0.032 0.352 0.064 0.384 0.224 0.064 0.192-0.064 0.352-0.224 0.384z"></path>
<path fill="#fff" d="M12.576 14.912c-0.16 0.032-0.288-0.032-0.352-0.192s0-0.352 0.16-0.416l6.368-2.944c0.16-0.064 0.352 0 0.416 0.16s0 0.352-0.16 0.416l-6.432 2.976c0.032 0 0 0 0 0z"></path>
<path fill="#fff" d="M12.576 19.904c-0.096 0.096-0.256 0.128-0.384 0.064l-4.128-2.272c-0.16-0.064-0.224-0.256-0.128-0.416 0.064-0.16 0.256-0.224 0.416-0.128l4.128 2.272c0.16 0.064 0.224 0.256 0.128 0.416 0 0 0 0.032-0.032 0.064z"></path>
<path fill="#fff" d="M16.32 16.096l-3.744 3.744c-0.128 0.128-0.32 0.128-0.448 0s-0.128-0.32 0-0.448l3.776-3.776c0.128-0.128 0.32-0.128 0.448 0s0.128 0.352-0.032 0.48z"></path>
<path fill="#fff" d="M7.392 19.456c-0.096 0.096-0.256 0.128-0.384 0.064-0.128-0.096-0.192-0.288-0.128-0.416l1.056-1.856c0.096-0.128 0.288-0.192 0.416-0.128 0.128 0.096 0.192 0.288 0.128 0.416l-1.056 1.856c0 0.032 0 0.064-0.032 0.064z"></path>
</svg>
<svg id="icon-gainer3" width="32" height="32" viewBox="0 0 32 32" x="0" y="96">
<path fill="#fff" d="M20.062 10.39l-4.554 6.539-0.525-0.366 4.554-6.539 0.525 0.366z"></path>
<path fill="#fff" d="M14.912 16.864h0.64v10.208h-0.64v-10.208z"></path>
<path fill="#fff" d="M21.184 10.784c-1.664 0-3.040-1.344-3.040-3.040s1.376-3.040 3.040-3.040 3.040 1.344 3.040 3.040-1.344 3.040-3.040 3.040zM21.184 5.376c-1.312 0-2.4 1.088-2.4 2.4s1.088 2.4 2.4 2.4 2.4-1.088 2.4-2.4-1.056-2.4-2.4-2.4z"></path>
<path fill="#fff" d="M15.232 27.392c-0.192 0-0.32-0.128-0.32-0.32s0.128-0.32 0.32-0.32h2.112c0.192 0 0.32 0.128 0.32 0.32s-0.128 0.32-0.32 0.32h-2.112z"></path>
<path fill="#fff" d="M18.496 12.288l-6.048 3.584c-0.16 0.096-0.352 0.064-0.448-0.128-0.096-0.16-0.064-0.352 0.128-0.448l6.048-3.584c0.16-0.096 0.352-0.064 0.448 0.128 0.096 0.16 0 0.352-0.128 0.448z"></path>
<path fill="#fff" d="M12.864 17.728c-0.128 0.096-0.288 0.064-0.416-0.064-0.096-0.128-0.128-0.32 0.032-0.448l5.088-4.832c0.128-0.096 0.32-0.128 0.448 0.032 0.096 0.128 0.128 0.32-0.032 0.448l-5.12 4.864c0.032-0.032 0 0 0 0z"></path>
<path fill="#fff" d="M13.312 21.76c0 0.128-0.096 0.256-0.224 0.32l-4.48 1.472c-0.16 0.064-0.352-0.032-0.384-0.224-0.064-0.16 0.032-0.352 0.224-0.384l4.48-1.472c0.16-0.064 0.352 0.032 0.384 0.224-0.032 0 0 0.032 0 0.064z"></path>
<path fill="#fff" d="M15.552 16.736l-2.048 4.896c-0.064 0.192-0.256 0.256-0.416 0.16s-0.256-0.256-0.16-0.416l2.080-4.928c0.064-0.192 0.256-0.256 0.416-0.16s0.192 0.288 0.128 0.448z"></path>
<path fill="#fff" d="M9.472 25.248c0 0.128-0.096 0.256-0.224 0.32-0.16 0.032-0.352-0.064-0.384-0.224l-0.64-2.016c-0.032-0.16 0.064-0.352 0.224-0.384s0.352 0.064 0.384 0.224l0.64 2.016c0 0 0 0.032 0 0.064z"></path>
</svg>
<svg id="icon-gainer4" width="32" height="32" viewBox="0 0 32 32" x="0" y="128">
<path fill="#fff" d="M19.497 10.204l-4.037 6.869-0.552-0.324 4.037-6.869 0.552 0.324z"></path>
<path fill="#fff" d="M14.912 16.864h0.64v10.208h-0.64v-10.208z"></path>
<path fill="#fff" d="M20.32 10.464c-1.664 0.064-3.072-1.248-3.136-2.944s1.28-3.072 2.944-3.136 3.072 1.248 3.136 2.944c0.064 1.696-1.248 3.072-2.944 3.136zM20.128 5.056c-1.312 0.032-2.368 1.184-2.304 2.496 0.032 1.312 1.184 2.368 2.496 2.304s2.368-1.184 2.304-2.496c-0.032-1.312-1.152-2.336-2.496-2.304z"></path>
<path fill="#fff" d="M15.232 27.392c-0.192 0-0.32-0.128-0.32-0.32s0.128-0.32 0.32-0.32h2.112c0.192 0 0.32 0.128 0.32 0.32s-0.128 0.32-0.32 0.32h-2.112z"></path>
<path fill="#fff" d="M18.304 12.032l-5.28 4.672c-0.128 0.128-0.32 0.128-0.448-0.032-0.128-0.128-0.128-0.32 0.032-0.448l5.28-4.672c0.128-0.128 0.32-0.128 0.448 0.032s0.096 0.352-0.032 0.448z"></path>
<path fill="#fff" d="M13.792 18.432c-0.128 0.096-0.288 0.128-0.416 0.032s-0.192-0.32-0.064-0.448l4.064-5.696c0.096-0.128 0.32-0.192 0.448-0.064 0.128 0.096 0.192 0.32 0.064 0.448l-4.096 5.728c0 0 0 0 0 0z"></path>
<path fill="#fff" d="M14.432 21.952c0.064 0.128 0.032 0.256-0.032 0.384l-3.392 3.264c-0.096 0.128-0.32 0.128-0.448-0.032-0.128-0.096-0.128-0.32 0.032-0.448l3.36-3.264c0.096-0.128 0.32-0.128 0.448 0.032-0.032 0 0 0.032 0.032 0.064z"></path>
<path fill="#fff" d="M15.584 16.896l-1.184 5.184c-0.032 0.192-0.192 0.288-0.384 0.256s-0.288-0.192-0.256-0.384l1.184-5.216c0.032-0.192 0.192-0.288 0.384-0.256s0.288 0.224 0.256 0.416z"></path>
<path fill="#fff" d="M12.48 26.752c0.064 0.128 0.032 0.256-0.032 0.384-0.128 0.096-0.352 0.096-0.448-0.032l-1.472-1.536c-0.096-0.128-0.096-0.352 0.032-0.448s0.352-0.096 0.448 0.032l1.472 1.536c-0.032 0.032 0 0.064 0 0.064z"></path>
</svg>
<svg id="icon-gainer5" width="32" height="32" viewBox="0 0 32 32" x="0" y="160">
<path fill="#fff" d="M18.434 9.829l-2.794 7.462-0.599-0.224 2.794-7.462 0.599 0.224z"></path>
<path fill="#fff" d="M14.912 16.864h0.64v10.208h-0.64v-10.208z"></path>
<path fill="#fff" d="M19.296 9.92c-1.632 0.352-3.264-0.672-3.616-2.336s0.704-3.264 2.336-3.616 3.264 0.672 3.616 2.336c0.384 1.696-0.672 3.264-2.336 3.616zM18.176 4.64c-1.28 0.256-2.112 1.568-1.856 2.848s1.568 2.112 2.848 1.856 2.112-1.568 1.856-2.848c-0.256-1.28-1.536-2.144-2.848-1.856z"></path>
<path fill="#fff" d="M15.232 27.392c-0.192 0-0.32-0.128-0.32-0.32s0.128-0.32 0.32-0.32h2.112c0.192 0 0.32 0.128 0.32 0.32s-0.128 0.32-0.32 0.32h-2.112z"></path>
<path fill="#fff" d="M17.76 11.648l-3.712 5.984c-0.096 0.16-0.288 0.192-0.448 0.096s-0.192-0.288-0.096-0.448l3.712-5.984c0.096-0.16 0.288-0.192 0.448-0.096s0.16 0.32 0.096 0.448z"></path>
<path fill="#fff" d="M14.4 18.688c-0.096 0.128-0.256 0.16-0.384 0.096-0.16-0.064-0.224-0.256-0.128-0.448l3.040-6.336c0.032-0.16 0.224-0.256 0.384-0.16 0.16 0.064 0.224 0.256 0.128 0.448l-3.040 6.4c0.032-0.032 0 0 0 0z"></path>
<path fill="#fff" d="M14.72 21.6c0.096 0.096 0.128 0.256 0.064 0.384l-2.176 4.16c-0.064 0.16-0.256 0.224-0.416 0.128-0.16-0.064-0.224-0.256-0.128-0.416l2.176-4.16c0.064-0.16 0.256-0.224 0.416-0.128 0 0 0.032 0 0.064 0.032z"></path>
<path fill="#fff" d="M15.424 16.704l-0.672 5.28c-0.032 0.192-0.16 0.288-0.352 0.288-0.192-0.032-0.288-0.16-0.288-0.352l0.672-5.312c0.032-0.192 0.16-0.288 0.352-0.288 0.192 0.032 0.32 0.192 0.288 0.384z"></path>
<path fill="#fff" d="M14.4 26.784c0.096 0.096 0.128 0.256 0.064 0.384-0.096 0.128-0.288 0.224-0.416 0.128l-1.888-0.992c-0.128-0.096-0.224-0.288-0.128-0.416s0.288-0.224 0.416-0.128l1.888 0.992c0-0.032 0.032 0 0.064 0.032z"></path>
</svg>
<svg id="icon-gainer6" width="32" height="32" viewBox="0 0 32 32" x="0" y="192">
<path fill="#fff" d="M17.008 9.496l-1.434 7.838-0.63-0.115 1.434-7.838 0.63 0.115z"></path>
<path fill="#fff" d="M14.912 16.864h0.64v10.208h-0.64v-10.208z"></path>
<path fill="#fff" d="M17.888 9.472c-1.536 0.64-3.328-0.096-3.968-1.664s0.128-3.328 1.664-3.968 3.328 0.096 3.968 1.664-0.096 3.328-1.664 3.968zM15.872 4.448c-1.216 0.48-1.824 1.92-1.312 3.136s1.92 1.824 3.136 1.312 1.824-1.92 1.312-3.136c-0.512-1.216-1.888-1.824-3.136-1.312z"></path>
<path fill="#fff" d="M15.232 27.392c-0.192 0-0.32-0.128-0.32-0.32s0.128-0.32 0.32-0.32h2.112c0.192 0 0.32 0.128 0.32 0.32s-0.128 0.32-0.32 0.32h-2.112z"></path>
<path fill="#fff" d="M16.576 11.232l-2.176 6.688c-0.064 0.192-0.224 0.256-0.416 0.192s-0.256-0.224-0.192-0.416l2.176-6.688c0.064-0.192 0.224-0.256 0.416-0.192 0.16 0.064 0.224 0.256 0.192 0.416z"></path>
<path fill="#fff" d="M15.008 18.848c-0.064 0.16-0.192 0.224-0.352 0.192s-0.288-0.192-0.256-0.384l1.408-6.88c0.032-0.16 0.192-0.288 0.384-0.256 0.16 0.032 0.288 0.192 0.256 0.384l-1.44 6.944c0-0.032 0 0 0 0z"></path>
<path fill="#fff" d="M15.104 21.536c0.128 0.032 0.192 0.192 0.224 0.32l-0.352 4.672c0 0.16-0.16 0.32-0.352 0.288-0.16 0-0.32-0.16-0.288-0.352l0.352-4.672c0-0.16 0.16-0.32 0.352-0.288 0 0.032 0.032 0 0.064 0.032z"></path>
<path fill="#fff" d="M15.392 16.544v5.312c0 0.192-0.128 0.32-0.32 0.32s-0.32-0.128-0.32-0.32v-5.344c0-0.192 0.128-0.32 0.32-0.32s0.32 0.16 0.32 0.352z"></path>
<path fill="#fff" d="M16.864 26.432c0.128 0.032 0.192 0.192 0.224 0.32-0.032 0.16-0.192 0.32-0.352 0.288l-2.112-0.192c-0.16-0.032-0.32-0.192-0.288-0.352s0.192-0.32 0.352-0.288l2.112 0.192c0 0 0.032 0.032 0.064 0.032z"></path>
</svg>
<svg id="icon-gainer7" width="32" height="32" viewBox="0 0 32 32" x="0" y="224">
<path fill="#fff" d="M15.597 9.469l-0.093 7.967-0.64-0.008 0.093-7.967 0.64 0.008z"></path>
<path fill="#fff" d="M14.912 16.864h0.64v10.208h-0.64v-10.208z"></path>
<path fill="#fff" d="M16.736 9.28c-1.408 0.864-3.296 0.448-4.16-0.992s-0.416-3.296 0.992-4.192 3.296-0.448 4.192 0.992c0.864 1.44 0.416 3.296-1.024 4.192zM13.888 4.672c-1.12 0.704-1.472 2.176-0.768 3.296s2.176 1.472 3.296 0.768 1.472-2.176 0.768-3.296-2.144-1.472-3.296-0.768z"></path>
<path fill="#fff" d="M15.232 27.392c-0.192 0-0.32-0.128-0.32-0.32s0.128-0.32 0.32-0.32h2.112c0.192 0 0.32 0.128 0.32 0.32s-0.128 0.32-0.32 0.32h-2.112z"></path>
<path fill="#fff" d="M15.584 10.976l0.8 7.008c0.032 0.192-0.096 0.32-0.288 0.352s-0.32-0.096-0.352-0.288l-0.8-7.008c-0.032-0.192 0.096-0.32 0.288-0.352s0.32 0.128 0.352 0.288z"></path>
<path fill="#fff" d="M17.248 18.592c0 0.16-0.096 0.288-0.256 0.32s-0.352-0.064-0.384-0.256l-1.536-6.848c-0.032-0.16 0.064-0.352 0.256-0.384 0.16-0.032 0.352 0.064 0.384 0.256l1.536 6.912c0-0.032 0 0 0 0z"></path>
<path fill="#fff" d="M16.384 21.952c0.128 0.032 0.224 0.128 0.288 0.288l0.544 4.672c0.032 0.16-0.096 0.352-0.288 0.352-0.16 0.032-0.352-0.096-0.352-0.288l-0.544-4.672c-0.032-0.16 0.096-0.352 0.288-0.352 0 0.032 0.032 0 0.064 0z"></path>
<path fill="#fff" d="M15.68 17.024l1.024 5.216c0.032 0.192-0.064 0.352-0.256 0.384s-0.352-0.064-0.384-0.256l-1.024-5.248c-0.032-0.192 0.064-0.352 0.256-0.384s0.352 0.096 0.384 0.288z"></path>
<path fill="#fff" d="M19.040 26.432c0.128 0.032 0.224 0.128 0.288 0.288 0 0.16-0.128 0.352-0.288 0.352l-2.112 0.224c-0.16 0-0.352-0.128-0.352-0.288s0.128-0.352 0.288-0.352l2.112-0.224c0 0 0.032 0 0.064 0z"></path>
</svg>
<svg id="icon-gainer8" width="32" height="32" viewBox="0 0 32 32" x="0" y="256">
<path fill="#fff" d="M15.597 9.469l-0.093 7.967-0.64-0.008 0.093-7.967 0.64 0.008z"></path>
<path fill="#fff" d="M14.912 16.864h0.64v10.208h-0.64v-10.208z"></path>
<path fill="#fff" d="M16.736 9.28c-1.408 0.864-3.296 0.448-4.16-0.992s-0.416-3.296 0.992-4.192 3.296-0.448 4.192 0.992c0.864 1.44 0.416 3.296-1.024 4.192zM13.888 4.672c-1.12 0.704-1.472 2.176-0.768 3.296s2.176 1.472 3.296 0.768 1.472-2.176 0.768-3.296-2.144-1.472-3.296-0.768z"></path>
<path fill="#fff" d="M15.232 27.392c-0.192 0-0.32-0.128-0.32-0.32s0.128-0.32 0.32-0.32h2.112c0.192 0 0.32 0.128 0.32 0.32s-0.128 0.32-0.32 0.32h-2.112z"></path>
<path fill="#fff" d="M15.552 11.104l2.048 6.72c0.064 0.192-0.032 0.352-0.224 0.384-0.192 0.064-0.352-0.032-0.384-0.224l-2.048-6.72c-0.064-0.192 0.032-0.352 0.224-0.384 0.16-0.064 0.32 0.064 0.384 0.224z"></path>
<path fill="#fff" d="M18.144 18.464c0.032 0.16-0.064 0.288-0.224 0.352s-0.352-0.032-0.416-0.224l-2.208-6.656c-0.064-0.16 0.032-0.352 0.224-0.416 0.16-0.064 0.352 0.032 0.416 0.224l2.208 6.72c0-0.032 0 0 0 0z"></path>
<path fill="#fff" d="M17.024 22.080c0.128 0 0.256 0.096 0.32 0.224l1.12 4.576c0.064 0.16-0.032 0.352-0.224 0.384-0.16 0.064-0.352-0.032-0.384-0.224l-1.12-4.576c-0.064-0.16 0.032-0.352 0.224-0.384 0 0.032 0.032 0 0.064 0z"></path>
<path fill="#fff" d="M15.712 17.248l1.664 5.056c0.064 0.192-0.032 0.352-0.192 0.416-0.192 0.064-0.352-0.032-0.416-0.192l-1.696-5.088c-0.064-0.192 0.032-0.352 0.192-0.416 0.224-0.064 0.416 0.032 0.448 0.224z"></path>
<path fill="#fff" d="M20.224 26.176c0.128 0 0.256 0.096 0.32 0.224 0.032 0.16-0.064 0.352-0.224 0.384l-2.080 0.48c-0.16 0.032-0.352-0.064-0.384-0.224s0.064-0.352 0.224-0.384l2.080-0.48c0 0 0.032 0 0.064 0z"></path>
</svg>
<svg id="icon-gainer9" width="32" height="32" viewBox="0 0 32 32" x="0" y="288">
<path fill="#fff" d="M15.597 9.469l-0.093 7.967-0.64-0.008 0.093-7.967 0.64 0.008z"></path>
<path fill="#fff" d="M14.912 16.864h0.64v10.208h-0.64v-10.208z"></path>
<path fill="#fff" d="M16.736 9.28c-1.408 0.864-3.296 0.448-4.16-0.992s-0.416-3.296 0.992-4.192 3.296-0.448 4.192 0.992c0.864 1.44 0.416 3.296-1.024 4.192zM13.888 4.672c-1.12 0.704-1.472 2.176-0.768 3.296s2.176 1.472 3.296 0.768 1.472-2.176 0.768-3.296-2.144-1.472-3.296-0.768z"></path>
<path fill="#fff" d="M15.232 27.392c-0.192 0-0.32-0.128-0.32-0.32s0.128-0.32 0.32-0.32h2.112c0.192 0 0.32 0.128 0.32 0.32s-0.128 0.32-0.32 0.32h-2.112z"></path>
<path fill="#fff" d="M15.648 11.136l2.432 6.592c0.064 0.192 0 0.352-0.192 0.416s-0.352 0-0.416-0.192l-2.432-6.592c-0.064-0.192 0-0.352 0.192-0.416s0.352 0.064 0.416 0.192z"></path>
<path fill="#fff" d="M18.336 18.368c0.032 0.16-0.064 0.288-0.192 0.352s-0.352 0-0.416-0.192l-2.592-6.528c-0.064-0.16 0-0.352 0.192-0.416 0.16-0.064 0.352 0 0.416 0.192l2.592 6.592c0-0.032 0 0 0 0z"></path>
<path fill="#fff" d="M18.048 21.888c0.128-0.032 0.256 0.032 0.352 0.16l2.112 4.192c0.096 0.16 0.032 0.352-0.16 0.416-0.16 0.096-0.352 0.032-0.416-0.16l-2.112-4.192c-0.096-0.16-0.032-0.352 0.16-0.416 0 0.032 0.032 0 0.064 0z"></path>
<path fill="#fff" d="M15.52 17.6l2.88 4.448c0.096 0.16 0.064 0.352-0.096 0.448s-0.352 0.064-0.448-0.096l-2.912-4.48c-0.096-0.16-0.064-0.352 0.096-0.448s0.352-0.032 0.48 0.128z"></path>
<path fill="#fff" d="M22.080 25.152c0.128-0.032 0.256 0.032 0.352 0.16 0.064 0.16 0 0.352-0.16 0.416l-1.92 0.96c-0.16 0.064-0.352 0-0.416-0.16s0-0.352 0.16-0.416l1.92-0.96c0 0.032 0.032 0 0.064 0z"></path>
</svg>
<svg id="icon-gainer10" width="32" height="32" viewBox="0 0 32 32" x="0" y="320">
<path fill="#fff" d="M15.597 9.469l-0.093 7.967-0.64-0.008 0.093-7.967 0.64 0.008z"></path>
<path fill="#fff" d="M14.912 16.864h0.64v10.208h-0.64v-10.208z"></path>
<path fill="#fff" d="M16.736 9.28c-1.408 0.864-3.296 0.448-4.16-0.992s-0.416-3.296 0.992-4.192 3.296-0.448 4.192 0.992c0.864 1.44 0.416 3.296-1.024 4.192zM13.888 4.672c-1.12 0.704-1.472 2.176-0.768 3.296s2.176 1.472 3.296 0.768 1.472-2.176 0.768-3.296-2.144-1.472-3.296-0.768z"></path>
<path fill="#fff" d="M15.232 27.392c-0.192 0-0.32-0.128-0.32-0.32s0.128-0.32 0.32-0.32h2.112c0.192 0 0.32 0.128 0.32 0.32s-0.128 0.32-0.32 0.32h-2.112z"></path>
<path fill="#fff" d="M15.52 11.584l5.088 4.864c0.128 0.128 0.128 0.32 0 0.448s-0.32 0.128-0.448 0l-5.088-4.832c-0.128-0.128-0.128-0.32 0-0.448 0.128-0.16 0.32-0.128 0.448-0.032z"></path>
<path fill="#fff" d="M21.44 15.648c0.096 0.128 0.128 0.288 0.032 0.416s-0.288 0.192-0.448 0.064l-5.76-4c-0.128-0.096-0.192-0.288-0.064-0.448 0.096-0.128 0.288-0.192 0.448-0.064l5.792 4.032c-0.032 0 0 0 0 0z"></path>
<path fill="#fff" d="M19.968 20c0.096-0.096 0.256-0.096 0.384-0.064l4 2.464c0.16 0.064 0.224 0.288 0.096 0.448-0.064 0.16-0.288 0.224-0.448 0.096l-4-2.464c-0.16-0.064-0.224-0.288-0.096-0.448 0.032 0.032 0.032 0 0.064-0.032z"></path>
<path fill="#fff" d="M15.552 17.696l4.8 2.272c0.16 0.096 0.224 0.256 0.16 0.416-0.096 0.16-0.256 0.224-0.416 0.16l-4.832-2.304c-0.16-0.096-0.224-0.256-0.16-0.416s0.288-0.224 0.448-0.128z"></path>
<path fill="#fff" d="M25.12 20.672c0.096-0.096 0.256-0.096 0.384-0.064 0.128 0.096 0.192 0.288 0.096 0.448l-1.12 1.792c-0.096 0.128-0.288 0.192-0.448 0.096-0.128-0.096-0.192-0.288-0.096-0.448l1.12-1.792c0 0 0.032 0 0.064-0.032z"></path>
</svg>
<svg id="icon-gainer11" width="32" height="32" viewBox="0 0 32 32" x="0" y="352">
<path fill="#fff" d="M15.597 9.469l-0.093 7.967-0.64-0.008 0.093-7.967 0.64 0.008z"></path>
<path fill="#fff" d="M14.912 16.864h0.64v10.208h-0.64v-10.208z"></path>
<path fill="#fff" d="M16.736 9.28c-1.408 0.864-3.296 0.448-4.16-0.992s-0.416-3.296 0.992-4.192 3.296-0.448 4.192 0.992c0.864 1.44 0.416 3.296-1.024 4.192zM13.888 4.672c-1.12 0.704-1.472 2.176-0.768 3.296s2.176 1.472 3.296 0.768 1.472-2.176 0.768-3.296-2.144-1.472-3.296-0.768z"></path>
<path fill="#fff" d="M15.232 27.392c-0.192 0-0.32-0.128-0.32-0.32s0.128-0.32 0.32-0.32h2.112c0.192 0 0.32 0.128 0.32 0.32s-0.128 0.32-0.32 0.32h-2.112z"></path>
<path fill="#fff" d="M15.584 12.064l6.688 2.176c0.192 0.064 0.256 0.224 0.192 0.416s-0.224 0.256-0.416 0.192l-6.688-2.176c-0.192-0.064-0.256-0.224-0.192-0.416 0.064-0.16 0.256-0.256 0.416-0.192z"></path>
<path fill="#fff" d="M22.688 13.152c0.16 0.064 0.224 0.192 0.192 0.352s-0.192 0.288-0.384 0.256l-6.912-1.12c-0.16-0.032-0.288-0.192-0.256-0.384 0.032-0.16 0.192-0.288 0.384-0.256l6.976 1.152c-0.032 0 0 0 0 0z"></path>
<path fill="#fff" d="M20.192 17.888c0.064-0.128 0.192-0.192 0.352-0.192l4.608 0.928c0.16 0.032 0.288 0.192 0.224 0.384-0.032 0.16-0.192 0.288-0.384 0.224l-4.608-0.928c-0.16-0.032-0.288-0.192-0.224-0.384 0.032 0.032 0 0 0.032-0.032z"></path>
<path fill="#fff" d="M15.232 17.248l5.28 0.48c0.192 0.032 0.32 0.16 0.288 0.352s-0.16 0.32-0.352 0.288l-5.312-0.48c-0.192-0.032-0.32-0.16-0.288-0.352s0.192-0.288 0.384-0.288z"></path>
<path fill="#fff" d="M25.248 16.736c0.064-0.128 0.192-0.192 0.352-0.192 0.16 0.032 0.288 0.224 0.224 0.384l-0.416 2.080c-0.032 0.16-0.224 0.288-0.384 0.224-0.16-0.032-0.288-0.224-0.224-0.384l0.416-2.080c0 0.032 0.032 0 0.032-0.032z"></path>
</svg>
<svg id="icon-gainer12" width="32" height="32" viewBox="0 0 32 32" x="0" y="384">
<path fill="#fff" d="M15.597 9.469l-0.093 7.967-0.64-0.008 0.093-7.967 0.64 0.008z"></path>
<path fill="#fff" d="M14.912 16.864h0.64v10.208h-0.64v-10.208z"></path>
<path fill="#fff" d="M16.736 9.28c-1.408 0.864-3.296 0.448-4.16-0.992s-0.416-3.296 0.992-4.192 3.296-0.448 4.192 0.992c0.864 1.44 0.416 3.296-1.024 4.192zM13.888 4.672c-1.12 0.704-1.472 2.176-0.768 3.296s2.176 1.472 3.296 0.768 1.472-2.176 0.768-3.296-2.144-1.472-3.296-0.768z"></path>
<path fill="#fff" d="M15.232 27.392c-0.192 0-0.32-0.128-0.32-0.32s0.128-0.32 0.32-0.32h2.112c0.192 0 0.32 0.128 0.32 0.32s-0.128 0.32-0.32 0.32h-2.112z"></path>
<path fill="#fff" d="M15.328 12.64l7.040-0.192c0.192 0 0.32 0.128 0.32 0.32s-0.128 0.32-0.32 0.32l-7.040 0.192c-0.192 0-0.32-0.128-0.32-0.32s0.16-0.32 0.32-0.32z"></path>
<path fill="#fff" d="M22.4 11.328c0.16 0 0.288 0.096 0.32 0.256s-0.064 0.352-0.288 0.384l-6.912 1.248c-0.16 0-0.352-0.096-0.384-0.288-0.032-0.16 0.064-0.352 0.288-0.384l6.976-1.216c-0.032 0 0 0 0 0z"></path>
<path fill="#fff" d="M20.192 16.672c0.032-0.128 0.128-0.256 0.256-0.288l4.64-0.704c0.16-0.032 0.352 0.064 0.352 0.288 0.032 0.16-0.064 0.352-0.288 0.352l-4.64 0.704c-0.16 0.032-0.352-0.064-0.352-0.288 0.032 0 0.032-0.032 0.032-0.064z"></path>
<path fill="#fff" d="M15.328 17.76l5.12-1.344c0.192-0.064 0.352 0.032 0.384 0.224s-0.032 0.352-0.224 0.384l-5.152 1.376c-0.192 0.064-0.352-0.032-0.384-0.224-0.064-0.192 0.064-0.352 0.256-0.416z"></path>
<path fill="#fff" d="M24.544 13.856c0.032-0.128 0.128-0.256 0.256-0.288 0.16 0 0.352 0.096 0.352 0.288l0.288 2.112c0 0.16-0.096 0.352-0.288 0.352-0.16 0-0.352-0.096-0.352-0.288l-0.288-2.112c0.032 0 0.032-0.032 0.032-0.064z"></path>
</svg>
<svg id="icon-gainer13" width="32" height="32" viewBox="0 0 32 32" x="0" y="416">
<path fill="#fff" d="M15.193 9.44l0.437 7.956-0.639 0.035-0.437-7.956 0.639-0.035z"></path>
<path fill="#fff" d="M14.912 16.864h0.64v10.208h-0.64v-10.208z"></path>
<path fill="#fff" d="M16.352 9.184c-1.344 0.96-3.264 0.672-4.256-0.704s-0.64-3.264 0.704-4.256 3.264-0.672 4.256 0.704 0.672 3.264-0.704 4.256zM13.184 4.768c-1.056 0.768-1.312 2.272-0.544 3.36s2.272 1.312 3.36 0.544c1.056-0.768 1.312-2.272 0.544-3.36-0.768-1.056-2.272-1.312-3.36-0.544z"></path>
<path fill="#fff" d="M15.232 27.392c-0.192 0-0.32-0.128-0.32-0.32s0.128-0.32 0.32-0.32h2.112c0.192 0 0.32 0.128 0.32 0.32s-0.128 0.32-0.32 0.32h-2.112z"></path>
<path fill="#fff" d="M15.168 12.864l6.272-3.168c0.16-0.096 0.352-0.032 0.416 0.128 0.096 0.16 0.032 0.352-0.128 0.416l-6.272 3.2c-0.16 0.096-0.352 0.032-0.416-0.128-0.096-0.192-0.032-0.384 0.128-0.448z"></path>
<path fill="#fff" d="M20.992 8.64c0.16-0.064 0.288-0.032 0.384 0.128s0.064 0.352-0.096 0.448l-5.696 4.064c-0.128 0.096-0.352 0.064-0.448-0.096-0.096-0.128-0.096-0.352 0.064-0.448l5.792-4.096c-0.032 0.032 0 0 0 0z"></path>
<path fill="#fff" d="M19.2 14.4c-0.032-0.128 0.032-0.288 0.128-0.384l3.936-2.56c0.128-0.096 0.352-0.064 0.448 0.096 0.096 0.128 0.064 0.352-0.096 0.448l-3.936 2.56c-0.128 0.096-0.352 0.064-0.448-0.096 0 0-0.032-0.032-0.032-0.064z"></path>
<path fill="#fff" d="M15.232 17.408l4.096-3.36c0.16-0.128 0.32-0.096 0.448 0.032s0.096 0.32-0.032 0.448l-4.128 3.392c-0.16 0.128-0.32 0.096-0.448-0.032-0.128-0.16-0.096-0.352 0.064-0.48z"></path>
<path fill="#fff" d="M22.016 10.048c-0.032-0.128 0.032-0.288 0.128-0.384 0.128-0.064 0.352-0.032 0.448 0.096l1.152 1.792c0.064 0.128 0.032 0.352-0.096 0.448s-0.352 0.032-0.448-0.096l-1.152-1.792c-0.032-0.032-0.032-0.032-0.032-0.064z"></path>
</svg>
<svg id="icon-gainer14" width="32" height="32" viewBox="0 0 32 32" x="0" y="448">
<path fill="#fff" d="M14.471 9.384l1.083 7.894-0.634 0.087-1.083-7.894 0.634-0.087z"></path>
<path fill="#fff" d="M14.912 16.864h0.64v10.208h-0.64v-10.208z"></path>
<path fill="#fff" d="M15.584 9.024c-1.28 1.088-3.2 0.928-4.288-0.352s-0.928-3.2 0.352-4.288 3.2-0.928 4.288 0.352 0.928 3.2-0.352 4.288zM12.096 4.928c-0.992 0.864-1.12 2.368-0.288 3.392s2.368 1.12 3.392 0.288c0.992-0.864 1.12-2.368 0.288-3.392s-2.368-1.184-3.392-0.288z"></path>
<path fill="#fff" d="M15.232 27.392c-0.192 0-0.32-0.128-0.32-0.32s0.128-0.32 0.32-0.32h2.112c0.192 0 0.32 0.128 0.32 0.32s-0.128 0.32-0.32 0.32h-2.112z"></path>
<path fill="#fff" d="M14.592 12.48l4.928-5.024c0.128-0.128 0.32-0.128 0.448 0s0.128 0.32 0 0.448l-4.896 5.024c-0.128 0.128-0.32 0.128-0.448 0s-0.128-0.32-0.032-0.448z"></path>
<path fill="#fff" d="M18.752 6.624c0.128-0.096 0.288-0.128 0.416-0.032s0.192 0.32 0.064 0.448l-4.096 5.728c-0.096 0.128-0.32 0.192-0.448 0.064-0.128-0.096-0.192-0.32-0.064-0.448l4.128-5.76c0 0.032 0 0 0 0z"></path>
<path fill="#fff" d="M18.368 13.504c-0.064-0.096-0.032-0.256 0.032-0.384l3.232-3.392c0.096-0.128 0.32-0.16 0.448 0 0.128 0.096 0.16 0.32 0 0.448l-3.232 3.392c-0.096 0.128-0.32 0.16-0.448 0 0.032-0.032 0-0.032-0.032-0.064z"></path>
<path fill="#fff" d="M15.2 17.312l3.232-4.192c0.128-0.16 0.288-0.192 0.448-0.064s0.192 0.288 0.064 0.448l-3.264 4.224c-0.128 0.16-0.288 0.192-0.448 0.064-0.16-0.096-0.16-0.32-0.032-0.48z"></path>
<path fill="#fff" d="M20.096 8.608c-0.064-0.096-0.032-0.256 0.032-0.384 0.128-0.096 0.352-0.128 0.448 0l1.536 1.472c0.096 0.128 0.128 0.352 0 0.448s-0.352 0.128-0.448 0l-1.536-1.504c0 0 0-0.032-0.032-0.032z"></path>
</svg>
<svg id="icon-gainer15" width="32" height="32" viewBox="0 0 32 32" x="0" y="480">
<path fill="#fff" d="M12.982 9.563l2.438 7.586-0.609 0.196-2.438-7.586 0.609-0.196z"></path>
<path fill="#fff" d="M16.865 27.113l-0.634 0.087-1.389-10.113 0.634-0.087 1.389 10.113z"></path>
<path fill="#fff" d="M14.048 9.024c-1.056 1.28-2.976 1.472-4.288 0.384s-1.472-3.008-0.384-4.288 2.976-1.472 4.288-0.384 1.472 2.976 0.384 4.288zM9.888 5.568c-0.832 1.024-0.704 2.528 0.32 3.392s2.528 0.704 3.392-0.32 0.704-2.528-0.32-3.392-2.528-0.736-3.392 0.32z"></path>
<path fill="#fff" d="M16.608 27.488c-0.192 0.032-0.32-0.096-0.352-0.288s0.096-0.32 0.288-0.352l2.080-0.288c0.192-0.032 0.32 0.096 0.352 0.288s-0.096 0.32-0.288 0.352l-2.080 0.288z"></path>
<path fill="#fff" d="M13.664 12.576l3.968-5.824c0.096-0.16 0.288-0.192 0.448-0.096s0.192 0.288 0.096 0.448l-3.968 5.856c-0.128 0.16-0.288 0.192-0.448 0.064s-0.16-0.32-0.096-0.448z"></path>
<path fill="#fff" d="M16.736 6.080c0.096-0.128 0.256-0.16 0.384-0.096 0.16 0.064 0.224 0.256 0.128 0.448l-3.040 6.336c-0.064 0.16-0.256 0.224-0.448 0.128-0.16-0.064-0.224-0.256-0.128-0.448l3.104-6.368c0 0.032 0 0 0 0z"></path>
<path fill="#fff" d="M17.792 13.216c-0.064-0.096-0.064-0.256 0-0.384l2.848-3.744c0.096-0.16 0.288-0.192 0.448-0.064 0.16 0.096 0.192 0.288 0.064 0.448l-2.848 3.744c-0.096 0.16-0.288 0.192-0.448 0.064 0-0.032-0.064-0.064-0.064-0.064z"></path>
<path fill="#fff" d="M15.040 17.344l2.752-4.544c0.096-0.16 0.288-0.192 0.448-0.096s0.192 0.288 0.096 0.448l-2.752 4.576c-0.096 0.16-0.288 0.192-0.448 0.096s-0.192-0.288-0.096-0.48z"></path>
<path fill="#fff" d="M18.976 8.128c-0.064-0.096-0.064-0.256 0-0.384 0.096-0.128 0.32-0.16 0.448-0.064l1.696 1.312c0.128 0.096 0.16 0.32 0.064 0.448s-0.32 0.16-0.448 0.064l-1.696-1.312c-0.032 0-0.032-0.032-0.064-0.064z"></path>
</svg>
<svg id="icon-gainer16" width="32" height="32" viewBox="0 0 32 32" x="0" y="512">
<path fill="#fff" d="M11.732 10.125l3.99 6.897-0.554 0.32-3.99-6.897 0.554-0.32z"></path>
<path fill="#fff" d="M19.211 26.465l-0.601 0.219-3.5-9.589 0.601-0.219 3.5 9.589z"></path>
<path fill="#fff" d="M12.64 9.344c-0.768 1.472-2.592 2.080-4.096 1.28s-2.048-2.624-1.28-4.096 2.592-2.080 4.096-1.28 2.048 2.592 1.28 4.096zM7.84 6.848c-0.608 1.152-0.128 2.624 1.024 3.232s2.624 0.128 3.232-1.024 0.128-2.624-1.024-3.232-2.624-0.16-3.232 1.024z"></path>
<path fill="#fff" d="M19.040 26.88c-0.192 0.064-0.352 0-0.416-0.192s0-0.352 0.192-0.416l1.984-0.736c0.192-0.064 0.352 0 0.416 0.192s0 0.352-0.192 0.416l-1.984 0.736z"></path>
<path fill="#fff" d="M13.024 12.928l2.656-6.528c0.064-0.192 0.224-0.256 0.416-0.16 0.192 0.064 0.256 0.224 0.16 0.416l-2.656 6.528c-0.064 0.192-0.224 0.256-0.416 0.16-0.16-0.064-0.224-0.288-0.16-0.416z"></path>
<path fill="#fff" d="M14.656 5.92c0.064-0.16 0.224-0.224 0.384-0.16 0.16 0.032 0.288 0.224 0.224 0.384l-1.632 6.816c-0.032 0.16-0.224 0.288-0.384 0.224-0.16-0.032-0.288-0.224-0.224-0.384l1.632-6.88c0 0.032 0 0 0 0z"></path>
<path fill="#fff" d="M16.576 12.384c-0.096-0.064-0.16-0.224-0.128-0.352l1.472-4.48c0.032-0.16 0.224-0.288 0.416-0.192 0.16 0.032 0.288 0.224 0.192 0.416l-1.472 4.48c-0.064 0.128-0.256 0.224-0.416 0.16 0-0.032-0.032-0.032-0.064-0.032z"></path>
<path fill="#fff" d="M15.36 17.184l1.12-5.184c0.032-0.192 0.192-0.288 0.384-0.256s0.288 0.192 0.256 0.384l-1.12 5.216c-0.032 0.192-0.192 0.288-0.384 0.256s-0.288-0.224-0.256-0.416z"></path>
<path fill="#fff" d="M16.064 7.2c-0.096-0.064-0.16-0.224-0.128-0.352 0.064-0.16 0.256-0.256 0.416-0.192l2.016 0.672c0.16 0.064 0.256 0.256 0.192 0.416s-0.256 0.256-0.416 0.192l-2.016-0.672c-0.032-0.032-0.064-0.032-0.064-0.064z"></path>
</svg>
<svg id="icon-gainer17" width="32" height="32" viewBox="0 0 32 32" x="0" y="544">
<path fill="#fff" d="M10.33 10.907l5.624 5.645-0.453 0.452-5.624-5.645 0.453-0.452z"></path>
<path fill="#fff" d="M21.768 24.781l-0.525 0.366-5.84-8.373 0.525-0.366 5.84 8.373z"></path>
<path fill="#fff" d="M11.008 9.952c-0.352 1.632-1.984 2.688-3.616 2.304-1.664-0.384-2.656-2.016-2.304-3.616s1.984-2.688 3.616-2.304 2.656 1.952 2.304 3.616zM5.728 8.768c-0.288 1.28 0.544 2.592 1.824 2.88s2.592-0.544 2.88-1.824c0.288-1.28-0.544-2.592-1.824-2.88s-2.592 0.512-2.88 1.824z"></path>
<path fill="#fff" d="M21.696 25.216c-0.16 0.096-0.32 0.064-0.448-0.064-0.096-0.16-0.064-0.32 0.064-0.448l1.728-1.216c0.16-0.096 0.32-0.064 0.448 0.064 0.096 0.16 0.064 0.32-0.064 0.448l-1.728 1.216z"></path>
<path fill="#fff" d="M12.288 13.28l0.896-6.976c0.032-0.192 0.16-0.288 0.352-0.288 0.192 0.032 0.288 0.16 0.288 0.352l-0.896 6.976c-0.032 0.192-0.16 0.288-0.352 0.288s-0.288-0.192-0.288-0.352z"></path>
<path fill="#fff" d="M12.064 6.112c0.032-0.16 0.16-0.256 0.32-0.256s0.32 0.128 0.32 0.32l0.16 7.008c0 0.16-0.128 0.32-0.32 0.32-0.16 0-0.32-0.128-0.32-0.32l-0.16-7.072c0 0.032 0 0 0 0z"></path>
<path fill="#fff" d="M15.584 11.84c-0.128-0.032-0.224-0.192-0.224-0.32l0.288-4.704c0-0.16 0.16-0.32 0.352-0.288 0.16 0 0.32 0.16 0.288 0.352l-0.288 4.704c0 0.16-0.16 0.32-0.352 0.288 0.032-0.032-0.032 0-0.064-0.032z"></path>
<path fill="#fff" d="M15.648 16.832l-0.256-5.312c0-0.192 0.128-0.32 0.32-0.32s0.32 0.128 0.32 0.32l0.256 5.344c0 0.192-0.128 0.32-0.32 0.32s-0.32-0.16-0.32-0.352z"></path>
<path fill="#fff" d="M13.76 6.976c-0.128-0.032-0.224-0.192-0.224-0.32 0.032-0.16 0.192-0.32 0.352-0.288l2.112 0.128c0.16 0.032 0.32 0.192 0.288 0.352s-0.192 0.32-0.352 0.288l-2.112-0.128c0 0-0.032 0-0.064-0.032z"></path>
</svg>
<svg id="icon-gainer18" width="32" height="32" viewBox="0 0 32 32" x="0" y="576">
<path fill="#fff" d="M8.929 12.627l7.26 3.282-0.264 0.583-7.26-3.282 0.264-0.583z"></path>
<path fill="#fff" d="M25.598 19.208l-0.216 0.602-9.607-3.451 0.216-0.602 9.607 3.451z"></path>
<path fill="#fff" d="M9.216 11.488c0.224 1.632-0.896 3.2-2.592 3.424-1.664 0.256-3.2-0.928-3.424-2.592-0.224-1.632 0.896-3.2 2.592-3.424s3.2 0.896 3.424 2.592zM3.872 12.224c0.192 1.312 1.408 2.208 2.72 2.048 1.312-0.192 2.208-1.408 2.048-2.72-0.192-1.312-1.408-2.208-2.72-2.048s-2.24 1.408-2.048 2.72z"></path>
<path fill="#fff" d="M25.792 19.616c-0.064 0.192-0.224 0.256-0.416 0.192s-0.256-0.224-0.192-0.416l0.704-1.984c0.064-0.192 0.224-0.256 0.416-0.192s0.256 0.224 0.192 0.416l-0.704 1.984z"></path>
<path fill="#fff" d="M11.616 14.144l-1.632-6.848c-0.032-0.192 0.064-0.352 0.224-0.384 0.192-0.032 0.352 0.064 0.384 0.224l1.632 6.848c0.032 0.192-0.064 0.352-0.224 0.384-0.192 0.064-0.352-0.064-0.384-0.224z"></path>
<path fill="#fff" d="M8.864 7.488c-0.032-0.16 0.032-0.288 0.192-0.352s0.352 0 0.416 0.192l2.656 6.496c0.064 0.16 0 0.352-0.192 0.416-0.16 0.064-0.352 0-0.416-0.192l-2.656-6.56c0 0.032 0 0 0 0z"></path>
<path fill="#fff" d="M14.176 11.616c-0.128 0-0.256-0.096-0.32-0.224l-1.408-4.48c-0.064-0.16 0.032-0.352 0.224-0.384 0.16-0.064 0.352 0.032 0.384 0.224l1.408 4.48c0.064 0.16-0.032 0.352-0.224 0.384 0-0.032-0.032 0-0.064 0z"></path>
<path fill="#fff" d="M16 16.256l-2.112-4.864c-0.064-0.16 0-0.352 0.16-0.416s0.352 0 0.416 0.16l2.144 4.896c0.064 0.16 0 0.352-0.16 0.416-0.192 0.096-0.384 0-0.448-0.192z"></path>
<path fill="#fff" d="M10.752 7.744c-0.128 0-0.256-0.096-0.32-0.224-0.032-0.16 0.064-0.352 0.224-0.384l2.048-0.608c0.16-0.032 0.352 0.064 0.384 0.224s-0.064 0.352-0.224 0.384l-2.048 0.608c0 0-0.032 0-0.064 0z"></path>
</svg>
<svg id="icon-gainer19" width="32" height="32" viewBox="0 0 32 32" x="0" y="608">
<path fill="#fff" d="M8.923 13.728l7.745 1.872-0.15 0.622-7.745-1.872 0.15-0.622z"></path>
<path fill="#fff" d="M26.742 15.091l0.037 0.639-10.191 0.596-0.037-0.639 10.191-0.596z"></path>
<path fill="#fff" d="M8.992 12.544c0.544 1.568-0.288 3.296-1.888 3.872-1.6 0.544-3.328-0.32-3.872-1.888s0.32-3.328 1.92-3.872c1.6-0.544 3.296 0.288 3.84 1.888zM3.904 14.304c0.416 1.248 1.792 1.92 3.040 1.504s1.92-1.792 1.504-3.040c-0.416-1.248-1.792-1.92-3.040-1.504-1.28 0.416-1.952 1.76-1.504 3.040z"></path>
<path fill="#fff" d="M27.104 15.392c0 0.192-0.096 0.32-0.288 0.352-0.192 0-0.32-0.096-0.352-0.288l-0.128-2.112c0-0.192 0.096-0.32 0.288-0.352 0.192 0 0.32 0.096 0.352 0.288l0.128 2.112z"></path>
<path fill="#fff" d="M11.872 14.72l-2.88-6.432c-0.064-0.16 0-0.352 0.16-0.416s0.352 0 0.416 0.16l2.88 6.432c0.064 0.16 0 0.352-0.16 0.416-0.192 0.096-0.352 0-0.416-0.16z"></path>
<path fill="#fff" d="M7.904 8.704c-0.064-0.16 0-0.288 0.128-0.384s0.352-0.064 0.448 0.096l3.808 5.888c0.096 0.128 0.064 0.352-0.096 0.448-0.128 0.096-0.352 0.064-0.448-0.096l-3.84-5.952c0.032 0.032 0 0 0 0z"></path>
<path fill="#fff" d="M14.208 11.552c-0.128 0-0.256-0.064-0.32-0.192l-1.632-4.416c-0.064-0.16 0-0.352 0.192-0.384 0.16-0.064 0.352 0 0.384 0.192l1.632 4.416c0.064 0.16 0 0.352-0.192 0.384 0-0.064-0.032-0.032-0.064 0z"></path>
<path fill="#fff" d="M16.256 16.064l-2.368-4.768c-0.096-0.16-0.032-0.352 0.16-0.416s0.352-0.032 0.416 0.16l2.368 4.8c0.096 0.16 0.032 0.352-0.16 0.416-0.16 0.064-0.352 0-0.416-0.192z"></path>
<path fill="#fff" d="M10.56 7.808c-0.128 0-0.256-0.064-0.32-0.192-0.032-0.16 0.032-0.352 0.192-0.384l2.016-0.736c0.16-0.032 0.352 0.032 0.384 0.192s-0.032 0.352-0.192 0.384l-2.016 0.736c0 0-0.032 0-0.064 0z"></path>
</svg>
<svg id="icon-gainer20" width="32" height="32" viewBox="0 0 32 32" x="0" y="640">
<path fill="#fff" d="M9.349 14.661l7.943 0.632-0.051 0.638-7.943-0.632 0.051-0.638z"></path>
<path fill="#fff" d="M24.497 9.002l0.416 0.487-7.761 6.63-0.416-0.487 7.761-6.63z"></path>
<path fill="#fff" d="M9.248 13.504c0.768 1.472 0.224 3.328-1.248 4.096s-3.328 0.192-4.096-1.248c-0.768-1.472-0.224-3.328 1.248-4.096s3.296-0.256 4.096 1.248zM4.448 16.032c0.608 1.152 2.080 1.6 3.232 0.992s1.6-2.080 0.992-3.232c-0.608-1.152-2.080-1.6-3.232-0.992s-1.6 2.048-0.992 3.232z"></path>
<path fill="#fff" d="M24.928 9.024c0.128 0.16 0.096 0.32-0.032 0.448s-0.32 0.096-0.448-0.032l-1.376-1.6c-0.128-0.16-0.096-0.32 0.032-0.448s0.32-0.096 0.448 0.032l1.376 1.6z"></path>
<path fill="#fff" d="M12.416 15.2l-3.872-5.888c-0.096-0.16-0.064-0.352 0.096-0.448s0.32-0.064 0.448 0.096l3.872 5.888c0.096 0.16 0.064 0.352-0.096 0.448-0.192 0.096-0.384 0.032-0.448-0.096z"></path>
<path fill="#fff" d="M7.552 9.888c-0.064-0.128-0.064-0.288 0.064-0.416 0.128-0.096 0.352-0.128 0.448 0.032l4.704 5.216c0.096 0.128 0.128 0.352-0.032 0.448-0.128 0.096-0.352 0.128-0.448-0.032l-4.736-5.248c0.032 0 0 0 0 0z"></path>
<path fill="#fff" d="M14.528 11.392c-0.128 0.032-0.256-0.064-0.352-0.16l-1.984-4.256c-0.096-0.16-0.032-0.352 0.16-0.416 0.16-0.096 0.352-0.032 0.416 0.16l1.984 4.256c0.096 0.16 0.032 0.352-0.16 0.416-0.032-0.032-0.032 0-0.064 0z"></path>
<path fill="#fff" d="M16.928 15.776l-2.752-4.576c-0.096-0.16-0.064-0.32 0.096-0.416s0.352-0.064 0.448 0.096l2.752 4.576c0.096 0.16 0.064 0.352-0.096 0.448s-0.352 0.032-0.448-0.128z"></path>
<path fill="#fff" d="M10.592 8c-0.128 0-0.256-0.064-0.352-0.192-0.064-0.16 0-0.352 0.16-0.416l1.952-0.864c0.16-0.064 0.352 0 0.416 0.16s0 0.352-0.16 0.416l-1.952 0.864c0 0-0.032 0.032-0.064 0.032z"></path>
</svg>
<svg id="icon-gainer21" width="32" height="32" viewBox="0 0 32 32" x="0" y="672">
<path fill="#fff" d="M9.975 15.632l7.898-1.053 0.085 0.634-7.898 1.053-0.085-0.634z"></path>
<path fill="#fff" d="M22.302 5.708l0.567 0.296-4.719 9.051-0.567-0.296 4.719-9.051z"></path>
<path fill="#fff" d="M9.632 14.528c1.056 1.28 0.928 3.2-0.384 4.288s-3.2 0.896-4.288-0.384-0.928-3.2 0.384-4.288c1.28-1.088 3.2-0.928 4.288 0.384zM5.472 18.016c0.832 0.992 2.368 1.152 3.392 0.288s1.152-2.368 0.288-3.392-2.368-1.152-3.392-0.288-1.152 2.368-0.288 3.392z"></path>
<path fill="#fff" d="M22.72 5.568c0.16 0.096 0.224 0.256 0.128 0.416s-0.256 0.224-0.416 0.128l-1.888-0.992c-0.16-0.096-0.224-0.256-0.128-0.416s0.256-0.224 0.416-0.128l1.888 0.992z"></path>
<path fill="#fff" d="M13.056 15.52l-4.992-4.96c-0.128-0.128-0.128-0.32 0-0.448s0.32-0.128 0.448 0l5.024 4.928c0.128 0.128 0.128 0.32 0 0.448s-0.352 0.128-0.48 0.032z"></path>
<path fill="#fff" d="M7.2 11.328c-0.096-0.128-0.128-0.288-0.032-0.416s0.32-0.192 0.448-0.064l5.696 4.128c0.128 0.096 0.192 0.32 0.064 0.448-0.096 0.128-0.32 0.192-0.448 0.064l-5.728-4.16c0.032 0.032 0 0 0 0z"></path>
<path fill="#fff" d="M14.912 10.816c-0.128 0.032-0.256-0.032-0.352-0.16l-2.112-4.192c-0.096-0.16-0.032-0.352 0.16-0.416 0.16-0.096 0.352-0.032 0.416 0.16l2.112 4.192c0.096 0.16 0.032 0.352-0.16 0.416 0-0.032-0.032 0-0.064 0z"></path>
<path fill="#fff" d="M17.472 15.104l-2.88-4.448c-0.096-0.16-0.064-0.352 0.096-0.448s0.352-0.064 0.448 0.096l2.912 4.48c0.096 0.16 0.064 0.352-0.096 0.448s-0.384 0.032-0.48-0.128z"></path>
<path fill="#fff" d="M10.88 7.552c-0.128 0.032-0.256-0.032-0.352-0.16-0.064-0.16 0-0.352 0.16-0.416l1.92-0.928c0.16-0.064 0.352 0 0.416 0.16s0 0.352-0.16 0.416l-1.92 0.928c0 0-0.032 0-0.064 0z"></path>
</svg>
<svg id="icon-gainer22" width="32" height="32" viewBox="0 0 32 32" x="0" y="704">
<path fill="#fff" d="M11.070 16.472l7.327-3.131 0.251 0.589-7.327 3.131-0.251-0.589z"></path>
<path fill="#fff" d="M20.301 3.599l0.626 0.133-2.121 9.985-0.626-0.133 2.121-9.985z"></path>
<path fill="#fff" d="M10.432 15.488c1.376 0.928 1.76 2.816 0.8 4.224s-2.848 1.728-4.224 0.8c-1.376-0.928-1.76-2.816-0.8-4.224s2.816-1.76 4.224-0.8zM7.36 19.968c1.088 0.736 2.592 0.448 3.328-0.64s0.448-2.592-0.64-3.328c-1.088-0.736-2.592-0.448-3.328 0.64-0.704 1.056-0.448 2.56 0.64 3.328z"></path>
<path fill="#fff" d="M20.672 3.36c0.192 0.032 0.288 0.192 0.256 0.384s-0.192 0.288-0.384 0.256l-2.080-0.448c-0.192-0.032-0.288-0.192-0.256-0.384s0.192-0.288 0.384-0.256l2.080 0.448z"></path>
<path fill="#fff" d="M14.016 15.52l-6.144-3.424c-0.192-0.064-0.224-0.256-0.128-0.416s0.256-0.224 0.448-0.128l6.144 3.424c0.16 0.096 0.224 0.256 0.128 0.448-0.096 0.16-0.32 0.192-0.448 0.096z"></path>
<path fill="#fff" d="M7.264 13.056c-0.128-0.096-0.192-0.224-0.128-0.384s0.256-0.256 0.416-0.192l6.592 2.432c0.16 0.064 0.256 0.256 0.192 0.416s-0.256 0.256-0.416 0.192l-6.656-2.464c0.032 0.032 0 0 0 0z"></path>
<path fill="#fff" d="M15.136 9.632c-0.128 0.032-0.288-0.032-0.384-0.128l-2.464-4c-0.096-0.128-0.064-0.352 0.128-0.416 0.128-0.096 0.352-0.064 0.416 0.128l2.464 4c0.096 0.128 0.064 0.352-0.128 0.416 0.032-0.032 0 0-0.032 0z"></path>
<path fill="#fff" d="M18.048 13.696l-3.264-4.192c-0.128-0.16-0.096-0.32 0.064-0.448s0.32-0.096 0.448 0.064l3.264 4.192c0.128 0.16 0.096 0.32-0.064 0.448-0.128 0.128-0.352 0.064-0.448-0.064z"></path>
<path fill="#fff" d="M10.816 6.72c-0.128 0.032-0.288-0.032-0.384-0.128-0.064-0.16-0.032-0.352 0.128-0.416l1.824-1.12c0.16-0.064 0.352-0.032 0.416 0.128s0.032 0.352-0.128 0.416l-1.792 1.12c0 0-0.032 0-0.064 0z"></path>
</svg>
<svg id="icon-gainer23" width="32" height="32" viewBox="0 0 32 32" x="0" y="736">
<path fill="#fff" d="M11.795 18.035l6.341-4.825 0.388 0.509-6.341 4.825-0.388-0.509z"></path>
<path fill="#fff" d="M17.375 3.294l0.639-0.040 0.643 10.188-0.639 0.040-0.643-10.188z"></path>
<path fill="#fff" d="M10.944 17.216c1.568 0.576 2.4 2.304 1.792 3.904-0.576 1.6-2.336 2.368-3.904 1.792s-2.4-2.304-1.792-3.904 2.304-2.368 3.904-1.792zM9.056 22.304c1.216 0.448 2.624-0.192 3.072-1.408s-0.192-2.624-1.408-3.072-2.624 0.192-3.072 1.408 0.16 2.592 1.408 3.072z"></path>
<path fill="#fff" d="M17.664 2.976c0.192 0 0.32 0.096 0.352 0.288 0 0.192-0.096 0.32-0.288 0.352l-2.112 0.128c-0.192 0-0.32-0.096-0.352-0.288 0-0.192 0.096-0.32 0.288-0.352l2.112-0.128z"></path>
<path fill="#fff" d="M14.432 16.384l-6.816-1.824c-0.192-0.064-0.288-0.192-0.224-0.384s0.192-0.288 0.384-0.224l6.816 1.824c0.192 0.064 0.288 0.192 0.224 0.384s-0.256 0.256-0.384 0.224z"></path>
<path fill="#fff" d="M7.264 15.648c-0.16-0.064-0.256-0.192-0.224-0.352s0.16-0.32 0.352-0.288l6.976 0.768c0.16 0.032 0.32 0.16 0.288 0.352-0.032 0.16-0.16 0.32-0.352 0.288l-7.040-0.768c0.032 0 0 0 0 0z"></path>
<path fill="#fff" d="M15.136 9.632c-0.128 0.032-0.288-0.032-0.384-0.128l-2.464-4c-0.096-0.128-0.064-0.352 0.128-0.416 0.128-0.096 0.352-0.064 0.416 0.128l2.464 4c0.096 0.128 0.064 0.352-0.128 0.416 0.032-0.032 0 0-0.032 0z"></path>
<path fill="#fff" d="M18.048 13.696l-3.264-4.192c-0.128-0.16-0.096-0.32 0.064-0.448s0.32-0.096 0.448 0.064l3.264 4.192c0.128 0.16 0.096 0.32-0.064 0.448-0.128 0.128-0.352 0.064-0.448-0.064z"></path>
<path fill="#fff" d="M10.816 6.72c-0.128 0.032-0.288-0.032-0.384-0.128-0.064-0.16-0.032-0.352 0.128-0.416l1.824-1.12c0.16-0.064 0.352-0.032 0.416 0.128s0.032 0.352-0.128 0.416l-1.792 1.12c0 0-0.032 0-0.064 0z"></path>
</svg>
<svg id="icon-gainer24" width="32" height="32" viewBox="0 0 32 32" x="0" y="768">
<path fill="#fff" d="M14.717 20.374l3.372-7.22 0.58 0.271-3.372 7.22-0.58-0.271z"></path>
<path fill="#fff" d="M14.824 3.68l0.609-0.198 3.151 9.71-0.609 0.198-3.151-9.71z"></path>
<path fill="#fff" d="M13.568 20.064c1.664-0.224 3.2 0.928 3.392 2.624 0.224 1.696-0.96 3.2-2.624 3.392s-3.2-0.928-3.392-2.624 0.96-3.168 2.624-3.392zM14.272 25.44c1.312-0.16 2.24-1.376 2.080-2.688s-1.376-2.24-2.688-2.080c-1.312 0.16-2.24 1.376-2.080 2.688 0.16 1.28 1.376 2.24 2.688 2.080z"></path>
<path fill="#fff" d="M15.040 3.264c0.192-0.064 0.352 0.032 0.416 0.192 0.064 0.192-0.032 0.352-0.192 0.416l-2.016 0.64c-0.192 0.064-0.352-0.032-0.416-0.192-0.064-0.192 0.032-0.352 0.192-0.416l2.016-0.64z"></path>
<path fill="#fff" d="M16.384 17.472l-6.528 2.592c-0.192 0.064-0.352 0-0.416-0.192s0-0.352 0.192-0.416l6.528-2.592c0.192-0.064 0.352 0 0.416 0.192s-0.032 0.352-0.192 0.416z"></path>
<path fill="#fff" d="M10.208 21.152c-0.16 0.064-0.288 0-0.384-0.16s-0.032-0.352 0.128-0.448l6.048-3.52c0.128-0.064 0.352-0.032 0.448 0.128 0.064 0.128 0.032 0.352-0.128 0.448l-6.112 3.552c0.032 0 0 0 0 0z"></path>
<path fill="#fff" d="M15.136 9.632c-0.128 0.032-0.288-0.032-0.384-0.128l-2.464-4c-0.096-0.128-0.064-0.352 0.128-0.416 0.128-0.096 0.352-0.064 0.416 0.128l2.464 4c0.096 0.128 0.064 0.352-0.128 0.416 0.032-0.032 0 0-0.032 0z"></path>
<path fill="#fff" d="M18.048 13.696l-3.264-4.192c-0.128-0.16-0.096-0.32 0.064-0.448s0.32-0.096 0.448 0.064l3.264 4.192c0.128 0.16 0.096 0.32-0.064 0.448-0.128 0.128-0.352 0.064-0.448-0.064z"></path>
<path fill="#fff" d="M10.816 6.72c-0.128 0.032-0.288-0.032-0.384-0.128-0.064-0.16-0.032-0.352 0.128-0.416l1.824-1.12c0.16-0.064 0.352-0.032 0.416 0.128s0.032 0.352-0.128 0.416l-1.792 1.12c0 0-0.032 0-0.064 0z"></path>
</svg>
<svg id="icon-gainer25" width="32" height="32" viewBox="0 0 32 32" x="0" y="800">
<path fill="#fff" d="M16.495 21.146l1.41-7.842 0.63 0.113-1.41 7.842-0.63-0.113z"></path>
<path fill="#fff" d="M12.148 5.266l0.525-0.365 5.828 8.381-0.525 0.365-5.828-8.381z"></path>
<path fill="#fff" d="M15.296 21.12c1.536-0.64 3.328 0.096 3.968 1.664s-0.128 3.328-1.664 3.968c-1.536 0.64-3.328-0.096-3.968-1.664s0.096-3.328 1.664-3.968zM17.344 26.144c1.216-0.512 1.824-1.92 1.312-3.136s-1.92-1.824-3.136-1.312c-1.216 0.512-1.824 1.92-1.312 3.136 0.512 1.184 1.888 1.792 3.136 1.312z"></path>
<path fill="#fff" d="M12.224 4.832c0.16-0.096 0.32-0.064 0.448 0.096 0.096 0.16 0.064 0.32-0.096 0.448l-1.728 1.216c-0.16 0.096-0.32 0.064-0.448-0.096-0.096-0.16-0.064-0.32 0.096-0.448l1.728-1.216z"></path>
<path fill="#fff" d="M17.376 17.92l-5.664 4.192c-0.16 0.128-0.32 0.096-0.448-0.064s-0.096-0.32 0.064-0.448l5.664-4.192c0.16-0.128 0.32-0.096 0.448 0.064s0.064 0.352-0.064 0.448z"></path>
<path fill="#fff" d="M12.32 23.040c-0.128 0.096-0.288 0.064-0.416-0.032s-0.128-0.32 0-0.448l4.96-4.992c0.128-0.128 0.32-0.128 0.448 0s0.128 0.32 0 0.448l-4.992 5.024c0.032 0 0 0 0 0z"></path>
<path fill="#fff" d="M14.624 10.208c-0.128 0.064-0.288 0-0.384-0.096l-2.944-3.648c-0.128-0.128-0.096-0.352 0.064-0.448 0.128-0.128 0.352-0.096 0.448 0.064l2.944 3.648c0.128 0.128 0.096 0.352-0.064 0.448-0.032-0.032-0.032 0-0.064 0.032z"></path>
<path fill="#fff" d="M17.984 13.856l-3.744-3.744c-0.128-0.128-0.128-0.32 0-0.448s0.32-0.128 0.448 0l3.776 3.776c0.128 0.128 0.128 0.32 0 0.448s-0.32 0.096-0.48-0.032z"></path>
<path fill="#fff" d="M9.984 7.84c-0.128 0.064-0.288 0-0.384-0.096-0.096-0.128-0.064-0.352 0.064-0.448l1.664-1.312c0.128-0.096 0.352-0.064 0.448 0.064s0.064 0.352-0.064 0.448l-1.664 1.312c0 0-0.032 0-0.064 0.032z"></path>
</svg>
<svg id="icon-gainer26" width="32" height="32" viewBox="0 0 32 32" x="0" y="832">
<path fill="#fff" d="M16.655 20.903l-0.047-7.968 0.64-0.004 0.047 7.968-0.64 0.004z"></path>
<path fill="#fff" d="M10.052 5.562l0.48-0.423 6.752 7.657-0.48 0.423-6.752-7.657z"></path>
<path fill="#fff" d="M15.488 21.12c1.408-0.896 3.296-0.512 4.192 0.896s0.48 3.296-0.896 4.192-3.296 0.512-4.192-0.896-0.544-3.264 0.896-4.192zM18.432 25.664c1.088-0.704 1.44-2.208 0.704-3.328-0.704-1.088-2.208-1.44-3.328-0.704-1.088 0.704-1.44 2.208-0.704 3.328s2.176 1.44 3.328 0.704z"></path>
<path fill="#fff" d="M10.080 5.12c0.16-0.128 0.32-0.128 0.448 0.032s0.128 0.32-0.032 0.448l-1.6 1.408c-0.16 0.128-0.32 0.128-0.448-0.032s-0.128-0.32 0.032-0.448l1.6-1.408z"></path>
<path fill="#fff" d="M16.928 17.568l-4.8 5.152c-0.128 0.128-0.32 0.16-0.448 0.032s-0.16-0.32-0.032-0.448l4.8-5.152c0.128-0.128 0.32-0.16 0.448-0.032 0.16 0.128 0.128 0.352 0.032 0.448z"></path>
<path fill="#fff" d="M12.928 23.552c-0.128 0.096-0.288 0.128-0.416 0.032s-0.192-0.288-0.064-0.448l3.936-5.792c0.096-0.128 0.288-0.192 0.448-0.064 0.128 0.096 0.192 0.288 0.064 0.448l-3.968 5.824c0-0.032 0 0 0 0z"></path>
<path fill="#fff" d="M13.344 9.888c-0.128 0.064-0.288 0-0.384-0.096l-2.944-3.648c-0.128-0.128-0.096-0.352 0.064-0.448 0.128-0.128 0.352-0.096 0.448 0.064l2.944 3.648c0.128 0.128 0.096 0.352-0.064 0.448-0.032-0.032-0.032 0-0.064 0.032z"></path>
<path fill="#fff" d="M16.704 13.536l-3.744-3.744c-0.128-0.128-0.128-0.32 0-0.448s0.32-0.128 0.448 0l3.776 3.776c0.128 0.128 0.128 0.32 0 0.448s-0.32 0.096-0.48-0.032z"></path>
<path fill="#fff" d="M8.704 7.52c-0.128 0.064-0.288 0-0.384-0.096-0.096-0.128-0.064-0.352 0.064-0.448l1.664-1.312c0.128-0.096 0.352-0.064 0.448 0.064s0.064 0.352-0.064 0.448l-1.664 1.312c0 0-0.032 0-0.064 0.032z"></path>
</svg>
<svg id="icon-gainer27" width="32" height="32" viewBox="0 0 32 32" x="0" y="864">
<path fill="#fff" d="M17.358 20.83l-0.68-7.939 0.638-0.055 0.68 7.939-0.638 0.055z"></path>
<path fill="#fff" d="M8.499 7.614l0.365-0.526 8.387 5.819-0.365 0.526-8.387-5.819z"></path>
<path fill="#fff" d="M16.224 21.152c1.312-1.024 3.232-0.768 4.256 0.576s0.736 3.264-0.576 4.256-3.232 0.768-4.256-0.576c-1.024-1.344-0.768-3.232 0.576-4.256zM19.52 25.44c1.056-0.8 1.248-2.336 0.448-3.36-0.8-1.056-2.336-1.248-3.36-0.448s-1.248 2.336-0.448 3.36c0.8 1.024 2.272 1.248 3.36 0.448z"></path>
<path fill="#fff" d="M8.416 7.168c0.096-0.16 0.288-0.192 0.448-0.096s0.192 0.288 0.096 0.448l-1.216 1.76c-0.096 0.16-0.288 0.192-0.448 0.096s-0.192-0.288-0.096-0.448l1.216-1.76z"></path>
<path fill="#fff" d="M17.376 17.504l-4.384 5.536c-0.128 0.16-0.288 0.16-0.448 0.064-0.16-0.128-0.16-0.288-0.064-0.448l4.384-5.536c0.128-0.16 0.288-0.16 0.448-0.064 0.16 0.128 0.16 0.32 0.064 0.448z"></path>
<path fill="#fff" d="M13.856 23.776c-0.096 0.128-0.256 0.16-0.416 0.064-0.128-0.096-0.224-0.288-0.096-0.448l3.488-6.080c0.096-0.128 0.288-0.224 0.448-0.096 0.128 0.096 0.224 0.288 0.096 0.448l-3.52 6.112c0.032-0.032 0 0 0 0z"></path>
<path fill="#fff" d="M13.344 9.888c-0.128 0.064-0.288 0-0.384-0.096l-2.944-3.648c-0.128-0.128-0.096-0.352 0.064-0.448 0.128-0.128 0.352-0.096 0.448 0.064l2.944 3.648c0.128 0.128 0.096 0.352-0.064 0.448-0.032-0.032-0.032 0-0.064 0.032z"></path>
<path fill="#fff" d="M16.704 13.536l-3.744-3.744c-0.128-0.128-0.128-0.32 0-0.448s0.32-0.128 0.448 0l3.776 3.776c0.128 0.128 0.128 0.32 0 0.448s-0.32 0.096-0.48-0.032z"></path>
<path fill="#fff" d="M8.704 7.52c-0.128 0.064-0.288 0-0.384-0.096-0.096-0.128-0.064-0.352 0.064-0.448l1.664-1.312c0.128-0.096 0.352-0.064 0.448 0.064s0.064 0.352-0.064 0.448l-1.664 1.312c0 0-0.032 0-0.064 0.032z"></path>
</svg>
<svg id="icon-gainer28" width="32" height="32" viewBox="0 0 32 32" x="0" y="896">
<path fill="#fff" d="M18.096 20.788l-1.343-7.854 0.631-0.108 1.343 7.854-0.631 0.108z"></path>
<path fill="#fff" d="M8.109 8.7l0.3-0.565 9.017 4.785-0.3 0.565-9.017-4.784z"></path>
<path fill="#fff" d="M16.992 21.184c1.248-1.12 3.168-1.056 4.288 0.224s1.024 3.168-0.224 4.288-3.168 1.056-4.288-0.224c-1.12-1.248-1.024-3.136 0.224-4.288zM20.608 25.184c0.96-0.896 1.056-2.432 0.16-3.392s-2.432-1.056-3.392-0.16c-0.96 0.896-1.056 2.432-0.16 3.392s2.4 1.056 3.392 0.16z"></path>
<path fill="#fff" d="M7.968 8.288c0.096-0.16 0.256-0.224 0.448-0.128 0.16 0.096 0.224 0.256 0.128 0.448l-0.992 1.856c-0.096 0.16-0.256 0.224-0.448 0.128s-0.224-0.256-0.128-0.448l0.992-1.856z"></path>
<path fill="#fff" d="M17.824 17.472l-3.904 5.856c-0.096 0.16-0.288 0.192-0.448 0.096s-0.192-0.288-0.096-0.448l3.904-5.856c0.096-0.16 0.288-0.192 0.448-0.096s0.192 0.288 0.096 0.448z"></path>
<path fill="#fff" d="M14.848 24c-0.096 0.128-0.256 0.16-0.384 0.096s-0.256-0.256-0.16-0.448l2.944-6.368c0.064-0.16 0.256-0.256 0.448-0.16 0.16 0.064 0.256 0.256 0.16 0.448l-3.008 6.432c0.032-0.032 0 0 0 0z"></path>
<path fill="#fff" d="M13.344 9.888c-0.128 0.064-0.288 0-0.384-0.096l-2.944-3.648c-0.128-0.128-0.096-0.352 0.064-0.448 0.128-0.128 0.352-0.096 0.448 0.064l2.944 3.648c0.128 0.128 0.096 0.352-0.064 0.448-0.032-0.032-0.032 0-0.064 0.032z"></path>
<path fill="#fff" d="M16.704 13.536l-3.744-3.744c-0.128-0.128-0.128-0.32 0-0.448s0.32-0.128 0.448 0l3.776 3.776c0.128 0.128 0.128 0.32 0 0.448s-0.32 0.096-0.48-0.032z"></path>
<path fill="#fff" d="M8.704 7.52c-0.128 0.064-0.288 0-0.384-0.096-0.096-0.128-0.064-0.352 0.064-0.448l1.664-1.312c0.128-0.096 0.352-0.064 0.448 0.064s0.064 0.352-0.064 0.448l-1.664 1.312c0 0-0.032 0-0.064 0.032z"></path>
</svg>
<svg id="icon-gainer29" width="32" height="32" viewBox="0 0 32 32" x="0" y="928">
<path fill="#fff" d="M18.887 20.716l-2.33-7.62 0.612-0.187 2.33 7.62-0.612 0.187z"></path>
<path fill="#fff" d="M7.373 10.307l0.209-0.605 9.651 3.328-0.209 0.605-9.651-3.328z"></path>
<path fill="#fff" d="M17.824 21.248c1.088-1.28 3.008-1.44 4.288-0.32s1.408 3.008 0.32 4.288c-1.088 1.28-3.008 1.44-4.288 0.32s-1.408-2.976-0.32-4.288zM21.952 24.768c0.864-0.992 0.736-2.528-0.256-3.392s-2.528-0.736-3.392 0.256-0.736 2.528 0.256 3.392c0.992 0.864 2.496 0.768 3.392-0.256z"></path>
<path fill="#fff" d="M7.168 9.92c0.064-0.192 0.224-0.256 0.416-0.192s0.256 0.224 0.192 0.416l-0.704 1.984c-0.064 0.192-0.224 0.256-0.416 0.192s-0.256-0.224-0.192-0.416l0.704-1.984z"></path>
<path fill="#fff" d="M18.208 17.472l-3.104 6.304c-0.096 0.16-0.256 0.224-0.416 0.16s-0.224-0.256-0.16-0.416l3.104-6.304c0.096-0.16 0.256-0.224 0.416-0.16s0.224 0.256 0.16 0.416z"></path>
<path fill="#fff" d="M16.064 24.32c-0.096 0.128-0.224 0.192-0.384 0.16s-0.256-0.224-0.192-0.416l2.112-6.688c0.064-0.16 0.224-0.256 0.416-0.192 0.16 0.064 0.256 0.224 0.192 0.416l-2.144 6.72c0.032-0.032 0 0 0 0z"></path>
<path fill="#fff" d="M13.344 9.888c-0.128 0.064-0.288 0-0.384-0.096l-2.944-3.648c-0.128-0.128-0.096-0.352 0.064-0.448 0.128-0.128 0.352-0.096 0.448 0.064l2.944 3.648c0.128 0.128 0.096 0.352-0.064 0.448-0.032-0.032-0.032 0-0.064 0.032z"></path>
<path fill="#fff" d="M16.704 13.536l-3.744-3.744c-0.128-0.128-0.128-0.32 0-0.448s0.32-0.128 0.448 0l3.776 3.776c0.128 0.128 0.128 0.32 0 0.448s-0.32 0.096-0.48-0.032z"></path>
<path fill="#fff" d="M8.704 7.52c-0.128 0.064-0.288 0-0.384-0.096-0.096-0.128-0.064-0.352 0.064-0.448l1.664-1.312c0.128-0.096 0.352-0.064 0.448 0.064s0.064 0.352-0.064 0.448l-1.664 1.312c0 0-0.032 0-0.064 0.032z"></path>
</svg>
<svg id="icon-gainer30" width="32" height="32" viewBox="0 0 32 32" x="0" y="960">
<path fill="#fff" d="M19.516 20.088l-3.398-7.207 0.579-0.273 3.398 7.207-0.579 0.273z"></path>
<path fill="#fff" d="M6.477 12.755l0.031-0.639 10.196 0.494-0.031 0.639-10.196-0.494z"></path>
<path fill="#fff" d="M18.56 20.768c0.896-1.408 2.752-1.856 4.192-0.96s1.824 2.784 0.96 4.192-2.752 1.856-4.192 0.96c-1.44-0.896-1.856-2.752-0.96-4.192zM23.136 23.68c0.704-1.12 0.352-2.624-0.736-3.296s-2.624-0.352-3.296 0.736-0.352 2.624 0.736 3.296 2.592 0.384 3.296-0.736z"></path>
<path fill="#fff" d="M6.176 12.448c0-0.192 0.128-0.32 0.32-0.32s0.32 0.128 0.32 0.32l-0.096 2.112c0 0.192-0.128 0.32-0.32 0.32s-0.32-0.128-0.32-0.32l0.096-2.112z"></path>
<path fill="#fff" d="M18.368 16.96l-2.176 6.688c-0.064 0.192-0.224 0.256-0.416 0.192s-0.256-0.224-0.192-0.416l2.176-6.688c0.064-0.192 0.224-0.256 0.416-0.192s0.256 0.256 0.192 0.416z"></path>
<path fill="#fff" d="M17.248 24.064c-0.064 0.16-0.192 0.224-0.352 0.192s-0.288-0.192-0.256-0.384l1.152-6.912c0.032-0.16 0.192-0.288 0.384-0.256 0.16 0.032 0.288 0.192 0.256 0.384l-1.184 6.976c0.032-0.032 0 0 0 0z"></path>
<path fill="#fff" d="M12.48 10.144c-0.096 0.064-0.256 0.064-0.384-0.032l-3.424-3.2c-0.128-0.096-0.16-0.32 0-0.448 0.096-0.128 0.32-0.16 0.448 0l3.424 3.2c0.128 0.096 0.16 0.32 0 0.448-0.032 0-0.032 0.032-0.064 0.032z"></path>
<path fill="#fff" d="M16.352 13.28l-4.256-3.2c-0.16-0.128-0.192-0.288-0.064-0.448s0.288-0.16 0.448-0.032l4.288 3.2c0.16 0.128 0.192 0.288 0.064 0.448s-0.32 0.16-0.48 0.032z"></path>
<path fill="#fff" d="M7.584 8.48c-0.096 0.064-0.256 0.064-0.384-0.032-0.096-0.128-0.128-0.32 0-0.448l1.472-1.536c0.128-0.096 0.32-0.128 0.448 0 0.096 0.128 0.128 0.32 0 0.448l-1.472 1.536c-0.032 0-0.064 0-0.064 0.032z"></path>
</svg>
<svg id="icon-gainer31" width="32" height="32" viewBox="0 0 32 32" x="0" y="992">
<path fill="#fff" d="M20.362 19.016l-4.921-6.267 0.503-0.395 4.921 6.267-0.503 0.395z"></path>
<path fill="#fff" d="M5.988 14.775l-0.113-0.63 10.049-1.796 0.113 0.63-10.049 1.796z"></path>
<path fill="#fff" d="M19.552 19.872c0.544-1.568 2.272-2.432 3.872-1.856s2.4 2.304 1.856 3.872c-0.544 1.568-2.272 2.432-3.872 1.856-1.6-0.544-2.4-2.272-1.856-3.872zM24.672 21.664c0.448-1.248-0.224-2.624-1.472-3.072s-2.624 0.224-3.072 1.472c-0.448 1.248 0.224 2.624 1.472 3.072s2.624-0.192 3.072-1.472z"></path>
<path fill="#fff" d="M5.632 14.528c-0.032-0.192 0.064-0.352 0.256-0.384s0.352 0.064 0.384 0.256l0.384 2.080c0.032 0.192-0.064 0.352-0.256 0.384s-0.352-0.064-0.384-0.256l-0.384-2.080z"></path>
<path fill="#fff" d="M18.528 16.224l-0.64 7.008c-0.032 0.192-0.16 0.32-0.352 0.288s-0.32-0.16-0.288-0.352l0.64-7.008c0.032-0.192 0.16-0.32 0.352-0.288 0.192 0 0.32 0.192 0.288 0.352z"></path>
<path fill="#fff" d="M19.040 23.392c-0.032 0.16-0.128 0.256-0.288 0.288s-0.352-0.128-0.352-0.32l-0.448-7.008c0-0.16 0.128-0.352 0.32-0.352 0.16 0 0.352 0.128 0.352 0.32l0.416 7.072c0-0.032 0 0 0 0z"></path>
<path fill="#fff" d="M11.264 10.88c-0.096 0.096-0.256 0.096-0.384 0.064l-4.064-2.368c-0.16-0.064-0.224-0.256-0.096-0.416 0.064-0.16 0.288-0.224 0.448-0.096l4.032 2.336c0.16 0.064 0.224 0.288 0.096 0.448 0-0.032 0 0.032-0.032 0.032z"></path>
<path fill="#fff" d="M15.744 13.088l-4.864-2.144c-0.16-0.064-0.256-0.256-0.16-0.416s0.256-0.256 0.416-0.16l4.896 2.176c0.16 0.064 0.256 0.256 0.16 0.416s-0.288 0.192-0.448 0.128z"></path>
<path fill="#fff" d="M6.112 10.336c-0.096 0.096-0.256 0.096-0.384 0.064-0.128-0.096-0.192-0.288-0.096-0.448l1.088-1.824c0.096-0.128 0.288-0.192 0.448-0.096 0.128 0.096 0.192 0.288 0.096 0.448l-1.088 1.824c-0.032 0-0.064 0.032-0.064 0.032z"></path>
</svg>
<svg id="icon-gainer32" width="32" height="32" viewBox="0 0 32 32" x="0" y="1024">
<path fill="#fff" d="M21.985 17.538l-6.563-4.518 0.363-0.527 6.563 4.518-0.363 0.527z"></path>
<path fill="#fff" d="M7.603 18.717l-0.371-0.522 8.323-5.911 0.371 0.522-8.323 5.911z"></path>
<path fill="#fff" d="M21.504 18.592c0.064-1.664 1.44-2.976 3.136-2.912s2.976 1.472 2.912 3.136c-0.032 1.664-1.44 3.008-3.136 2.944s-2.976-1.472-2.912-3.168zM26.912 18.816c0.032-1.312-0.992-2.432-2.304-2.496s-2.432 0.992-2.496 2.304 0.992 2.432 2.304 2.496c1.312 0.032 2.432-0.96 2.496-2.304z"></path>
<path fill="#fff" d="M7.168 18.656c-0.096-0.16-0.096-0.32 0.064-0.448 0.16-0.096 0.32-0.096 0.448 0.064l1.216 1.728c0.096 0.16 0.096 0.32-0.064 0.448-0.16 0.096-0.32 0.096-0.448-0.064l-1.216-1.728z"></path>
<path fill="#fff" d="M20.128 15.616l0.096 7.040c0 0.192-0.128 0.32-0.32 0.32s-0.32-0.128-0.32-0.32l-0.096-7.040c0-0.192 0.128-0.32 0.32-0.32s0.32 0.16 0.32 0.32z"></path>
<path fill="#fff" d="M21.376 22.688c0 0.16-0.096 0.288-0.288 0.32-0.16 0.032-0.352-0.096-0.384-0.288l-1.152-6.912c-0.032-0.16 0.096-0.352 0.288-0.384 0.16-0.032 0.352 0.096 0.384 0.288l1.152 6.976c0-0.032 0 0 0 0z"></path>
<path fill="#fff" d="M10.976 11.168c-0.096 0.096-0.256 0.128-0.384 0.096l-4.256-1.984c-0.16-0.064-0.256-0.256-0.128-0.416 0.064-0.16 0.256-0.256 0.416-0.128l4.256 1.984c0.16 0.064 0.256 0.256 0.128 0.416 0-0.032 0 0.032-0.032 0.032z"></path>
<path fill="#fff" d="M15.616 12.96l-5.024-1.728c-0.192-0.064-0.256-0.224-0.192-0.416s0.224-0.256 0.416-0.192l5.056 1.728c0.192 0.064 0.256 0.224 0.192 0.416s-0.256 0.256-0.448 0.192z"></path>
<path fill="#fff" d="M5.792 11.072c-0.096 0.096-0.256 0.128-0.384 0.096-0.128-0.096-0.224-0.288-0.128-0.416l0.928-1.92c0.096-0.128 0.288-0.224 0.416-0.128s0.224 0.288 0.128 0.416l-0.928 1.92c0 0-0.032 0.032-0.032 0.032z"></path>
</svg>
<svg id="icon-gainer33" width="32" height="32" viewBox="0 0 32 32" x="0" y="1056">
<path fill="#fff" d="M22.186 16.622l-7.201-3.412 0.274-0.578 7.201 3.412-0.274 0.578z"></path>
<path fill="#fff" d="M8.181 20.097l-0.449-0.456 7.271-7.165 0.449 0.456-7.271 7.165z"></path>
<path fill="#fff" d="M21.888 17.76c-0.192-1.664 0.96-3.168 2.656-3.392s3.2 0.992 3.392 2.656c0.192 1.664-0.96 3.168-2.656 3.392-1.696 0.192-3.2-0.992-3.392-2.656zM27.232 17.088c-0.16-1.312-1.376-2.24-2.688-2.080s-2.24 1.376-2.080 2.688c0.16 1.312 1.376 2.24 2.688 2.080s2.272-1.344 2.080-2.688z"></path>
<path fill="#fff" d="M7.744 20.096c-0.128-0.128-0.128-0.32 0-0.448s0.32-0.128 0.448 0l1.472 1.504c0.128 0.128 0.128 0.32 0 0.448s-0.32 0.128-0.448 0l-1.472-1.504z"></path>
<path fill="#fff" d="M20.768 15.68l-1.408 6.88c-0.032 0.192-0.192 0.288-0.384 0.256s-0.288-0.192-0.256-0.384l1.408-6.88c0.032-0.192 0.192-0.288 0.384-0.256s0.288 0.224 0.256 0.384z"></path>
<path fill="#fff" d="M20.448 22.88c-0.032 0.16-0.16 0.256-0.32 0.224-0.16 0-0.32-0.16-0.288-0.352l0.352-7.008c0-0.16 0.16-0.32 0.352-0.288 0.16 0 0.32 0.16 0.288 0.352l-0.384 7.072c0.032-0.032 0 0 0 0z"></path>
<path fill="#fff" d="M10.304 12.096c-0.064 0.096-0.224 0.16-0.352 0.16l-4.512-1.28c-0.16-0.032-0.288-0.224-0.192-0.384 0.032-0.16 0.224-0.288 0.384-0.192l4.512 1.28c0.16 0.032 0.288 0.224 0.192 0.384-0.032-0.032 0 0-0.032 0.032z"></path>
<path fill="#fff" d="M15.168 13.152l-5.248-0.896c-0.192-0.032-0.288-0.192-0.256-0.384s0.192-0.288 0.384-0.256l5.28 0.896c0.192 0.032 0.288 0.192 0.256 0.384s-0.224 0.288-0.416 0.256z"></path>
<path fill="#fff" d="M5.152 12.832c-0.064 0.096-0.224 0.16-0.352 0.16-0.16-0.064-0.256-0.256-0.192-0.384l0.608-2.048c0.064-0.16 0.256-0.256 0.384-0.192 0.16 0.064 0.256 0.256 0.192 0.384l-0.608 2.048c0 0 0 0-0.032 0.032z"></path>
</svg>
<svg id="icon-gainer34" width="32" height="32" viewBox="0 0 32 32" x="0" y="1088">
<path fill="#fff" d="M22.323 14.48l-7.896-1.069 0.086-0.634 7.896 1.069-0.086 0.634z"></path>
<path fill="#fff" d="M9.967 22.118l-0.563-0.305 4.87-8.972 0.563 0.305-4.87 8.972z"></path>
<path fill="#fff" d="M22.368 15.648c-0.704-1.504-0.064-3.328 1.504-4.032s3.328 0 4.032 1.504 0.064 3.328-1.504 4.032-3.296 0.032-4.032-1.504zM27.296 13.408c-0.544-1.184-1.984-1.728-3.2-1.184s-1.728 1.984-1.184 3.2c0.544 1.184 1.984 1.728 3.2 1.184 1.184-0.576 1.76-1.984 1.184-3.2z"></path>
<path fill="#fff" d="M9.536 22.24c-0.16-0.096-0.224-0.256-0.128-0.448 0.096-0.16 0.256-0.224 0.448-0.128l1.856 0.992c0.16 0.096 0.224 0.256 0.128 0.448-0.096 0.16-0.256 0.224-0.448 0.128l-1.856-0.992z"></path>
<path fill="#fff" d="M20.992 13.952l-1.184 6.944c-0.032 0.192-0.192 0.288-0.384 0.256s-0.288-0.192-0.256-0.384l1.184-6.944c0.032-0.192 0.192-0.288 0.384-0.256s0.288 0.224 0.256 0.384z"></path>
<path fill="#fff" d="M20.928 21.152c-0.032 0.16-0.16 0.256-0.32 0.256s-0.32-0.16-0.32-0.352l0.128-7.008c0-0.16 0.16-0.32 0.352-0.32 0.16 0 0.32 0.16 0.32 0.352l-0.16 7.072c0-0.032 0 0 0 0z"></path>
<path fill="#fff" d="M9.632 13.12c-0.064 0.128-0.192 0.192-0.32 0.224l-4.672-0.544c-0.16 0-0.32-0.16-0.256-0.352 0-0.16 0.16-0.32 0.352-0.256l4.672 0.544c0.16 0 0.32 0.16 0.256 0.352-0.032-0.032 0 0-0.032 0.032z"></path>
<path fill="#fff" d="M14.592 13.376l-5.312-0.064c-0.192 0-0.32-0.128-0.32-0.32s0.128-0.32 0.32-0.32l5.344 0.032c0.192 0 0.32 0.128 0.32 0.32 0 0.224-0.16 0.352-0.352 0.352z"></path>
<path fill="#fff" d="M4.672 14.688c-0.064 0.128-0.192 0.192-0.32 0.224-0.16-0.032-0.288-0.192-0.256-0.352l0.256-2.112c0.032-0.16 0.192-0.288 0.352-0.256s0.288 0.192 0.256 0.352l-0.256 2.112c0-0.032 0 0-0.032 0.032z"></path>
</svg>
<svg id="icon-gainer35" width="32" height="32" viewBox="0 0 32 32" x="0" y="1120">
<path fill="#fff" d="M21.068 10.965l-7.393 2.972-0.239-0.594 7.393-2.972 0.239 0.594z"></path>
<path fill="#fff" d="M10.998 23.194l-0.61-0.193 3.077-9.733 0.61 0.193-3.077 9.733z"></path>
<path fill="#fff" d="M21.696 11.968c-1.344-0.96-1.696-2.848-0.704-4.256s2.88-1.664 4.256-0.704 1.696 2.848 0.704 4.256-2.88 1.696-4.256 0.704zM24.832 7.584c-1.056-0.768-2.592-0.512-3.36 0.544s-0.512 2.592 0.544 3.36 2.592 0.512 3.36-0.544 0.576-2.592-0.544-3.36z"></path>
<path fill="#fff" d="M10.592 23.392c-0.192-0.064-0.256-0.224-0.224-0.416 0.064-0.192 0.224-0.256 0.416-0.224l2.016 0.64c0.192 0.064 0.256 0.224 0.224 0.416-0.064 0.192-0.224 0.256-0.416 0.224l-2.016-0.64z"></path>
<path fill="#fff" d="M19.52 11.552l0.224 7.040c0 0.192-0.128 0.32-0.32 0.32s-0.32-0.128-0.32-0.32l-0.224-7.040c0-0.192 0.128-0.32 0.32-0.32s0.32 0.16 0.32 0.32z"></path>
<path fill="#fff" d="M20.864 18.592c0 0.16-0.096 0.288-0.256 0.32s-0.352-0.064-0.384-0.256l-1.28-6.912c-0.032-0.16 0.064-0.352 0.256-0.384 0.16-0.032 0.352 0.064 0.384 0.256l1.28 6.976c0-0.032 0 0 0 0z"></path>
<path fill="#fff" d="M8.96 14.432c-0.032 0.128-0.16 0.224-0.288 0.256l-4.672 0.352c-0.16 0.032-0.352-0.096-0.32-0.288-0.032-0.16 0.096-0.352 0.288-0.32l4.672-0.352c0.16-0.032 0.352 0.096 0.32 0.288-0.032 0 0 0.032 0 0.064z"></path>
<path fill="#fff" d="M13.888 13.728l-5.216 0.96c-0.192 0.032-0.352-0.064-0.384-0.256s0.064-0.352 0.256-0.384l5.248-0.96c0.192-0.032 0.352 0.064 0.384 0.256s-0.096 0.352-0.288 0.384z"></path>
<path fill="#fff" d="M4.384 16.928c-0.032 0.128-0.16 0.224-0.288 0.256-0.16 0-0.32-0.128-0.32-0.288l-0.128-2.112c0-0.16 0.128-0.32 0.288-0.32s0.32 0.128 0.32 0.288l0.128 2.112c0 0 0 0.032 0 0.064z"></path>
</svg>
<svg id="icon-gainer36" width="32" height="32" viewBox="0 0 32 32" x="0" y="1152">
<path fill="#fff" d="M19.767 9.296l-6.298 4.881-0.392-0.506 6.298-4.881 0.392 0.506z"></path>
<path fill="#fff" d="M12.389 23.752l-0.634-0.087 1.394-10.112 0.634 0.087-1.394 10.112z"></path>
<path fill="#fff" d="M20.64 10.080c-1.568-0.576-2.4-2.304-1.824-3.904s2.336-2.4 3.904-1.824c1.568 0.576 2.4 2.304 1.824 3.904-0.576 1.568-2.304 2.4-3.904 1.824zM22.464 4.992c-1.248-0.448-2.624 0.224-3.072 1.44-0.448 1.248 0.224 2.624 1.44 3.072s2.624-0.224 3.072-1.44-0.16-2.624-1.44-3.072z"></path>
<path fill="#fff" d="M12.032 24.032c-0.192-0.032-0.288-0.16-0.288-0.352s0.16-0.288 0.352-0.288l2.080 0.288c0.192 0.032 0.288 0.16 0.288 0.352-0.032 0.192-0.16 0.288-0.352 0.288l-2.080-0.288z"></path>
<path fill="#fff" d="M18.24 10.368l0.608 7.008c0.032 0.192-0.096 0.32-0.288 0.352s-0.32-0.096-0.352-0.288l-0.608-7.008c-0.032-0.192 0.096-0.32 0.288-0.352 0.192 0 0.352 0.128 0.352 0.288z"></path>
<path fill="#fff" d="M20 17.344c0 0.16-0.096 0.288-0.256 0.32s-0.352-0.064-0.384-0.256l-1.664-6.816c-0.032-0.16 0.064-0.352 0.256-0.384 0.16-0.032 0.352 0.064 0.384 0.256l1.664 6.88c0-0.032 0 0 0 0z"></path>
<path fill="#fff" d="M8.896 15.488c0 0.128-0.096 0.256-0.224 0.32l-4.544 1.152c-0.16 0.064-0.352-0.032-0.384-0.224-0.064-0.16 0.032-0.352 0.224-0.384l4.544-1.152c0.16-0.064 0.352 0.032 0.384 0.224-0.032 0 0 0.032 0 0.064z"></path>
<path fill="#fff" d="M13.632 13.952l-4.992 1.824c-0.192 0.064-0.352 0-0.416-0.192s0-0.352 0.192-0.416l5.024-1.824c0.192-0.064 0.352 0 0.416 0.192 0.064 0.16-0.032 0.352-0.224 0.416z"></path>
<path fill="#fff" d="M4.832 18.688c0 0.128-0.096 0.256-0.224 0.32-0.16 0.032-0.352-0.064-0.384-0.224l-0.512-2.080c-0.032-0.16 0.064-0.352 0.224-0.384s0.352 0.064 0.384 0.224l0.512 2.080c0 0 0 0.032 0 0.064z"></path>
</svg>
<svg id="icon-gainer37" width="32" height="32" viewBox="0 0 32 32" x="0" y="1184">
<path fill="#fff" d="M19.359 8.873l-5.896 5.359-0.43-0.474 5.896-5.359 0.43 0.474z"></path>
<path fill="#fff" d="M13.138 23.868l-0.639-0.037 0.598-10.191 0.639 0.037-0.598 10.191z"></path>
<path fill="#fff" d="M20.288 9.568c-1.6-0.448-2.592-2.112-2.144-3.744s2.144-2.56 3.744-2.144c1.6 0.448 2.592 2.112 2.144 3.744s-2.112 2.592-3.744 2.144zM21.728 4.352c-1.28-0.352-2.592 0.416-2.944 1.696s0.416 2.592 1.696 2.944 2.592-0.416 2.944-1.696-0.416-2.592-1.696-2.944z"></path>
<path fill="#fff" d="M12.8 24.192c-0.192 0-0.32-0.16-0.288-0.352 0-0.192 0.16-0.32 0.352-0.288l2.112 0.128c0.192 0 0.32 0.16 0.288 0.352s-0.16 0.32-0.352 0.288l-2.112-0.128z"></path>
<path fill="#fff" d="M17.664 10.56l-1.92 6.784c-0.064 0.192-0.224 0.288-0.384 0.224-0.192-0.064-0.288-0.224-0.224-0.384l1.92-6.784c0.064-0.192 0.224-0.288 0.384-0.224s0.256 0.256 0.224 0.384z"></path>
<path fill="#fff" d="M16.8 17.728c-0.064 0.16-0.192 0.224-0.352 0.224-0.16-0.032-0.32-0.192-0.288-0.384l0.864-6.976c0.032-0.16 0.192-0.32 0.384-0.288 0.16 0.032 0.32 0.192 0.288 0.384l-0.896 7.040c0.032-0.032 0 0 0 0z"></path>
<path fill="#fff" d="M9.024 15.904c0 0.128-0.096 0.256-0.224 0.32l-4.448 1.504c-0.16 0.064-0.352-0.032-0.384-0.224-0.064-0.16 0.032-0.352 0.224-0.384l4.448-1.504c0.16-0.064 0.352 0.032 0.384 0.224-0.032 0 0 0.032 0 0.064z"></path>
<path fill="#fff" d="M13.632 13.984l-4.832 2.208c-0.16 0.096-0.352 0.032-0.416-0.16-0.096-0.16-0.032-0.352 0.16-0.416l4.864-2.24c0.16-0.096 0.352-0.032 0.416 0.16s-0.032 0.384-0.192 0.448z"></path>
<path fill="#fff" d="M5.184 19.424c0 0.128-0.096 0.256-0.224 0.32-0.16 0.032-0.352-0.064-0.384-0.224l-0.672-2.016c-0.032-0.16 0.064-0.352 0.224-0.384s0.352 0.064 0.384 0.224l0.672 2.016c0 0 0 0.032 0 0.064z"></path>
</svg>
<svg id="icon-gainer38" width="32" height="32" viewBox="0 0 32 32" x="0" y="1216">
<path fill="#fff" d="M18.916 8.414l-5.422 5.838-0.469-0.436 5.422-5.838 0.469 0.436z"></path>
<path fill="#fff" d="M13.972 23.903l-0.64 0.017-0.265-10.205 0.64-0.017 0.265 10.205z"></path>
<path fill="#fff" d="M19.904 9.056c-1.632-0.288-2.752-1.856-2.432-3.552 0.32-1.664 1.888-2.752 3.552-2.432 1.632 0.288 2.752 1.856 2.432 3.552-0.32 1.664-1.888 2.752-3.552 2.432zM20.864 3.744c-1.28-0.224-2.56 0.64-2.784 1.92s0.64 2.56 1.92 2.784 2.56-0.64 2.784-1.92-0.576-2.528-1.92-2.784z"></path>
<path fill="#fff" d="M13.696 24.256c-0.192 0-0.32-0.128-0.32-0.32s0.128-0.32 0.32-0.32l2.112-0.064c0.192 0 0.32 0.128 0.32 0.32s-0.128 0.32-0.32 0.32l-2.112 0.064z"></path>
<path fill="#fff" d="M17.408 10.080l-3.328 6.208c-0.096 0.16-0.256 0.224-0.448 0.128s-0.224-0.256-0.128-0.448l3.328-6.208c0.096-0.16 0.256-0.224 0.448-0.128 0.16 0.096 0.192 0.32 0.128 0.448z"></path>
<path fill="#fff" d="M15.040 16.864c-0.096 0.128-0.224 0.192-0.384 0.128s-0.256-0.256-0.192-0.416l2.336-6.624c0.064-0.16 0.256-0.256 0.416-0.192s0.256 0.256 0.192 0.416l-2.368 6.688c0.032 0 0 0 0 0z"></path>
<path fill="#fff" d="M8.64 15.776c-0.032 0.128-0.192 0.192-0.32 0.224l-4.672-0.384c-0.16 0-0.32-0.16-0.288-0.352 0-0.16 0.16-0.32 0.352-0.288l4.672 0.384c0.16 0 0.32 0.16 0.288 0.352-0.032 0-0.032 0.032-0.032 0.064z"></path>
<path fill="#fff" d="M13.536 14.336l-5.056 1.6c-0.192 0.064-0.352-0.032-0.416-0.224s0.032-0.352 0.224-0.416l5.088-1.6c0.192-0.064 0.352 0.032 0.416 0.224s-0.064 0.384-0.256 0.416z"></path>
<path fill="#fff" d="M3.744 17.504c-0.032 0.128-0.192 0.192-0.32 0.224-0.16-0.032-0.32-0.192-0.288-0.352l0.192-2.112c0.032-0.16 0.192-0.32 0.352-0.288s0.32 0.192 0.288 0.352l-0.192 2.112c-0.032 0-0.032 0.032-0.032 0.064z"></path>
</svg>
<svg id="icon-gainer39" width="32" height="32" viewBox="0 0 32 32" x="0" y="1248">
<path fill="#fff" d="M18.485 8.083l-5.076 6.142-0.493-0.408 5.076-6.142 0.493 0.408z"></path>
<path fill="#fff" d="M13.972 23.903l-0.64 0.017-0.265-10.205 0.64-0.017 0.265 10.205z"></path>
<path fill="#fff" d="M19.52 8.64c-1.664-0.192-2.848-1.696-2.656-3.392s1.728-2.848 3.392-2.656c1.664 0.192 2.848 1.696 2.656 3.392s-1.696 2.88-3.392 2.656zM20.192 3.296c-1.312-0.16-2.528 0.768-2.688 2.080s0.768 2.528 2.080 2.688 2.528-0.768 2.688-2.080-0.736-2.528-2.080-2.688z"></path>
<path fill="#fff" d="M13.696 24.256c-0.192 0-0.32-0.128-0.32-0.32s0.128-0.32 0.32-0.32l2.112-0.064c0.192 0 0.32 0.128 0.32 0.32s-0.128 0.32-0.32 0.32l-2.112 0.064z"></path>
<path fill="#fff" d="M16.768 10.176l-4.672 5.28c-0.128 0.128-0.32 0.16-0.448 0.032s-0.16-0.32-0.032-0.448l4.672-5.28c0.128-0.128 0.32-0.16 0.448-0.032 0.16 0.128 0.16 0.352 0.032 0.448z"></path>
<path fill="#fff" d="M12.928 16.256c-0.128 0.128-0.288 0.128-0.416 0.032s-0.192-0.288-0.096-0.448l3.808-5.888c0.096-0.128 0.288-0.192 0.448-0.096 0.128 0.096 0.192 0.288 0.096 0.448l-3.84 5.952c0.032-0.032 0 0 0 0z"></path>
<path fill="#fff" d="M8.64 15.68c-0.064 0.096-0.224 0.16-0.352 0.16l-4.512-1.376c-0.16-0.032-0.288-0.224-0.192-0.384 0.032-0.16 0.224-0.288 0.384-0.192l4.512 1.376c0.16 0.032 0.288 0.224 0.192 0.384 0-0.032 0 0.032-0.032 0.032z"></path>
<path fill="#fff" d="M13.664 14.72l-5.184 1.088c-0.192 0.032-0.352-0.064-0.384-0.256s0.064-0.352 0.256-0.384l5.216-1.088c0.192-0.032 0.352 0.064 0.384 0.256s-0.096 0.352-0.288 0.384z"></path>
<path fill="#fff" d="M3.488 16.352c-0.064 0.096-0.224 0.16-0.352 0.16-0.16-0.064-0.256-0.256-0.192-0.384l0.64-2.016c0.064-0.16 0.256-0.256 0.384-0.192 0.16 0.064 0.256 0.256 0.192 0.384l-0.64 2.016c0-0.032 0 0-0.032 0.032z"></path>
</svg>
<svg id="icon-gainer40" width="32" height="32" viewBox="0 0 32 32" x="0" y="1280">
<path fill="#fff" d="M16.576 10.176l-6.112 3.456c-0.16 0.096-0.352 0.032-0.448-0.128s-0.032-0.352 0.128-0.448l6.112-3.456c0.16-0.096 0.352-0.032 0.448 0.128 0.096 0.192 0 0.384-0.128 0.448z"></path>
<path fill="#fff" d="M10.944 14.656c-0.16 0.064-0.288 0.032-0.384-0.096s-0.096-0.352 0.064-0.448l5.504-4.32c0.128-0.096 0.352-0.096 0.448 0.064 0.096 0.128 0.096 0.352-0.064 0.448l-5.568 4.352c0.032 0 0 0 0 0z"></path>
<path fill="#fff" d="M8.288 14.784c-0.096 0.096-0.224 0.128-0.384 0.096l-4.32-1.824c-0.16-0.064-0.256-0.256-0.16-0.416 0.032-0.16 0.256-0.256 0.416-0.16l4.32 1.824c0.16 0.064 0.256 0.256 0.16 0.416-0.032 0-0.032 0.032-0.032 0.064z"></path>
<path fill="#fff" d="M13.344 14.336l-5.28 0.512c-0.192 0.032-0.32-0.096-0.352-0.288s0.096-0.32 0.288-0.352l5.312-0.544c0.192-0.032 0.32 0.096 0.352 0.288 0.032 0.224-0.128 0.384-0.32 0.384z"></path>
<path fill="#fff" d="M3.072 14.88c-0.096 0.096-0.224 0.128-0.384 0.096-0.16-0.064-0.224-0.288-0.16-0.416l0.864-1.952c0.064-0.16 0.288-0.224 0.416-0.16s0.224 0.288 0.16 0.416l-0.864 1.952c0 0 0 0.032-0.032 0.064z"></path>
<path fill="#fff" d="M13.059 14.27l4.554-6.539 0.525 0.366-4.554 6.539-0.525-0.366z"></path>
<path fill="#fff" d="M19.264 8.48c-1.664 0-3.040-1.344-3.040-3.040s1.376-3.040 3.040-3.040 3.040 1.344 3.040 3.040-1.344 3.040-3.040 3.040zM19.264 3.072c-1.312 0-2.4 1.088-2.4 2.4s1.088 2.4 2.4 2.4 2.4-1.088 2.4-2.4-1.056-2.4-2.4-2.4z"></path>
<path fill="#fff" d="M13.088 13.984h0.64v10.208h-0.64v-10.208z"></path>
<path fill="#fff" d="M13.408 24.512c-0.192 0-0.32-0.128-0.32-0.32s0.128-0.32 0.32-0.32h2.112c0.192 0 0.32 0.128 0.32 0.32s-0.128 0.32-0.32 0.32h-2.112z"></path>
</svg>
</svg>
