<svg fill="#fff" xmlns="http://www.w3.org/2000/svg" xmlns:xlink="http://www.w3.org/1999/xlink" version="1.1" x="0px" y="0px" viewBox="0 0 100 100" enable-background="new 0 0 100 100" xml:space="preserve"><path fill="#000000" d="M91.578,9.866c-1.043-1.453-3.067-1.786-4.521-0.743c0,0-11.259,8.081-22.519,16.161  c-0.703,0.505-1.407,1.011-2.107,1.514l-0.963,0.687l-1.065,0.717c-1.415,0.951-2.809,1.889-4.156,2.795  c-2.696,1.813-5.212,3.506-7.368,4.957c-0.845,0.568-1.632,1.098-2.355,1.584L38.19,26.662l7.881-3.933l-1.479,5.858  c-0.473,1.874,0.663,3.777,2.537,4.25c1.868,0.471,3.776-0.662,4.25-2.537l3.344-13.25c0.335-1.326-0.134-2.726-1.199-3.583  c-1.064-0.856-2.53-1.018-3.757-0.405l-16.173,8.069c-0.291,0.146-0.562,0.331-0.801,0.551l-9.229,8.45l-1.68,1.49l0.025,0.025  l-0.727,0.665c-0.206,0.188-0.39,0.401-0.545,0.634l-6.687,9.983c-0.334,0.499-0.534,1.076-0.581,1.676l-1.173,15.069  c-0.15,1.927,1.29,3.611,3.218,3.761c0.093,0.008,0.184,0.011,0.275,0.011c1.81,0,3.343-1.394,3.485-3.229l1.102-14.155l5.942-8.872  l0.705-0.646l10.598,10.348l-5.825,15.692l-0.185,0.495c-0.056,0.154-0.097,0.315-0.121,0.484L27.55,90.332  c-0.23,1.643,0.826,3.232,2.473,3.616c1.743,0.406,3.486-0.678,3.893-2.421l5.971-25.623l7.861-15.001  c0.101-0.196,0.206-0.428,0.284-0.64c0.076-0.206,0.137-0.414,0.188-0.623c0.002-0.002,0.005-0.003,0.007-0.005  c0,0,2.693-2.181,6.734-5.451c2.02-1.636,4.377-3.543,6.902-5.587c1.262-1.022,2.567-2.078,3.893-3.151l0.998-0.808l1.075-0.896  c0.661-0.556,1.323-1.112,1.986-1.67c10.608-8.918,21.217-17.836,21.217-17.836C92.309,13.156,92.571,11.249,91.578,9.866z"></path><circle fill="#000000" cx="21.547" cy="19.84" r="7.369"></circle></svg>