<svg fill="#fff" xmlns="http://www.w3.org/2000/svg" xmlns:xlink="http://www.w3.org/1999/xlink" version="1.1" x="0px" y="0px" width="64" height="64" viewBox="0 0 100 100" style="enable-background:new 0 0 100 100;" xml:space="preserve"><path d="M84.4,17.1c-6.8,0-12.3,5.5-12.3,12.3c0,3.6,1.5,6.8,4,9l-9.5,12c-0.8-0.2-1.6-0.2-2.5-0.2c-1.3,0-2.6,0.2-3.8,0.6L48.6,43  c0.8-1.6,1.3-3.5,1.3-5.4c0-6.8-5.5-12.3-12.3-12.3s-12.3,5.5-12.3,12.3c0,3.3,1.3,6.3,3.4,8.5l-9.3,13c-1.2-0.4-2.5-0.6-3.9-0.6  c-6.8,0-12.3,5.5-12.3,12.3c0,6.8,5.5,12.3,12.3,12.3s12.3-5.5,12.3-12.3c0-2.5-0.8-4.8-2-6.8L36,49.7c0.5,0.1,1.1,0.1,1.6,0.1  c1.8,0,3.6-0.4,5.1-1.1L53.8,56C52.7,57.8,52,60,52,62.4c0,6.8,5.5,12.3,12.3,12.3c6.8,0,12.3-5.5,12.3-12.3c0-3-1.1-5.7-2.9-7.9  l10.2-13c0.2,0,0.4,0,0.7,0c6.8,0,12.3-5.5,12.3-12.3C96.7,22.6,91.2,17.1,84.4,17.1z"></path></svg>