<?xml version="1.0" encoding="utf-8"?>
<!-- Generator: Adobe Illustrator 19.0.0, SVG Export Plug-In . SVG Version: 6.00 Build 0)  -->
<svg fill="#fff" version="1.1" id="Layer_1" xmlns="http://www.w3.org/2000/svg" xmlns:xlink="http://www.w3.org/1999/xlink" x="0px" y="0px"
	 viewBox="0 0 32 32" style="enable-background:new 0 0 32 32;" xml:space="preserve">
<style type="text/css">
	.st0{fill:none;stroke:#fff;stroke-width:2;stroke-linecap:round;stroke-miterlimit:10;}
	.st1{fill:none;stroke:#fff;stroke-width:2;stroke-linecap:square;stroke-miterlimit:10;}
</style>
<circle id="XMLID_19_" class="st0" cx="15.7" cy="15.7" r="11.4"/>
<circle id="XMLID_18_" class="st0" cx="15.7" cy="15.7" r="9"/>
<circle id="XMLID_17_" class="st0" cx="15.7" cy="15.7" r="2.8"/>
<line id="XMLID_16_" class="st1" x1="15.7" y1="7.2" x2="15.7" y2="12.4"/>
<line id="XMLID_15_" class="st0" x1="15.7" y1="1" x2="15.7" y2="4.3"/>
<line id="XMLID_14_" class="st1" x1="15.7" y1="24.2" x2="15.7" y2="19"/>
<line id="XMLID_13_" class="st0" x1="15.7" y1="30.4" x2="15.7" y2="27.1"/>
<line id="XMLID_12_" class="st0" x1="24.2" y1="15.7" x2="19" y2="15.7"/>
<line id="XMLID_11_" class="st0" x1="30.4" y1="15.7" x2="27.1" y2="15.7"/>
<line id="XMLID_10_" class="st1" x1="7.2" y1="15.7" x2="12.4" y2="15.7"/>
<line id="XMLID_9_" class="st0" x1="1" y1="15.7" x2="4.3" y2="15.7"/>
<line id="XMLID_8_" class="st1" x1="21.6" y1="21.6" x2="18.2" y2="18.2"/>
<line id="XMLID_7_" class="st0" x1="26.1" y1="26.1" x2="23.8" y2="23.8"/>
<line id="XMLID_6_" class="st1" x1="9.8" y1="9.8" x2="13.2" y2="13.2"/>
<line id="XMLID_5_" class="st0" x1="5.3" y1="5.3" x2="7.6" y2="7.6"/>
<line id="XMLID_4_" class="st1" x1="21.6" y1="9.8" x2="18.2" y2="13.2"/>
<line id="XMLID_3_" class="st0" x1="26.1" y1="5.3" x2="23.8" y2="7.6"/>
<line id="XMLID_2_" class="st1" x1="9.8" y1="21.6" x2="13.2" y2="18.2"/>
<line id="XMLID_1_" class="st0" x1="5.3" y1="26.1" x2="7.6" y2="23.8"/>
</svg>
