<?xml version="1.0" encoding="utf-8"?>
<!-- Generated by IcoMoon.io -->
<svg version="1.1" xmlns="http://www.w3.org/2000/svg" xmlns:xlink="http://www.w3.org/1999/xlink" width="64" height="2688" viewBox="0 0 64 2688">
<svg id="icon-gainer41" width="64" height="64" viewBox="0 0 64 64" x="0" y="0">
<path fill="#fff" d="M43.546 18.513l-9.107 13.077-1.050-0.732 9.107-13.077 1.050 0.732z"></path>
<path fill="#fff" d="M33.216 31.488h1.28v20.416h-1.28v-20.416z"></path>
<path fill="#fff" d="M45.76 19.328c-3.328 0-6.080-2.688-6.080-6.080s2.752-6.080 6.080-6.080 6.080 2.688 6.080 6.080-2.688 6.080-6.080 6.080zM45.76 8.512c-2.624 0-4.8 2.176-4.8 4.8s2.176 4.8 4.8 4.8 4.8-2.176 4.8-4.8-2.112-4.8-4.8-4.8z"></path>
<path fill="#fff" d="M33.856 52.48c-0.384 0-0.64-0.256-0.64-0.64s0.256-0.64 0.64-0.64h4.224c0.384 0 0.64 0.256 0.64 0.64s-0.256 0.64-0.64 0.64h-4.224z"></path>
<path fill="#fff" d="M40.256 22.656h-14.080c-0.384 0-0.64-0.256-0.64-0.64s0.256-0.64 0.64-0.64h14.080c0.384 0 0.64 0.256 0.64 0.64s-0.32 0.64-0.64 0.64z"></path>
<path fill="#fff" d="M26.368 26.048c-0.32 0-0.576-0.192-0.64-0.512s0.128-0.704 0.512-0.768l13.696-3.072c0.32-0.064 0.704 0.128 0.768 0.512 0.064 0.32-0.128 0.704-0.512 0.768l-13.824 3.072c0.064 0 0 0 0 0z"></path>
<path fill="#fff" d="M23.104 31.808c-0.256 0-0.512-0.192-0.64-0.448l-2.624-9.024c-0.128-0.32 0.064-0.704 0.448-0.768 0.32-0.128 0.704 0.064 0.768 0.448l2.624 9.024c0.128 0.32-0.064 0.704-0.448 0.768 0-0.064-0.064 0-0.128 0z"></path>
<path fill="#fff" d="M33.792 31.744h-10.624c-0.384 0-0.64-0.256-0.64-0.64s0.256-0.64 0.64-0.64h10.688c0.384 0 0.64 0.256 0.64 0.64s-0.32 0.64-0.704 0.64z"></path>
<path fill="#fff" d="M16.384 23.872c-0.256 0-0.512-0.192-0.64-0.448-0.064-0.32 0.128-0.704 0.448-0.768l4.096-1.152c0.32-0.064 0.704 0.128 0.768 0.448s-0.128 0.704-0.448 0.768l-4.096 1.152c0 0-0.064 0-0.128 0z"></path>
</svg>
<svg id="icon-gainer1" width="64" height="64" viewBox="0 0 64 64" x="0" y="64">
<path fill="#fff" d="M40.124 20.781l-9.107 13.077-1.050-0.731 9.107-13.077 1.050 0.732z"></path>
<path fill="#fff" d="M29.824 33.728h1.28v20.416h-1.28v-20.416z"></path>
<path fill="#fff" d="M42.368 21.568c-3.328 0-6.080-2.688-6.080-6.080s2.752-6.080 6.080-6.080 6.080 2.688 6.080 6.080-2.688 6.080-6.080 6.080zM42.368 10.752c-2.624 0-4.8 2.176-4.8 4.8s2.176 4.8 4.8 4.8 4.8-2.176 4.8-4.8-2.112-4.8-4.8-4.8z"></path>
<path fill="#fff" d="M30.464 54.784c-0.384 0-0.64-0.256-0.64-0.64s0.256-0.64 0.64-0.64h4.224c0.384 0 0.64 0.256 0.64 0.64s-0.256 0.64-0.64 0.64h-4.224z"></path>
<path fill="#fff" d="M36.864 24.896h-14.080c-0.384 0-0.64-0.256-0.64-0.64s0.256-0.64 0.64-0.64h14.080c0.384 0 0.64 0.256 0.64 0.64s-0.32 0.64-0.64 0.64z"></path>
<path fill="#fff" d="M22.976 28.288c-0.32 0-0.576-0.192-0.64-0.512s0.128-0.704 0.512-0.768l13.696-3.072c0.32-0.064 0.704 0.128 0.768 0.512 0.064 0.32-0.128 0.704-0.512 0.768l-13.824 3.072c0.064 0 0 0 0 0z"></path>
<path fill="#fff" d="M19.712 34.048c-0.256 0-0.512-0.192-0.64-0.448l-2.624-9.024c-0.128-0.32 0.064-0.704 0.448-0.768 0.32-0.128 0.704 0.064 0.768 0.448l2.624 9.024c0.128 0.32-0.064 0.704-0.448 0.768 0-0.064-0.064 0-0.128 0z"></path>
<path fill="#fff" d="M30.4 33.984h-10.624c-0.384 0-0.64-0.256-0.64-0.64s0.256-0.64 0.64-0.64h10.688c0.384 0 0.64 0.256 0.64 0.64s-0.32 0.64-0.704 0.64z"></path>
<path fill="#fff" d="M12.992 26.112c-0.256 0-0.512-0.192-0.64-0.448-0.064-0.32 0.128-0.704 0.448-0.768l4.096-1.152c0.32-0.064 0.704 0.128 0.768 0.448s-0.128 0.704-0.448 0.768l-4.096 1.152c0 0-0.064 0-0.128 0z"></path>
</svg>
<svg id="icon-gainer2" width="64" height="64" viewBox="0 0 64 64" x="0" y="128">
<path fill="#fff" d="M31.758 31.546l9.107-13.077 1.050 0.732-9.107 13.077-1.050-0.732z"></path>
<path fill="#fff" d="M31.616 32.128h1.28v20.416h-1.28v-20.416z"></path>
<path fill="#fff" d="M44.16 19.968c-3.328 0-6.080-2.688-6.080-6.080s2.752-6.080 6.080-6.080 6.080 2.688 6.080 6.080-2.688 6.080-6.080 6.080zM44.16 9.152c-2.624 0-4.8 2.176-4.8 4.8s2.176 4.8 4.8 4.8 4.8-2.176 4.8-4.8-2.112-4.8-4.8-4.8z"></path>
<path fill="#fff" d="M32.256 53.184c-0.384 0-0.64-0.256-0.64-0.64s0.256-0.64 0.64-0.64h4.224c0.384 0 0.64 0.256 0.64 0.64s-0.256 0.64-0.64 0.64h-4.224z"></path>
<path fill="#fff" d="M38.656 23.296l-13.696 3.264c-0.384 0.064-0.704-0.128-0.768-0.448-0.064-0.384 0.128-0.704 0.448-0.768l13.696-3.264c0.384-0.064 0.704 0.128 0.768 0.448 0.128 0.384-0.128 0.704-0.448 0.768z"></path>
<path fill="#fff" d="M25.152 29.824c-0.32 0.064-0.576-0.064-0.704-0.384s0-0.704 0.32-0.832l12.736-5.888c0.32-0.128 0.704 0 0.832 0.32s0 0.704-0.32 0.832l-12.864 5.952c0.064 0 0 0 0 0z"></path>
<path fill="#fff" d="M25.152 39.808c-0.192 0.192-0.512 0.256-0.768 0.128l-8.256-4.544c-0.32-0.128-0.448-0.512-0.256-0.832 0.128-0.32 0.512-0.448 0.832-0.256l8.256 4.544c0.32 0.128 0.448 0.512 0.256 0.832 0 0 0 0.064-0.064 0.128z"></path>
<path fill="#fff" d="M32.64 32.192l-7.488 7.488c-0.256 0.256-0.64 0.256-0.896 0s-0.256-0.64 0-0.896l7.552-7.552c0.256-0.256 0.64-0.256 0.896 0s0.256 0.704-0.064 0.96z"></path>
<path fill="#fff" d="M14.784 38.912c-0.192 0.192-0.512 0.256-0.768 0.128-0.256-0.192-0.384-0.576-0.256-0.832l2.112-3.712c0.192-0.256 0.576-0.384 0.832-0.256 0.256 0.192 0.384 0.576 0.256 0.832l-2.112 3.712c0 0.064 0 0.128-0.064 0.128z"></path>
</svg>
<svg id="icon-gainer3" width="64" height="64" viewBox="0 0 64 64" x="0" y="192">
<path fill="#fff" d="M40.124 20.781l-9.107 13.077-1.050-0.731 9.107-13.077 1.050 0.732z"></path>
<path fill="#fff" d="M29.824 33.728h1.28v20.416h-1.28v-20.416z"></path>
<path fill="#fff" d="M42.368 21.568c-3.328 0-6.080-2.688-6.080-6.080s2.752-6.080 6.080-6.080 6.080 2.688 6.080 6.080-2.688 6.080-6.080 6.080zM42.368 10.752c-2.624 0-4.8 2.176-4.8 4.8s2.176 4.8 4.8 4.8 4.8-2.176 4.8-4.8-2.112-4.8-4.8-4.8z"></path>
<path fill="#fff" d="M30.464 54.784c-0.384 0-0.64-0.256-0.64-0.64s0.256-0.64 0.64-0.64h4.224c0.384 0 0.64 0.256 0.64 0.64s-0.256 0.64-0.64 0.64h-4.224z"></path>
<path fill="#fff" d="M36.992 24.576l-12.096 7.168c-0.32 0.192-0.704 0.128-0.896-0.256-0.192-0.32-0.128-0.704 0.256-0.896l12.096-7.168c0.32-0.192 0.704-0.128 0.896 0.256 0.192 0.32 0 0.704-0.256 0.896z"></path>
<path fill="#fff" d="M25.728 35.456c-0.256 0.192-0.576 0.128-0.832-0.128-0.192-0.256-0.256-0.64 0.064-0.896l10.176-9.664c0.256-0.192 0.64-0.256 0.896 0.064 0.192 0.256 0.256 0.64-0.064 0.896l-10.24 9.728c0.064-0.064 0 0 0 0z"></path>
<path fill="#fff" d="M26.624 43.52c0 0.256-0.192 0.512-0.448 0.64l-8.96 2.944c-0.32 0.128-0.704-0.064-0.768-0.448-0.128-0.32 0.064-0.704 0.448-0.768l8.96-2.944c0.32-0.128 0.704 0.064 0.768 0.448-0.064 0 0 0.064 0 0.128z"></path>
<path fill="#fff" d="M31.104 33.472l-4.096 9.792c-0.128 0.384-0.512 0.512-0.832 0.32s-0.512-0.512-0.32-0.832l4.16-9.856c0.128-0.384 0.512-0.512 0.832-0.32s0.384 0.576 0.256 0.896z"></path>
<path fill="#fff" d="M18.944 50.496c0 0.256-0.192 0.512-0.448 0.64-0.32 0.064-0.704-0.128-0.768-0.448l-1.28-4.032c-0.064-0.32 0.128-0.704 0.448-0.768s0.704 0.128 0.768 0.448l1.28 4.032c0 0 0 0.064 0 0.128z"></path>
</svg>
<svg id="icon-gainer4" width="64" height="64" viewBox="0 0 64 64" x="0" y="256">
<path fill="#fff" d="M38.994 20.409l-8.075 13.738-1.104-0.649 8.075-13.738 1.103 0.649z"></path>
<path fill="#fff" d="M29.824 33.728h1.28v20.416h-1.28v-20.416z"></path>
<path fill="#fff" d="M40.64 20.928c-3.328 0.128-6.144-2.496-6.272-5.888s2.56-6.144 5.888-6.272 6.144 2.496 6.272 5.888c0.128 3.392-2.496 6.144-5.888 6.272zM40.256 10.112c-2.624 0.064-4.736 2.368-4.608 4.992 0.064 2.624 2.368 4.736 4.992 4.608s4.736-2.368 4.608-4.992c-0.064-2.624-2.304-4.672-4.992-4.608z"></path>
<path fill="#fff" d="M30.464 54.784c-0.384 0-0.64-0.256-0.64-0.64s0.256-0.64 0.64-0.64h4.224c0.384 0 0.64 0.256 0.64 0.64s-0.256 0.64-0.64 0.64h-4.224z"></path>
<path fill="#fff" d="M36.608 24.064l-10.56 9.344c-0.256 0.256-0.64 0.256-0.896-0.064-0.256-0.256-0.256-0.64 0.064-0.896l10.56-9.344c0.256-0.256 0.64-0.256 0.896 0.064s0.192 0.704-0.064 0.896z"></path>
<path fill="#fff" d="M27.584 36.864c-0.256 0.192-0.576 0.256-0.832 0.064s-0.384-0.64-0.128-0.896l8.128-11.392c0.192-0.256 0.64-0.384 0.896-0.128 0.256 0.192 0.384 0.64 0.128 0.896l-8.192 11.456c0 0 0 0 0 0z"></path>
<path fill="#fff" d="M28.864 43.904c0.128 0.256 0.064 0.512-0.064 0.768l-6.784 6.528c-0.192 0.256-0.64 0.256-0.896-0.064-0.256-0.192-0.256-0.64 0.064-0.896l6.72-6.528c0.192-0.256 0.64-0.256 0.896 0.064-0.064 0 0 0.064 0.064 0.128z"></path>
<path fill="#fff" d="M31.168 33.792l-2.368 10.368c-0.064 0.384-0.384 0.576-0.768 0.512s-0.576-0.384-0.512-0.768l2.368-10.432c0.064-0.384 0.384-0.576 0.768-0.512s0.576 0.448 0.512 0.832z"></path>
<path fill="#fff" d="M24.96 53.504c0.128 0.256 0.064 0.512-0.064 0.768-0.256 0.192-0.704 0.192-0.896-0.064l-2.944-3.072c-0.192-0.256-0.192-0.704 0.064-0.896s0.704-0.192 0.896 0.064l2.944 3.072c-0.064 0.064 0 0.128 0 0.128z"></path>
</svg>
<svg id="icon-gainer5" width="64" height="64" viewBox="0 0 64 64" x="0" y="320">
<path fill="#fff" d="M36.868 19.659l-5.589 14.924-1.199-0.449 5.589-14.924 1.199 0.449z"></path>
<path fill="#fff" d="M29.824 33.728h1.28v20.416h-1.28v-20.416z"></path>
<path fill="#fff" d="M38.592 19.84c-3.264 0.704-6.528-1.344-7.232-4.672s1.408-6.528 4.672-7.232 6.528 1.344 7.232 4.672c0.768 3.392-1.344 6.528-4.672 7.232zM36.352 9.28c-2.56 0.512-4.224 3.136-3.712 5.696s3.136 4.224 5.696 3.712 4.224-3.136 3.712-5.696c-0.512-2.56-3.072-4.288-5.696-3.712z"></path>
<path fill="#fff" d="M30.464 54.784c-0.384 0-0.64-0.256-0.64-0.64s0.256-0.64 0.64-0.64h4.224c0.384 0 0.64 0.256 0.64 0.64s-0.256 0.64-0.64 0.64h-4.224z"></path>
<path fill="#fff" d="M35.52 23.296l-7.424 11.968c-0.192 0.32-0.576 0.384-0.896 0.192s-0.384-0.576-0.192-0.896l7.424-11.968c0.192-0.32 0.576-0.384 0.896-0.192s0.32 0.64 0.192 0.896z"></path>
<path fill="#fff" d="M28.8 37.376c-0.192 0.256-0.512 0.32-0.768 0.192-0.32-0.128-0.448-0.512-0.256-0.896l6.080-12.672c0.064-0.32 0.448-0.512 0.768-0.32 0.32 0.128 0.448 0.512 0.256 0.896l-6.080 12.8c0.064-0.064 0 0 0 0z"></path>
<path fill="#fff" d="M29.44 43.2c0.192 0.192 0.256 0.512 0.128 0.768l-4.352 8.32c-0.128 0.32-0.512 0.448-0.832 0.256-0.32-0.128-0.448-0.512-0.256-0.832l4.352-8.32c0.128-0.32 0.512-0.448 0.832-0.256 0 0 0.064 0 0.128 0.064z"></path>
<path fill="#fff" d="M30.848 33.408l-1.344 10.56c-0.064 0.384-0.32 0.576-0.704 0.576-0.384-0.064-0.576-0.32-0.576-0.704l1.344-10.624c0.064-0.384 0.32-0.576 0.704-0.576 0.384 0.064 0.64 0.384 0.576 0.768z"></path>
<path fill="#fff" d="M28.8 53.568c0.192 0.192 0.256 0.512 0.128 0.768-0.192 0.256-0.576 0.448-0.832 0.256l-3.776-1.984c-0.256-0.192-0.448-0.576-0.256-0.832s0.576-0.448 0.832-0.256l3.776 1.984c0-0.064 0.064 0 0.128 0.064z"></path>
</svg>
<svg id="icon-gainer6" width="64" height="64" viewBox="0 0 64 64" x="0" y="384">
<path fill="#fff" d="M34.016 18.991l-2.869 15.676-1.259-0.23 2.868-15.676 1.259 0.23z"></path>
<path fill="#fff" d="M29.824 33.728h1.28v20.416h-1.28v-20.416z"></path>
<path fill="#fff" d="M35.776 18.944c-3.072 1.28-6.656-0.192-7.936-3.328s0.256-6.656 3.328-7.936 6.656 0.192 7.936 3.328-0.192 6.656-3.328 7.936zM31.744 8.896c-2.432 0.96-3.648 3.84-2.624 6.272s3.84 3.648 6.272 2.624 3.648-3.84 2.624-6.272c-1.024-2.432-3.776-3.648-6.272-2.624z"></path>
<path fill="#fff" d="M30.464 54.784c-0.384 0-0.64-0.256-0.64-0.64s0.256-0.64 0.64-0.64h4.224c0.384 0 0.64 0.256 0.64 0.64s-0.256 0.64-0.64 0.64h-4.224z"></path>
<path fill="#fff" d="M33.152 22.464l-4.352 13.376c-0.128 0.384-0.448 0.512-0.832 0.384s-0.512-0.448-0.384-0.832l4.352-13.376c0.128-0.384 0.448-0.512 0.832-0.384 0.32 0.128 0.448 0.512 0.384 0.832z"></path>
<path fill="#fff" d="M30.016 37.696c-0.128 0.32-0.384 0.448-0.704 0.384s-0.576-0.384-0.512-0.768l2.816-13.76c0.064-0.32 0.384-0.576 0.768-0.512 0.32 0.064 0.576 0.384 0.512 0.768l-2.88 13.888c0-0.064 0 0 0 0z"></path>
<path fill="#fff" d="M30.208 43.072c0.256 0.064 0.384 0.384 0.448 0.64l-0.704 9.344c0 0.32-0.32 0.64-0.704 0.576-0.32 0-0.64-0.32-0.576-0.704l0.704-9.344c0-0.32 0.32-0.64 0.704-0.576 0 0.064 0.064 0 0.128 0.064z"></path>
<path fill="#fff" d="M30.784 33.088v10.624c0 0.384-0.256 0.64-0.64 0.64s-0.64-0.256-0.64-0.64v-10.688c0-0.384 0.256-0.64 0.64-0.64s0.64 0.32 0.64 0.704z"></path>
<path fill="#fff" d="M33.728 52.864c0.256 0.064 0.384 0.384 0.448 0.64-0.064 0.32-0.384 0.64-0.704 0.576l-4.224-0.384c-0.32-0.064-0.64-0.384-0.576-0.704s0.384-0.64 0.704-0.576l4.224 0.384c0 0 0.064 0.064 0.128 0.064z"></path>
</svg>
<svg id="icon-gainer7" width="64" height="64" viewBox="0 0 64 64" x="0" y="448">
<path fill="#fff" d="M31.194 18.938l-0.186 15.934-1.28-0.015 0.186-15.934 1.28 0.015z"></path>
<path fill="#fff" d="M29.824 33.728h1.28v20.416h-1.28v-20.416z"></path>
<path fill="#fff" d="M33.472 18.56c-2.816 1.728-6.592 0.896-8.32-1.984s-0.832-6.592 1.984-8.384 6.592-0.896 8.384 1.984c1.728 2.88 0.832 6.592-2.048 8.384zM27.776 9.344c-2.24 1.408-2.944 4.352-1.536 6.592s4.352 2.944 6.592 1.536 2.944-4.352 1.536-6.592-4.288-2.944-6.592-1.536z"></path>
<path fill="#fff" d="M30.464 54.784c-0.384 0-0.64-0.256-0.64-0.64s0.256-0.64 0.64-0.64h4.224c0.384 0 0.64 0.256 0.64 0.64s-0.256 0.64-0.64 0.64h-4.224z"></path>
<path fill="#fff" d="M31.168 21.952l1.6 14.016c0.064 0.384-0.192 0.64-0.576 0.704s-0.64-0.192-0.704-0.576l-1.6-14.016c-0.064-0.384 0.192-0.64 0.576-0.704s0.64 0.256 0.704 0.576z"></path>
<path fill="#fff" d="M34.496 37.184c0 0.32-0.192 0.576-0.512 0.64s-0.704-0.128-0.768-0.512l-3.072-13.696c-0.064-0.32 0.128-0.704 0.512-0.768 0.32-0.064 0.704 0.128 0.768 0.512l3.072 13.824c0-0.064 0 0 0 0z"></path>
<path fill="#fff" d="M32.768 43.904c0.256 0.064 0.448 0.256 0.576 0.576l1.088 9.344c0.064 0.32-0.192 0.704-0.576 0.704-0.32 0.064-0.704-0.192-0.704-0.576l-1.088-9.344c-0.064-0.32 0.192-0.704 0.576-0.704 0 0.064 0.064 0 0.128 0z"></path>
<path fill="#fff" d="M31.36 34.048l2.048 10.432c0.064 0.384-0.128 0.704-0.512 0.768s-0.704-0.128-0.768-0.512l-2.048-10.496c-0.064-0.384 0.128-0.704 0.512-0.768s0.704 0.192 0.768 0.576z"></path>
<path fill="#fff" d="M38.080 52.864c0.256 0.064 0.448 0.256 0.576 0.576 0 0.32-0.256 0.704-0.576 0.704l-4.224 0.448c-0.32 0-0.704-0.256-0.704-0.576s0.256-0.704 0.576-0.704l4.224-0.448c0 0 0.064 0 0.128 0z"></path>
</svg>
<svg id="icon-gainer8" width="64" height="64" viewBox="0 0 64 64" x="0" y="512">
<path fill="#fff" d="M31.194 18.938l-0.186 15.934-1.28-0.015 0.186-15.934 1.28 0.015z"></path>
<path fill="#fff" d="M29.824 33.728h1.28v20.416h-1.28v-20.416z"></path>
<path fill="#fff" d="M33.472 18.56c-2.816 1.728-6.592 0.896-8.32-1.984s-0.832-6.592 1.984-8.384 6.592-0.896 8.384 1.984c1.728 2.88 0.832 6.592-2.048 8.384zM27.776 9.344c-2.24 1.408-2.944 4.352-1.536 6.592s4.352 2.944 6.592 1.536 2.944-4.352 1.536-6.592-4.288-2.944-6.592-1.536z"></path>
<path fill="#fff" d="M30.464 54.784c-0.384 0-0.64-0.256-0.64-0.64s0.256-0.64 0.64-0.64h4.224c0.384 0 0.64 0.256 0.64 0.64s-0.256 0.64-0.64 0.64h-4.224z"></path>
<path fill="#fff" d="M31.104 22.208l4.096 13.44c0.128 0.384-0.064 0.704-0.448 0.768-0.384 0.128-0.704-0.064-0.768-0.448l-4.096-13.44c-0.128-0.384 0.064-0.704 0.448-0.768 0.32-0.128 0.64 0.128 0.768 0.448z"></path>
<path fill="#fff" d="M36.288 36.928c0.064 0.32-0.128 0.576-0.448 0.704s-0.704-0.064-0.832-0.448l-4.416-13.312c-0.128-0.32 0.064-0.704 0.448-0.832 0.32-0.128 0.704 0.064 0.832 0.448l4.416 13.44c0-0.064 0 0 0 0z"></path>
<path fill="#fff" d="M34.048 44.16c0.256 0 0.512 0.192 0.64 0.448l2.24 9.152c0.128 0.32-0.064 0.704-0.448 0.768-0.32 0.128-0.704-0.064-0.768-0.448l-2.24-9.152c-0.128-0.32 0.064-0.704 0.448-0.768 0 0.064 0.064 0 0.128 0z"></path>
<path fill="#fff" d="M31.424 34.496l3.328 10.112c0.128 0.384-0.064 0.704-0.384 0.832-0.384 0.128-0.704-0.064-0.832-0.384l-3.392-10.176c-0.128-0.384 0.064-0.704 0.384-0.832 0.448-0.128 0.832 0.064 0.896 0.448z"></path>
<path fill="#fff" d="M40.448 52.352c0.256 0 0.512 0.192 0.64 0.448 0.064 0.32-0.128 0.704-0.448 0.768l-4.16 0.96c-0.32 0.064-0.704-0.128-0.768-0.448s0.128-0.704 0.448-0.768l4.16-0.96c0 0 0.064 0 0.128 0z"></path>
</svg>
<svg id="icon-gainer9" width="64" height="64" viewBox="0 0 64 64" x="0" y="576">
<path fill="#fff" d="M31.194 18.938l-0.186 15.934-1.28-0.015 0.186-15.934 1.28 0.015z"></path>
<path fill="#fff" d="M29.824 33.728h1.28v20.416h-1.28v-20.416z"></path>
<path fill="#fff" d="M33.472 18.56c-2.816 1.728-6.592 0.896-8.32-1.984s-0.832-6.592 1.984-8.384 6.592-0.896 8.384 1.984c1.728 2.88 0.832 6.592-2.048 8.384zM27.776 9.344c-2.24 1.408-2.944 4.352-1.536 6.592s4.352 2.944 6.592 1.536 2.944-4.352 1.536-6.592-4.288-2.944-6.592-1.536z"></path>
<path fill="#fff" d="M30.464 54.784c-0.384 0-0.64-0.256-0.64-0.64s0.256-0.64 0.64-0.64h4.224c0.384 0 0.64 0.256 0.64 0.64s-0.256 0.64-0.64 0.64h-4.224z"></path>
<path fill="#fff" d="M31.296 22.272l4.864 13.184c0.128 0.384 0 0.704-0.384 0.832s-0.704 0-0.832-0.384l-4.864-13.184c-0.128-0.384 0-0.704 0.384-0.832s0.704 0.128 0.832 0.384z"></path>
<path fill="#fff" d="M36.672 36.736c0.064 0.32-0.128 0.576-0.384 0.704s-0.704 0-0.832-0.384l-5.184-13.056c-0.128-0.32 0-0.704 0.384-0.832 0.32-0.128 0.704 0 0.832 0.384l5.184 13.184c0-0.064 0 0 0 0z"></path>
<path fill="#fff" d="M36.096 43.776c0.256-0.064 0.512 0.064 0.704 0.32l4.224 8.384c0.192 0.32 0.064 0.704-0.32 0.832-0.32 0.192-0.704 0.064-0.832-0.32l-4.224-8.384c-0.192-0.32-0.064-0.704 0.32-0.832 0 0.064 0.064 0 0.128 0z"></path>
<path fill="#fff" d="M31.040 35.2l5.76 8.896c0.192 0.32 0.128 0.704-0.192 0.896s-0.704 0.128-0.896-0.192l-5.824-8.96c-0.192-0.32-0.128-0.704 0.192-0.896s0.704-0.064 0.96 0.256z"></path>
<path fill="#fff" d="M44.16 50.304c0.256-0.064 0.512 0.064 0.704 0.32 0.128 0.32 0 0.704-0.32 0.832l-3.84 1.92c-0.32 0.128-0.704 0-0.832-0.32s0-0.704 0.32-0.832l3.84-1.92c0 0.064 0.064 0 0.128 0z"></path>
</svg>
<svg id="icon-gainer10" width="64" height="64" viewBox="0 0 64 64" x="0" y="640">
<path fill="#fff" d="M31.194 18.938l-0.186 15.934-1.28-0.015 0.186-15.934 1.28 0.015z"></path>
<path fill="#fff" d="M29.824 33.728h1.28v20.416h-1.28v-20.416z"></path>
<path fill="#fff" d="M33.472 18.56c-2.816 1.728-6.592 0.896-8.32-1.984s-0.832-6.592 1.984-8.384 6.592-0.896 8.384 1.984c1.728 2.88 0.832 6.592-2.048 8.384zM27.776 9.344c-2.24 1.408-2.944 4.352-1.536 6.592s4.352 2.944 6.592 1.536 2.944-4.352 1.536-6.592-4.288-2.944-6.592-1.536z"></path>
<path fill="#fff" d="M30.464 54.784c-0.384 0-0.64-0.256-0.64-0.64s0.256-0.64 0.64-0.64h4.224c0.384 0 0.64 0.256 0.64 0.64s-0.256 0.64-0.64 0.64h-4.224z"></path>
<path fill="#fff" d="M31.040 23.168l10.176 9.728c0.256 0.256 0.256 0.64 0 0.896s-0.64 0.256-0.896 0l-10.176-9.664c-0.256-0.256-0.256-0.64 0-0.896 0.256-0.32 0.64-0.256 0.896-0.064z"></path>
<path fill="#fff" d="M42.88 31.296c0.192 0.256 0.256 0.576 0.064 0.832s-0.576 0.384-0.896 0.128l-11.52-8c-0.256-0.192-0.384-0.576-0.128-0.896 0.192-0.256 0.576-0.384 0.896-0.128l11.584 8.064c-0.064 0 0 0 0 0z"></path>
<path fill="#fff" d="M39.936 40c0.192-0.192 0.512-0.192 0.768-0.128l8 4.928c0.32 0.128 0.448 0.576 0.192 0.896-0.128 0.32-0.576 0.448-0.896 0.192l-8-4.928c-0.32-0.128-0.448-0.576-0.192-0.896 0.064 0.064 0.064 0 0.128-0.064z"></path>
<path fill="#fff" d="M31.104 35.392l9.6 4.544c0.32 0.192 0.448 0.512 0.32 0.832-0.192 0.32-0.512 0.448-0.832 0.32l-9.664-4.608c-0.32-0.192-0.448-0.512-0.32-0.832s0.576-0.448 0.896-0.256z"></path>
<path fill="#fff" d="M50.24 41.344c0.192-0.192 0.512-0.192 0.768-0.128 0.256 0.192 0.384 0.576 0.192 0.896l-2.24 3.584c-0.192 0.256-0.576 0.384-0.896 0.192-0.256-0.192-0.384-0.576-0.192-0.896l2.24-3.584c0 0 0.064 0 0.128-0.064z"></path>
</svg>
<svg id="icon-gainer11" width="64" height="64" viewBox="0 0 64 64" x="0" y="704">
<path fill="#fff" d="M31.194 18.938l-0.186 15.934-1.28-0.015 0.186-15.934 1.28 0.015z"></path>
<path fill="#fff" d="M29.824 33.728h1.28v20.416h-1.28v-20.416z"></path>
<path fill="#fff" d="M33.472 18.56c-2.816 1.728-6.592 0.896-8.32-1.984s-0.832-6.592 1.984-8.384 6.592-0.896 8.384 1.984c1.728 2.88 0.832 6.592-2.048 8.384zM27.776 9.344c-2.24 1.408-2.944 4.352-1.536 6.592s4.352 2.944 6.592 1.536 2.944-4.352 1.536-6.592-4.288-2.944-6.592-1.536z"></path>
<path fill="#fff" d="M30.464 54.784c-0.384 0-0.64-0.256-0.64-0.64s0.256-0.64 0.64-0.64h4.224c0.384 0 0.64 0.256 0.64 0.64s-0.256 0.64-0.64 0.64h-4.224z"></path>
<path fill="#fff" d="M31.168 24.128l13.376 4.352c0.384 0.128 0.512 0.448 0.384 0.832s-0.448 0.512-0.832 0.384l-13.376-4.352c-0.384-0.128-0.512-0.448-0.384-0.832 0.128-0.32 0.512-0.512 0.832-0.384z"></path>
<path fill="#fff" d="M45.376 26.304c0.32 0.128 0.448 0.384 0.384 0.704s-0.384 0.576-0.768 0.512l-13.824-2.24c-0.32-0.064-0.576-0.384-0.512-0.768 0.064-0.32 0.384-0.576 0.768-0.512l13.952 2.304c-0.064 0 0 0 0 0z"></path>
<path fill="#fff" d="M40.384 35.776c0.128-0.256 0.384-0.384 0.704-0.384l9.216 1.856c0.32 0.064 0.576 0.384 0.448 0.768-0.064 0.32-0.384 0.576-0.768 0.448l-9.216-1.856c-0.32-0.064-0.576-0.384-0.448-0.768 0.064 0.064 0 0 0.064-0.064z"></path>
<path fill="#fff" d="M30.464 34.496l10.56 0.96c0.384 0.064 0.64 0.32 0.576 0.704s-0.32 0.64-0.704 0.576l-10.624-0.96c-0.384-0.064-0.64-0.32-0.576-0.704s0.384-0.576 0.768-0.576z"></path>
<path fill="#fff" d="M50.496 33.472c0.128-0.256 0.384-0.384 0.704-0.384 0.32 0.064 0.576 0.448 0.448 0.768l-0.832 4.16c-0.064 0.32-0.448 0.576-0.768 0.448-0.32-0.064-0.576-0.448-0.448-0.768l0.832-4.16c0 0.064 0.064 0 0.064-0.064z"></path>
</svg>
<svg id="icon-gainer12" width="64" height="64" viewBox="0 0 64 64" x="0" y="768">
<path fill="#fff" d="M31.194 18.938l-0.186 15.934-1.28-0.015 0.186-15.934 1.28 0.015z"></path>
<path fill="#fff" d="M29.824 33.728h1.28v20.416h-1.28v-20.416z"></path>
<path fill="#fff" d="M33.472 18.56c-2.816 1.728-6.592 0.896-8.32-1.984s-0.832-6.592 1.984-8.384 6.592-0.896 8.384 1.984c1.728 2.88 0.832 6.592-2.048 8.384zM27.776 9.344c-2.24 1.408-2.944 4.352-1.536 6.592s4.352 2.944 6.592 1.536 2.944-4.352 1.536-6.592-4.288-2.944-6.592-1.536z"></path>
<path fill="#fff" d="M30.464 54.784c-0.384 0-0.64-0.256-0.64-0.64s0.256-0.64 0.64-0.64h4.224c0.384 0 0.64 0.256 0.64 0.64s-0.256 0.64-0.64 0.64h-4.224z"></path>
<path fill="#fff" d="M30.656 25.28l14.080-0.384c0.384 0 0.64 0.256 0.64 0.64s-0.256 0.64-0.64 0.64l-14.080 0.384c-0.384 0-0.64-0.256-0.64-0.64s0.32-0.64 0.64-0.64z"></path>
<path fill="#fff" d="M44.8 22.656c0.32 0 0.576 0.192 0.64 0.512s-0.128 0.704-0.576 0.768l-13.824 2.496c-0.32 0-0.704-0.192-0.768-0.576-0.064-0.32 0.128-0.704 0.576-0.768l13.952-2.432c-0.064 0 0 0 0 0z"></path>
<path fill="#fff" d="M40.384 33.344c0.064-0.256 0.256-0.512 0.512-0.576l9.28-1.408c0.32-0.064 0.704 0.128 0.704 0.576 0.064 0.32-0.128 0.704-0.576 0.704l-9.28 1.408c-0.32 0.064-0.704-0.128-0.704-0.576 0.064 0 0.064-0.064 0.064-0.128z"></path>
<path fill="#fff" d="M30.656 35.52l10.24-2.688c0.384-0.128 0.704 0.064 0.768 0.448s-0.064 0.704-0.448 0.768l-10.304 2.752c-0.384 0.128-0.704-0.064-0.768-0.448-0.128-0.384 0.128-0.704 0.512-0.832z"></path>
<path fill="#fff" d="M49.088 27.712c0.064-0.256 0.256-0.512 0.512-0.576 0.32 0 0.704 0.192 0.704 0.576l0.576 4.224c0 0.32-0.192 0.704-0.576 0.704-0.32 0-0.704-0.192-0.704-0.576l-0.576-4.224c0.064 0 0.064-0.064 0.064-0.128z"></path>
</svg>
<svg id="icon-gainer13" width="64" height="64" viewBox="0 0 64 64" x="0" y="832">
<path fill="#fff" d="M30.386 18.88l0.875 15.912-1.278 0.070-0.875-15.912 1.278-0.070z"></path>
<path fill="#fff" d="M29.824 33.728h1.28v20.416h-1.28v-20.416z"></path>
<path fill="#fff" d="M32.704 18.368c-2.688 1.92-6.528 1.344-8.512-1.408s-1.28-6.528 1.408-8.512 6.528-1.344 8.512 1.408 1.344 6.528-1.408 8.512zM26.368 9.536c-2.112 1.536-2.624 4.544-1.088 6.72s4.544 2.624 6.72 1.088c2.112-1.536 2.624-4.544 1.088-6.72-1.536-2.112-4.544-2.624-6.72-1.088z"></path>
<path fill="#fff" d="M30.464 54.784c-0.384 0-0.64-0.256-0.64-0.64s0.256-0.64 0.64-0.64h4.224c0.384 0 0.64 0.256 0.64 0.64s-0.256 0.64-0.64 0.64h-4.224z"></path>
<path fill="#fff" d="M30.336 25.728l12.544-6.336c0.32-0.192 0.704-0.064 0.832 0.256 0.192 0.32 0.064 0.704-0.256 0.832l-12.544 6.4c-0.32 0.192-0.704 0.064-0.832-0.256-0.192-0.384-0.064-0.768 0.256-0.896z"></path>
<path fill="#fff" d="M41.984 17.28c0.32-0.128 0.576-0.064 0.768 0.256s0.128 0.704-0.192 0.896l-11.392 8.128c-0.256 0.192-0.704 0.128-0.896-0.192-0.192-0.256-0.192-0.704 0.128-0.896l11.584-8.192c-0.064 0.064 0 0 0 0z"></path>
<path fill="#fff" d="M38.4 28.8c-0.064-0.256 0.064-0.576 0.256-0.768l7.872-5.12c0.256-0.192 0.704-0.128 0.896 0.192 0.192 0.256 0.128 0.704-0.192 0.896l-7.872 5.12c-0.256 0.192-0.704 0.128-0.896-0.192 0 0-0.064-0.064-0.064-0.128z"></path>
<path fill="#fff" d="M30.464 34.816l8.192-6.72c0.32-0.256 0.64-0.192 0.896 0.064s0.192 0.64-0.064 0.896l-8.256 6.784c-0.32 0.256-0.64 0.192-0.896-0.064-0.256-0.32-0.192-0.704 0.128-0.96z"></path>
<path fill="#fff" d="M44.032 20.096c-0.064-0.256 0.064-0.576 0.256-0.768 0.256-0.128 0.704-0.064 0.896 0.192l2.304 3.584c0.128 0.256 0.064 0.704-0.192 0.896s-0.704 0.064-0.896-0.192l-2.304-3.584c-0.064-0.064-0.064-0.064-0.064-0.128z"></path>
</svg>
<svg id="icon-gainer14" width="64" height="64" viewBox="0 0 64 64" x="0" y="896">
<path fill="#fff" d="M28.941 18.767l2.166 15.788-1.268 0.174-2.166-15.788 1.268-0.174z"></path>
<path fill="#fff" d="M29.824 33.728h1.28v20.416h-1.28v-20.416z"></path>
<path fill="#fff" d="M31.168 18.048c-2.56 2.176-6.4 1.856-8.576-0.704s-1.856-6.4 0.704-8.576 6.4-1.856 8.576 0.704 1.856 6.4-0.704 8.576zM24.192 9.856c-1.984 1.728-2.24 4.736-0.576 6.784s4.736 2.24 6.784 0.576c1.984-1.728 2.24-4.736 0.576-6.784s-4.736-2.368-6.784-0.576z"></path>
<path fill="#fff" d="M30.464 54.784c-0.384 0-0.64-0.256-0.64-0.64s0.256-0.64 0.64-0.64h4.224c0.384 0 0.64 0.256 0.64 0.64s-0.256 0.64-0.64 0.64h-4.224z"></path>
<path fill="#fff" d="M29.184 24.96l9.856-10.048c0.256-0.256 0.64-0.256 0.896 0s0.256 0.64 0 0.896l-9.792 10.048c-0.256 0.256-0.64 0.256-0.896 0s-0.256-0.64-0.064-0.896z"></path>
<path fill="#fff" d="M37.504 13.248c0.256-0.192 0.576-0.256 0.832-0.064s0.384 0.64 0.128 0.896l-8.192 11.456c-0.192 0.256-0.64 0.384-0.896 0.128-0.256-0.192-0.384-0.64-0.128-0.896l8.256-11.52c0 0.064 0 0 0 0z"></path>
<path fill="#fff" d="M36.736 27.008c-0.128-0.192-0.064-0.512 0.064-0.768l6.464-6.784c0.192-0.256 0.64-0.32 0.896 0 0.256 0.192 0.32 0.64 0 0.896l-6.464 6.784c-0.192 0.256-0.64 0.32-0.896 0 0.064-0.064 0-0.064-0.064-0.128z"></path>
<path fill="#fff" d="M30.4 34.624l6.464-8.384c0.256-0.32 0.576-0.384 0.896-0.128s0.384 0.576 0.128 0.896l-6.528 8.448c-0.256 0.32-0.576 0.384-0.896 0.128-0.32-0.192-0.32-0.64-0.064-0.96z"></path>
<path fill="#fff" d="M40.192 17.216c-0.128-0.192-0.064-0.512 0.064-0.768 0.256-0.192 0.704-0.256 0.896 0l3.072 2.944c0.192 0.256 0.256 0.704 0 0.896s-0.704 0.256-0.896 0l-3.072-3.008c0 0 0-0.064-0.064-0.064z"></path>
</svg>
<svg id="icon-gainer15" width="64" height="64" viewBox="0 0 64 64" x="0" y="960">
<path fill="#fff" d="M25.963 19.126l4.876 15.171-1.219 0.392-4.876-15.171 1.219-0.392z"></path>
<path fill="#fff" d="M33.73 54.226l-1.268 0.174-2.779-20.226 1.268-0.174 2.779 20.226z"></path>
<path fill="#fff" d="M28.096 18.048c-2.112 2.56-5.952 2.944-8.576 0.768s-2.944-6.016-0.768-8.576 5.952-2.944 8.576-0.768 2.944 5.952 0.768 8.576zM19.776 11.136c-1.664 2.048-1.408 5.056 0.64 6.784s5.056 1.408 6.784-0.64 1.408-5.056-0.64-6.784-5.056-1.472-6.784 0.64z"></path>
<path fill="#fff" d="M33.216 54.976c-0.384 0.064-0.64-0.192-0.704-0.576s0.192-0.64 0.576-0.704l4.16-0.576c0.384-0.064 0.64 0.192 0.704 0.576s-0.192 0.64-0.576 0.704l-4.16 0.576z"></path>
<path fill="#fff" d="M27.328 25.152l7.936-11.648c0.192-0.32 0.576-0.384 0.896-0.192s0.384 0.576 0.192 0.896l-7.936 11.712c-0.256 0.32-0.576 0.384-0.896 0.128s-0.32-0.64-0.192-0.896z"></path>
<path fill="#fff" d="M33.472 12.16c0.192-0.256 0.512-0.32 0.768-0.192 0.32 0.128 0.448 0.512 0.256 0.896l-6.080 12.672c-0.128 0.32-0.512 0.448-0.896 0.256-0.32-0.128-0.448-0.512-0.256-0.896l6.208-12.736c0 0.064 0 0 0 0z"></path>
<path fill="#fff" d="M35.584 26.432c-0.128-0.192-0.128-0.512 0-0.768l5.696-7.488c0.192-0.32 0.576-0.384 0.896-0.128 0.32 0.192 0.384 0.576 0.128 0.896l-5.696 7.488c-0.192 0.32-0.576 0.384-0.896 0.128 0-0.064-0.128-0.128-0.128-0.128z"></path>
<path fill="#fff" d="M30.080 34.688l5.504-9.088c0.192-0.32 0.576-0.384 0.896-0.192s0.384 0.576 0.192 0.896l-5.504 9.152c-0.192 0.32-0.576 0.384-0.896 0.192s-0.384-0.576-0.192-0.96z"></path>
<path fill="#fff" d="M37.952 16.256c-0.128-0.192-0.128-0.512 0-0.768 0.192-0.256 0.64-0.32 0.896-0.128l3.392 2.624c0.256 0.192 0.32 0.64 0.128 0.896s-0.64 0.32-0.896 0.128l-3.392-2.624c-0.064 0-0.064-0.064-0.128-0.128z"></path>
</svg>
<svg id="icon-gainer16" width="64" height="64" viewBox="0 0 64 64" x="0" y="1024">
<path fill="#fff" d="M23.464 20.251l7.979 13.794-1.108 0.641-7.979-13.794 1.108-0.641z"></path>
<path fill="#fff" d="M38.422 52.931l-1.202 0.439-7.001-19.179 1.202-0.439 7.001 19.179z"></path>
<path fill="#fff" d="M25.28 18.688c-1.536 2.944-5.184 4.16-8.192 2.56s-4.096-5.248-2.56-8.192 5.184-4.16 8.192-2.56 4.096 5.184 2.56 8.192zM15.68 13.696c-1.216 2.304-0.256 5.248 2.048 6.464s5.248 0.256 6.464-2.048 0.256-5.248-2.048-6.464-5.248-0.32-6.464 2.048z"></path>
<path fill="#fff" d="M38.080 53.76c-0.384 0.128-0.704 0-0.832-0.384s0-0.704 0.384-0.832l3.968-1.472c0.384-0.128 0.704 0 0.832 0.384s0 0.704-0.384 0.832l-3.968 1.472z"></path>
<path fill="#fff" d="M26.048 25.856l5.312-13.056c0.128-0.384 0.448-0.512 0.832-0.32 0.384 0.128 0.512 0.448 0.32 0.832l-5.312 13.056c-0.128 0.384-0.448 0.512-0.832 0.32-0.32-0.128-0.448-0.576-0.32-0.832z"></path>
<path fill="#fff" d="M29.312 11.84c0.128-0.32 0.448-0.448 0.768-0.32 0.32 0.064 0.576 0.448 0.448 0.768l-3.264 13.632c-0.064 0.32-0.448 0.576-0.768 0.448-0.32-0.064-0.576-0.448-0.448-0.768l3.264-13.76c0 0.064 0 0 0 0z"></path>
<path fill="#fff" d="M33.152 24.768c-0.192-0.128-0.32-0.448-0.256-0.704l2.944-8.96c0.064-0.32 0.448-0.576 0.832-0.384 0.32 0.064 0.576 0.448 0.384 0.832l-2.944 8.96c-0.128 0.256-0.512 0.448-0.832 0.32 0-0.064-0.064-0.064-0.128-0.064z"></path>
<path fill="#fff" d="M30.72 34.368l2.24-10.368c0.064-0.384 0.384-0.576 0.768-0.512s0.576 0.384 0.512 0.768l-2.24 10.432c-0.064 0.384-0.384 0.576-0.768 0.512s-0.576-0.448-0.512-0.832z"></path>
<path fill="#fff" d="M32.128 14.4c-0.192-0.128-0.32-0.448-0.256-0.704 0.128-0.32 0.512-0.512 0.832-0.384l4.032 1.344c0.32 0.128 0.512 0.512 0.384 0.832s-0.512 0.512-0.832 0.384l-4.032-1.344c-0.064-0.064-0.128-0.064-0.128-0.128z"></path>
</svg>
<svg id="icon-gainer17" width="64" height="64" viewBox="0 0 64 64" x="0" y="1088">
<path fill="#fff" d="M20.66 21.813l11.248 11.289-0.907 0.903-11.248-11.289 0.907-0.903z"></path>
<path fill="#fff" d="M43.536 49.563l-1.050 0.732-11.68-16.745 1.050-0.732 11.68 16.745z"></path>
<path fill="#fff" d="M22.016 19.904c-0.704 3.264-3.968 5.376-7.232 4.608-3.328-0.768-5.312-4.032-4.608-7.232s3.968-5.376 7.232-4.608 5.312 3.904 4.608 7.232zM11.456 17.536c-0.576 2.56 1.088 5.184 3.648 5.76s5.184-1.088 5.76-3.648c0.576-2.56-1.088-5.184-3.648-5.76s-5.184 1.024-5.76 3.648z"></path>
<path fill="#fff" d="M43.392 50.432c-0.32 0.192-0.64 0.128-0.896-0.128-0.192-0.32-0.128-0.64 0.128-0.896l3.456-2.432c0.32-0.192 0.64-0.128 0.896 0.128 0.192 0.32 0.128 0.64-0.128 0.896l-3.456 2.432z"></path>
<path fill="#fff" d="M24.576 26.56l1.792-13.952c0.064-0.384 0.32-0.576 0.704-0.576 0.384 0.064 0.576 0.32 0.576 0.704l-1.792 13.952c-0.064 0.384-0.32 0.576-0.704 0.576s-0.576-0.384-0.576-0.704z"></path>
<path fill="#fff" d="M24.128 12.224c0.064-0.32 0.32-0.512 0.64-0.512s0.64 0.256 0.64 0.64l0.32 14.016c0 0.32-0.256 0.64-0.64 0.64-0.32 0-0.64-0.256-0.64-0.64l-0.32-14.144c0 0.064 0 0 0 0z"></path>
<path fill="#fff" d="M31.168 23.68c-0.256-0.064-0.448-0.384-0.448-0.64l0.576-9.408c0-0.32 0.32-0.64 0.704-0.576 0.32 0 0.64 0.32 0.576 0.704l-0.576 9.408c0 0.32-0.32 0.64-0.704 0.576 0.064-0.064-0.064 0-0.128-0.064z"></path>
<path fill="#fff" d="M31.296 33.664l-0.512-10.624c0-0.384 0.256-0.64 0.64-0.64s0.64 0.256 0.64 0.64l0.512 10.688c0 0.384-0.256 0.64-0.64 0.64s-0.64-0.32-0.64-0.704z"></path>
<path fill="#fff" d="M27.52 13.952c-0.256-0.064-0.448-0.384-0.448-0.64 0.064-0.32 0.384-0.64 0.704-0.576l4.224 0.256c0.32 0.064 0.64 0.384 0.576 0.704s-0.384 0.64-0.704 0.576l-4.224-0.256c0 0-0.064 0-0.128-0.064z"></path>
</svg>
<svg id="icon-gainer18" width="64" height="64" viewBox="0 0 64 64" x="0" y="1152">
<path fill="#fff" d="M17.857 25.254l14.521 6.564-0.527 1.166-14.521-6.564 0.527-1.166z"></path>
<path fill="#fff" d="M51.195 38.416l-0.433 1.205-19.213-6.903 0.433-1.205 19.213 6.903z"></path>
<path fill="#fff" d="M18.432 22.976c0.448 3.264-1.792 6.4-5.184 6.848-3.328 0.512-6.4-1.856-6.848-5.184-0.448-3.264 1.792-6.4 5.184-6.848s6.4 1.792 6.848 5.184zM7.744 24.448c0.384 2.624 2.816 4.416 5.44 4.096 2.624-0.384 4.416-2.816 4.096-5.44-0.384-2.624-2.816-4.416-5.44-4.096s-4.48 2.816-4.096 5.44z"></path>
<path fill="#fff" d="M51.584 39.232c-0.128 0.384-0.448 0.512-0.832 0.384s-0.512-0.448-0.384-0.832l1.408-3.968c0.128-0.384 0.448-0.512 0.832-0.384s0.512 0.448 0.384 0.832l-1.408 3.968z"></path>
<path fill="#fff" d="M23.232 28.288l-3.264-13.696c-0.064-0.384 0.128-0.704 0.448-0.768 0.384-0.064 0.704 0.128 0.768 0.448l3.264 13.696c0.064 0.384-0.128 0.704-0.448 0.768-0.384 0.128-0.704-0.128-0.768-0.448z"></path>
<path fill="#fff" d="M17.728 14.976c-0.064-0.32 0.064-0.576 0.384-0.704s0.704 0 0.832 0.384l5.312 12.992c0.128 0.32 0 0.704-0.384 0.832-0.32 0.128-0.704 0-0.832-0.384l-5.312-13.12c0 0.064 0 0 0 0z"></path>
<path fill="#fff" d="M28.352 23.232c-0.256 0-0.512-0.192-0.64-0.448l-2.816-8.96c-0.128-0.32 0.064-0.704 0.448-0.768 0.32-0.128 0.704 0.064 0.768 0.448l2.816 8.96c0.128 0.32-0.064 0.704-0.448 0.768 0-0.064-0.064 0-0.128 0z"></path>
<path fill="#fff" d="M32 32.512l-4.224-9.728c-0.128-0.32 0-0.704 0.32-0.832s0.704 0 0.832 0.32l4.288 9.792c0.128 0.32 0 0.704-0.32 0.832-0.384 0.192-0.768 0-0.896-0.384z"></path>
<path fill="#fff" d="M21.504 15.488c-0.256 0-0.512-0.192-0.64-0.448-0.064-0.32 0.128-0.704 0.448-0.768l4.096-1.216c0.32-0.064 0.704 0.128 0.768 0.448s-0.128 0.704-0.448 0.768l-4.096 1.216c0 0-0.064 0-0.128 0z"></path>
</svg>
<svg id="icon-gainer19" width="64" height="64" viewBox="0 0 64 64" x="0" y="1216">
<path fill="#fff" d="M17.845 27.455l15.49 3.745-0.301 1.244-15.49-3.745 0.301-1.244z"></path>
<path fill="#fff" d="M53.484 30.182l0.075 1.278-20.381 1.191-0.075-1.278 20.381-1.191z"></path>
<path fill="#fff" d="M17.984 25.088c1.088 3.136-0.576 6.592-3.776 7.744-3.2 1.088-6.656-0.64-7.744-3.776s0.64-6.656 3.84-7.744c3.2-1.088 6.592 0.576 7.68 3.776zM7.808 28.608c0.832 2.496 3.584 3.84 6.080 3.008s3.84-3.584 3.008-6.080c-0.832-2.496-3.584-3.84-6.080-3.008-2.56 0.832-3.904 3.52-3.008 6.080z"></path>
<path fill="#fff" d="M54.208 30.784c0 0.384-0.192 0.64-0.576 0.704-0.384 0-0.64-0.192-0.704-0.576l-0.256-4.224c0-0.384 0.192-0.64 0.576-0.704 0.384 0 0.64 0.192 0.704 0.576l0.256 4.224z"></path>
<path fill="#fff" d="M23.744 29.44l-5.76-12.864c-0.128-0.32 0-0.704 0.32-0.832s0.704 0 0.832 0.32l5.76 12.864c0.128 0.32 0 0.704-0.32 0.832-0.384 0.192-0.704 0-0.832-0.32z"></path>
<path fill="#fff" d="M15.808 17.408c-0.128-0.32 0-0.576 0.256-0.768s0.704-0.128 0.896 0.192l7.616 11.776c0.192 0.256 0.128 0.704-0.192 0.896-0.256 0.192-0.704 0.128-0.896-0.192l-7.68-11.904c0.064 0.064 0 0 0 0z"></path>
<path fill="#fff" d="M28.416 23.104c-0.256 0-0.512-0.128-0.64-0.384l-3.264-8.832c-0.128-0.32 0-0.704 0.384-0.768 0.32-0.128 0.704 0 0.768 0.384l3.264 8.832c0.128 0.32 0 0.704-0.384 0.768 0-0.128-0.064-0.064-0.128 0z"></path>
<path fill="#fff" d="M32.512 32.128l-4.736-9.536c-0.192-0.32-0.064-0.704 0.32-0.832s0.704-0.064 0.832 0.32l4.736 9.6c0.192 0.32 0.064 0.704-0.32 0.832-0.32 0.128-0.704 0-0.832-0.384z"></path>
<path fill="#fff" d="M21.12 15.616c-0.256 0-0.512-0.128-0.64-0.384-0.064-0.32 0.064-0.704 0.384-0.768l4.032-1.472c0.32-0.064 0.704 0.064 0.768 0.384s-0.064 0.704-0.384 0.768l-4.032 1.472c0 0-0.064 0-0.128 0z"></path>
</svg>
<svg id="icon-gainer20" width="64" height="64" viewBox="0 0 64 64" x="0" y="1280">
<path fill="#fff" d="M18.699 29.322l15.887 1.264-0.102 1.276-15.887-1.264 0.102-1.276z"></path>
<path fill="#fff" d="M48.994 18.003l0.831 0.973-15.522 13.26-0.831-0.973 15.522-13.26z"></path>
<path fill="#fff" d="M18.496 27.008c1.536 2.944 0.448 6.656-2.496 8.192s-6.656 0.384-8.192-2.496c-1.536-2.944-0.448-6.656 2.496-8.192s6.592-0.512 8.192 2.496zM8.896 32.064c1.216 2.304 4.16 3.2 6.464 1.984s3.2-4.16 1.984-6.464c-1.216-2.304-4.16-3.2-6.464-1.984s-3.2 4.096-1.984 6.464z"></path>
<path fill="#fff" d="M49.856 18.048c0.256 0.32 0.192 0.64-0.064 0.896s-0.64 0.192-0.896-0.064l-2.752-3.2c-0.256-0.32-0.192-0.64 0.064-0.896s0.64-0.192 0.896 0.064l2.752 3.2z"></path>
<path fill="#fff" d="M24.832 30.4l-7.744-11.776c-0.192-0.32-0.128-0.704 0.192-0.896s0.64-0.128 0.896 0.192l7.744 11.776c0.192 0.32 0.128 0.704-0.192 0.896-0.384 0.192-0.768 0.064-0.896-0.192z"></path>
<path fill="#fff" d="M15.104 19.776c-0.128-0.256-0.128-0.576 0.128-0.832 0.256-0.192 0.704-0.256 0.896 0.064l9.408 10.432c0.192 0.256 0.256 0.704-0.064 0.896-0.256 0.192-0.704 0.256-0.896-0.064l-9.472-10.496c0.064 0 0 0 0 0z"></path>
<path fill="#fff" d="M29.056 22.784c-0.256 0.064-0.512-0.128-0.704-0.32l-3.968-8.512c-0.192-0.32-0.064-0.704 0.32-0.832 0.32-0.192 0.704-0.064 0.832 0.32l3.968 8.512c0.192 0.32 0.064 0.704-0.32 0.832-0.064-0.064-0.064 0-0.128 0z"></path>
<path fill="#fff" d="M33.856 31.552l-5.504-9.152c-0.192-0.32-0.128-0.64 0.192-0.832s0.704-0.128 0.896 0.192l5.504 9.152c0.192 0.32 0.128 0.704-0.192 0.896s-0.704 0.064-0.896-0.256z"></path>
<path fill="#fff" d="M21.184 16c-0.256 0-0.512-0.128-0.704-0.384-0.128-0.32 0-0.704 0.32-0.832l3.904-1.728c0.32-0.128 0.704 0 0.832 0.32s0 0.704-0.32 0.832l-3.904 1.728c0 0-0.064 0.064-0.128 0.064z"></path>
</svg>
<svg id="icon-gainer21" width="64" height="64" viewBox="0 0 64 64" x="0" y="1344">
<path fill="#fff" d="M19.95 31.264l15.796-2.105 0.169 1.269-15.796 2.105-0.169-1.269z"></path>
<path fill="#fff" d="M44.603 11.417l1.135 0.592-9.438 18.103-1.135-0.592 9.438-18.103z"></path>
<path fill="#fff" d="M19.264 29.056c2.112 2.56 1.856 6.4-0.768 8.576s-6.4 1.792-8.576-0.768-1.856-6.4 0.768-8.576c2.56-2.176 6.4-1.856 8.576 0.768zM10.944 36.032c1.664 1.984 4.736 2.304 6.784 0.576s2.304-4.736 0.576-6.784-4.736-2.304-6.784-0.576-2.304 4.736-0.576 6.784z"></path>
<path fill="#fff" d="M45.44 11.136c0.32 0.192 0.448 0.512 0.256 0.832s-0.512 0.448-0.832 0.256l-3.776-1.984c-0.32-0.192-0.448-0.512-0.256-0.832s0.512-0.448 0.832-0.256l3.776 1.984z"></path>
<path fill="#fff" d="M26.112 31.040l-9.984-9.92c-0.256-0.256-0.256-0.64 0-0.896s0.64-0.256 0.896 0l10.048 9.856c0.256 0.256 0.256 0.64 0 0.896s-0.704 0.256-0.96 0.064z"></path>
<path fill="#fff" d="M14.4 22.656c-0.192-0.256-0.256-0.576-0.064-0.832s0.64-0.384 0.896-0.128l11.392 8.256c0.256 0.192 0.384 0.64 0.128 0.896-0.192 0.256-0.64 0.384-0.896 0.128l-11.456-8.32c0.064 0.064 0 0 0 0z"></path>
<path fill="#fff" d="M29.824 21.632c-0.256 0.064-0.512-0.064-0.704-0.32l-4.224-8.384c-0.192-0.32-0.064-0.704 0.32-0.832 0.32-0.192 0.704-0.064 0.832 0.32l4.224 8.384c0.192 0.32 0.064 0.704-0.32 0.832 0-0.064-0.064 0-0.128 0z"></path>
<path fill="#fff" d="M34.944 30.208l-5.76-8.896c-0.192-0.32-0.128-0.704 0.192-0.896s0.704-0.128 0.896 0.192l5.824 8.96c0.192 0.32 0.128 0.704-0.192 0.896s-0.768 0.064-0.96-0.256z"></path>
<path fill="#fff" d="M21.76 15.104c-0.256 0.064-0.512-0.064-0.704-0.32-0.128-0.32 0-0.704 0.32-0.832l3.84-1.856c0.32-0.128 0.704 0 0.832 0.32s0 0.704-0.32 0.832l-3.84 1.856c0 0-0.064 0-0.128 0z"></path>
</svg>
<svg id="icon-gainer22" width="64" height="64" viewBox="0 0 64 64" x="0" y="1408">
<path fill="#fff" d="M22.14 32.943l14.655-6.261 0.503 1.177-14.655 6.261-0.503-1.177z"></path>
<path fill="#fff" d="M40.602 7.197l1.252 0.266-4.242 19.971-1.252-0.266 4.242-19.971z"></path>
<path fill="#fff" d="M20.864 30.976c2.752 1.856 3.52 5.632 1.6 8.448s-5.696 3.456-8.448 1.6c-2.752-1.856-3.52-5.632-1.6-8.448s5.632-3.52 8.448-1.6zM14.72 39.936c2.176 1.472 5.184 0.896 6.656-1.28s0.896-5.184-1.28-6.656c-2.176-1.472-5.184-0.896-6.656 1.28-1.408 2.112-0.896 5.12 1.28 6.656z"></path>
<path fill="#fff" d="M41.344 6.72c0.384 0.064 0.576 0.384 0.512 0.768s-0.384 0.576-0.768 0.512l-4.16-0.896c-0.384-0.064-0.576-0.384-0.512-0.768s0.384-0.576 0.768-0.512l4.16 0.896z"></path>
<path fill="#fff" d="M28.032 31.040l-12.288-6.848c-0.384-0.128-0.448-0.512-0.256-0.832s0.512-0.448 0.896-0.256l12.288 6.848c0.32 0.192 0.448 0.512 0.256 0.896-0.192 0.32-0.64 0.384-0.896 0.192z"></path>
<path fill="#fff" d="M14.528 26.112c-0.256-0.192-0.384-0.448-0.256-0.768s0.512-0.512 0.832-0.384l13.184 4.864c0.32 0.128 0.512 0.512 0.384 0.832s-0.512 0.512-0.832 0.384l-13.312-4.928c0.064 0.064 0 0 0 0z"></path>
<path fill="#fff" d="M30.272 19.264c-0.256 0.064-0.576-0.064-0.768-0.256l-4.928-8c-0.192-0.256-0.128-0.704 0.256-0.832 0.256-0.192 0.704-0.128 0.832 0.256l4.928 8c0.192 0.256 0.128 0.704-0.256 0.832 0.064-0.064 0 0-0.064 0z"></path>
<path fill="#fff" d="M36.096 27.392l-6.528-8.384c-0.256-0.32-0.192-0.64 0.128-0.896s0.64-0.192 0.896 0.128l6.528 8.384c0.256 0.32 0.192 0.64-0.128 0.896-0.256 0.256-0.704 0.128-0.896-0.128z"></path>
<path fill="#fff" d="M21.632 13.44c-0.256 0.064-0.576-0.064-0.768-0.256-0.128-0.32-0.064-0.704 0.256-0.832l3.648-2.24c0.32-0.128 0.704-0.064 0.832 0.256s0.064 0.704-0.256 0.832l-3.584 2.24c0 0-0.064 0-0.128 0z"></path>
</svg>
<svg id="icon-gainer23" width="64" height="64" viewBox="0 0 64 64" x="0" y="1472">
<path fill="#fff" d="M23.59 36.069l12.682-9.651 0.775 1.019-12.682 9.651-0.775-1.019z"></path>
<path fill="#fff" d="M34.749 6.588l1.277-0.081 1.286 20.375-1.277 0.081-1.286-20.375z"></path>
<path fill="#fff" d="M21.888 34.432c3.136 1.152 4.8 4.608 3.584 7.808-1.152 3.2-4.672 4.736-7.808 3.584s-4.8-4.608-3.584-7.808 4.608-4.736 7.808-3.584zM18.112 44.608c2.432 0.896 5.248-0.384 6.144-2.816s-0.384-5.248-2.816-6.144-5.248 0.384-6.144 2.816 0.32 5.184 2.816 6.144z"></path>
<path fill="#fff" d="M35.328 5.952c0.384 0 0.64 0.192 0.704 0.576 0 0.384-0.192 0.64-0.576 0.704l-4.224 0.256c-0.384 0-0.64-0.192-0.704-0.576 0-0.384 0.192-0.64 0.576-0.704l4.224-0.256z"></path>
<path fill="#fff" d="M28.864 32.768l-13.632-3.648c-0.384-0.128-0.576-0.384-0.448-0.768s0.384-0.576 0.768-0.448l13.632 3.648c0.384 0.128 0.576 0.384 0.448 0.768s-0.512 0.512-0.768 0.448z"></path>
<path fill="#fff" d="M14.528 31.296c-0.32-0.128-0.512-0.384-0.448-0.704s0.32-0.64 0.704-0.576l13.952 1.536c0.32 0.064 0.64 0.32 0.576 0.704-0.064 0.32-0.32 0.64-0.704 0.576l-14.080-1.536c0.064 0 0 0 0 0z"></path>
<path fill="#fff" d="M30.272 19.264c-0.256 0.064-0.576-0.064-0.768-0.256l-4.928-8c-0.192-0.256-0.128-0.704 0.256-0.832 0.256-0.192 0.704-0.128 0.832 0.256l4.928 8c0.192 0.256 0.128 0.704-0.256 0.832 0.064-0.064 0 0-0.064 0z"></path>
<path fill="#fff" d="M36.096 27.392l-6.528-8.384c-0.256-0.32-0.192-0.64 0.128-0.896s0.64-0.192 0.896 0.128l6.528 8.384c0.256 0.32 0.192 0.64-0.128 0.896-0.256 0.256-0.704 0.128-0.896-0.128z"></path>
<path fill="#fff" d="M21.632 13.44c-0.256 0.064-0.576-0.064-0.768-0.256-0.128-0.32-0.064-0.704 0.256-0.832l3.648-2.24c0.32-0.128 0.704-0.064 0.832 0.256s0.064 0.704-0.256 0.832l-3.584 2.24c0 0-0.064 0-0.128 0z"></path>
</svg>
<svg id="icon-gainer24" width="64" height="64" viewBox="0 0 64 64" x="0" y="1536">
<path fill="#fff" d="M29.434 40.748l6.744-14.44 1.16 0.542-6.744 14.44-1.16-0.542z"></path>
<path fill="#fff" d="M29.649 7.36l1.218-0.395 6.302 19.42-1.218 0.395-6.302-19.42z"></path>
<path fill="#fff" d="M27.136 40.128c3.328-0.448 6.4 1.856 6.784 5.248 0.448 3.392-1.92 6.4-5.248 6.784s-6.4-1.856-6.784-5.248 1.92-6.336 5.248-6.784zM28.544 50.88c2.624-0.32 4.48-2.752 4.16-5.376s-2.752-4.48-5.376-4.16c-2.624 0.32-4.48 2.752-4.16 5.376 0.32 2.56 2.752 4.48 5.376 4.16z"></path>
<path fill="#fff" d="M30.080 6.528c0.384-0.128 0.704 0.064 0.832 0.384 0.128 0.384-0.064 0.704-0.384 0.832l-4.032 1.28c-0.384 0.128-0.704-0.064-0.832-0.384-0.128-0.384 0.064-0.704 0.384-0.832l4.032-1.28z"></path>
<path fill="#fff" d="M32.768 34.944l-13.056 5.184c-0.384 0.128-0.704 0-0.832-0.384s0-0.704 0.384-0.832l13.056-5.184c0.384-0.128 0.704 0 0.832 0.384s-0.064 0.704-0.384 0.832z"></path>
<path fill="#fff" d="M20.416 42.304c-0.32 0.128-0.576 0-0.768-0.32s-0.064-0.704 0.256-0.896l12.096-7.040c0.256-0.128 0.704-0.064 0.896 0.256 0.128 0.256 0.064 0.704-0.256 0.896l-12.224 7.104c0.064 0 0 0 0 0z"></path>
<path fill="#fff" d="M30.272 19.264c-0.256 0.064-0.576-0.064-0.768-0.256l-4.928-8c-0.192-0.256-0.128-0.704 0.256-0.832 0.256-0.192 0.704-0.128 0.832 0.256l4.928 8c0.192 0.256 0.128 0.704-0.256 0.832 0.064-0.064 0 0-0.064 0z"></path>
<path fill="#fff" d="M36.096 27.392l-6.528-8.384c-0.256-0.32-0.192-0.64 0.128-0.896s0.64-0.192 0.896 0.128l6.528 8.384c0.256 0.32 0.192 0.64-0.128 0.896-0.256 0.256-0.704 0.128-0.896-0.128z"></path>
<path fill="#fff" d="M21.632 13.44c-0.256 0.064-0.576-0.064-0.768-0.256-0.128-0.32-0.064-0.704 0.256-0.832l3.648-2.24c0.32-0.128 0.704-0.064 0.832 0.256s0.064 0.704-0.256 0.832l-3.584 2.24c0 0-0.064 0-0.128 0z"></path>
</svg>
<svg id="icon-gainer25" width="64" height="64" viewBox="0 0 64 64" x="0" y="1600">
<path fill="#fff" d="M32.99 42.291l2.819-15.684 1.26 0.226-2.819 15.684-1.26-0.226z"></path>
<path fill="#fff" d="M24.296 10.532l1.051-0.731 11.655 16.762-1.051 0.731-11.655-16.762z"></path>
<path fill="#fff" d="M30.592 42.24c3.072-1.28 6.656 0.192 7.936 3.328s-0.256 6.656-3.328 7.936c-3.072 1.28-6.656-0.192-7.936-3.328s0.192-6.656 3.328-7.936zM34.688 52.288c2.432-1.024 3.648-3.84 2.624-6.272s-3.84-3.648-6.272-2.624c-2.432 1.024-3.648 3.84-2.624 6.272 1.024 2.368 3.776 3.584 6.272 2.624z"></path>
<path fill="#fff" d="M24.448 9.664c0.32-0.192 0.64-0.128 0.896 0.192 0.192 0.32 0.128 0.64-0.192 0.896l-3.456 2.432c-0.32 0.192-0.64 0.128-0.896-0.192-0.192-0.32-0.128-0.64 0.192-0.896l3.456-2.432z"></path>
<path fill="#fff" d="M34.752 35.84l-11.328 8.384c-0.32 0.256-0.64 0.192-0.896-0.128s-0.192-0.64 0.128-0.896l11.328-8.384c0.32-0.256 0.64-0.192 0.896 0.128s0.128 0.704-0.128 0.896z"></path>
<path fill="#fff" d="M24.64 46.080c-0.256 0.192-0.576 0.128-0.832-0.064s-0.256-0.64 0-0.896l9.92-9.984c0.256-0.256 0.64-0.256 0.896 0s0.256 0.64 0 0.896l-9.984 10.048c0.064 0 0 0 0 0z"></path>
<path fill="#fff" d="M29.248 20.416c-0.256 0.128-0.576 0-0.768-0.192l-5.888-7.296c-0.256-0.256-0.192-0.704 0.128-0.896 0.256-0.256 0.704-0.192 0.896 0.128l5.888 7.296c0.256 0.256 0.192 0.704-0.128 0.896-0.064-0.064-0.064 0-0.128 0.064z"></path>
<path fill="#fff" d="M35.968 27.712l-7.488-7.488c-0.256-0.256-0.256-0.64 0-0.896s0.64-0.256 0.896 0l7.552 7.552c0.256 0.256 0.256 0.64 0 0.896s-0.64 0.192-0.96-0.064z"></path>
<path fill="#fff" d="M19.968 15.68c-0.256 0.128-0.576 0-0.768-0.192-0.192-0.256-0.128-0.704 0.128-0.896l3.328-2.624c0.256-0.192 0.704-0.128 0.896 0.128s0.128 0.704-0.128 0.896l-3.328 2.624c0 0-0.064 0-0.128 0.064z"></path>
</svg>
<svg id="icon-gainer26" width="64" height="64" viewBox="0 0 64 64" x="0" y="1664">
<path fill="#fff" d="M33.31 41.806l-0.094-15.936 1.28-0.008 0.094 15.936-1.28 0.008z"></path>
<path fill="#fff" d="M20.104 11.123l0.96-0.847 13.503 15.314-0.96 0.847-13.503-15.314z"></path>
<path fill="#fff" d="M30.976 42.24c2.816-1.792 6.592-1.024 8.384 1.792s0.96 6.592-1.792 8.384-6.592 1.024-8.384-1.792-1.088-6.528 1.792-8.384zM36.864 51.328c2.176-1.408 2.88-4.416 1.408-6.656-1.408-2.176-4.416-2.88-6.656-1.408-2.176 1.408-2.88 4.416-1.408 6.656s4.352 2.88 6.656 1.408z"></path>
<path fill="#fff" d="M20.16 10.24c0.32-0.256 0.64-0.256 0.896 0.064s0.256 0.64-0.064 0.896l-3.2 2.816c-0.32 0.256-0.64 0.256-0.896-0.064s-0.256-0.64 0.064-0.896l3.2-2.816z"></path>
<path fill="#fff" d="M33.856 35.136l-9.6 10.304c-0.256 0.256-0.64 0.32-0.896 0.064s-0.32-0.64-0.064-0.896l9.6-10.304c0.256-0.256 0.64-0.32 0.896-0.064 0.32 0.256 0.256 0.704 0.064 0.896z"></path>
<path fill="#fff" d="M25.856 47.104c-0.256 0.192-0.576 0.256-0.832 0.064s-0.384-0.576-0.128-0.896l7.872-11.584c0.192-0.256 0.576-0.384 0.896-0.128 0.256 0.192 0.384 0.576 0.128 0.896l-7.936 11.648c0-0.064 0 0 0 0z"></path>
<path fill="#fff" d="M26.688 19.776c-0.256 0.128-0.576 0-0.768-0.192l-5.888-7.296c-0.256-0.256-0.192-0.704 0.128-0.896 0.256-0.256 0.704-0.192 0.896 0.128l5.888 7.296c0.256 0.256 0.192 0.704-0.128 0.896-0.064-0.064-0.064 0-0.128 0.064z"></path>
<path fill="#fff" d="M33.408 27.072l-7.488-7.488c-0.256-0.256-0.256-0.64 0-0.896s0.64-0.256 0.896 0l7.552 7.552c0.256 0.256 0.256 0.64 0 0.896s-0.64 0.192-0.96-0.064z"></path>
<path fill="#fff" d="M17.408 15.040c-0.256 0.128-0.576 0-0.768-0.192-0.192-0.256-0.128-0.704 0.128-0.896l3.328-2.624c0.256-0.192 0.704-0.128 0.896 0.128s0.128 0.704-0.128 0.896l-3.328 2.624c0 0-0.064 0-0.128 0.064z"></path>
</svg>
<svg id="icon-gainer27" width="64" height="64" viewBox="0 0 64 64" x="0" y="1728">
<path fill="#fff" d="M34.715 41.659l-1.359-15.879 1.275-0.109 1.359 15.879-1.275 0.109z"></path>
<path fill="#fff" d="M16.999 15.228l0.73-1.052 16.774 11.637-0.73 1.052-16.774-11.637z"></path>
<path fill="#fff" d="M32.448 42.304c2.624-2.048 6.464-1.536 8.512 1.152s1.472 6.528-1.152 8.512-6.464 1.536-8.512-1.152c-2.048-2.688-1.536-6.464 1.152-8.512zM39.040 50.88c2.112-1.6 2.496-4.672 0.896-6.72-1.6-2.112-4.672-2.496-6.72-0.896s-2.496 4.672-0.896 6.72c1.6 2.048 4.544 2.496 6.72 0.896z"></path>
<path fill="#fff" d="M16.832 14.336c0.192-0.32 0.576-0.384 0.896-0.192s0.384 0.576 0.192 0.896l-2.432 3.52c-0.192 0.32-0.576 0.384-0.896 0.192s-0.384-0.576-0.192-0.896l2.432-3.52z"></path>
<path fill="#fff" d="M34.752 35.008l-8.768 11.072c-0.256 0.32-0.576 0.32-0.896 0.128-0.32-0.256-0.32-0.576-0.128-0.896l8.768-11.072c0.256-0.32 0.576-0.32 0.896-0.128 0.32 0.256 0.32 0.64 0.128 0.896z"></path>
<path fill="#fff" d="M27.712 47.552c-0.192 0.256-0.512 0.32-0.832 0.128-0.256-0.192-0.448-0.576-0.192-0.896l6.976-12.16c0.192-0.256 0.576-0.448 0.896-0.192 0.256 0.192 0.448 0.576 0.192 0.896l-7.040 12.224c0.064-0.064 0 0 0 0z"></path>
<path fill="#fff" d="M26.688 19.776c-0.256 0.128-0.576 0-0.768-0.192l-5.888-7.296c-0.256-0.256-0.192-0.704 0.128-0.896 0.256-0.256 0.704-0.192 0.896 0.128l5.888 7.296c0.256 0.256 0.192 0.704-0.128 0.896-0.064-0.064-0.064 0-0.128 0.064z"></path>
<path fill="#fff" d="M33.408 27.072l-7.488-7.488c-0.256-0.256-0.256-0.64 0-0.896s0.64-0.256 0.896 0l7.552 7.552c0.256 0.256 0.256 0.64 0 0.896s-0.64 0.192-0.96-0.064z"></path>
<path fill="#fff" d="M17.408 15.040c-0.256 0.128-0.576 0-0.768-0.192-0.192-0.256-0.128-0.704 0.128-0.896l3.328-2.624c0.256-0.192 0.704-0.128 0.896 0.128s0.128 0.704-0.128 0.896l-3.328 2.624c0 0-0.064 0-0.128 0.064z"></path>
</svg>
<svg id="icon-gainer28" width="64" height="64" viewBox="0 0 64 64" x="0" y="1792">
<path fill="#fff" d="M36.191 41.575l-2.685-15.708 1.262-0.216 2.685 15.708-1.262 0.216z"></path>
<path fill="#fff" d="M16.218 17.401l0.6-1.131 18.033 9.569-0.6 1.131-18.033-9.569z"></path>
<path fill="#fff" d="M33.984 42.368c2.496-2.24 6.336-2.112 8.576 0.448s2.048 6.336-0.448 8.576-6.336 2.112-8.576-0.448c-2.24-2.496-2.048-6.272 0.448-8.576zM41.216 50.368c1.92-1.792 2.112-4.864 0.32-6.784s-4.864-2.112-6.784-0.32c-1.92 1.792-2.112 4.864-0.32 6.784s4.8 2.112 6.784 0.32z"></path>
<path fill="#fff" d="M15.936 16.576c0.192-0.32 0.512-0.448 0.896-0.256 0.32 0.192 0.448 0.512 0.256 0.896l-1.984 3.712c-0.192 0.32-0.512 0.448-0.896 0.256s-0.448-0.512-0.256-0.896l1.984-3.712z"></path>
<path fill="#fff" d="M35.648 34.944l-7.808 11.712c-0.192 0.32-0.576 0.384-0.896 0.192s-0.384-0.576-0.192-0.896l7.808-11.712c0.192-0.32 0.576-0.384 0.896-0.192s0.384 0.576 0.192 0.896z"></path>
<path fill="#fff" d="M29.696 48c-0.192 0.256-0.512 0.32-0.768 0.192s-0.512-0.512-0.32-0.896l5.888-12.736c0.128-0.32 0.512-0.512 0.896-0.32 0.32 0.128 0.512 0.512 0.32 0.896l-6.016 12.864c0.064-0.064 0 0 0 0z"></path>
<path fill="#fff" d="M26.688 19.776c-0.256 0.128-0.576 0-0.768-0.192l-5.888-7.296c-0.256-0.256-0.192-0.704 0.128-0.896 0.256-0.256 0.704-0.192 0.896 0.128l5.888 7.296c0.256 0.256 0.192 0.704-0.128 0.896-0.064-0.064-0.064 0-0.128 0.064z"></path>
<path fill="#fff" d="M33.408 27.072l-7.488-7.488c-0.256-0.256-0.256-0.64 0-0.896s0.64-0.256 0.896 0l7.552 7.552c0.256 0.256 0.256 0.64 0 0.896s-0.64 0.192-0.96-0.064z"></path>
<path fill="#fff" d="M17.408 15.040c-0.256 0.128-0.576 0-0.768-0.192-0.192-0.256-0.128-0.704 0.128-0.896l3.328-2.624c0.256-0.192 0.704-0.128 0.896 0.128s0.128 0.704-0.128 0.896l-3.328 2.624c0 0-0.064 0-0.128 0.064z"></path>
</svg>
<svg id="icon-gainer29" width="64" height="64" viewBox="0 0 64 64" x="0" y="1856">
<path fill="#fff" d="M37.774 41.433l-4.66-15.24 1.224-0.374 4.66 15.24-1.224 0.374z"></path>
<path fill="#fff" d="M14.747 20.614l0.417-1.21 19.301 6.656-0.417 1.21-19.301-6.656z"></path>
<path fill="#fff" d="M35.648 42.496c2.176-2.56 6.016-2.88 8.576-0.64s2.816 6.016 0.64 8.576c-2.176 2.56-6.016 2.88-8.576 0.64s-2.816-5.952-0.64-8.576zM43.904 49.536c1.728-1.984 1.472-5.056-0.512-6.784s-5.056-1.472-6.784 0.512-1.472 5.056 0.512 6.784c1.984 1.728 4.992 1.536 6.784-0.512z"></path>
<path fill="#fff" d="M14.336 19.84c0.128-0.384 0.448-0.512 0.832-0.384s0.512 0.448 0.384 0.832l-1.408 3.968c-0.128 0.384-0.448 0.512-0.832 0.384s-0.512-0.448-0.384-0.832l1.408-3.968z"></path>
<path fill="#fff" d="M36.416 34.944l-6.208 12.608c-0.192 0.32-0.512 0.448-0.832 0.32s-0.448-0.512-0.32-0.832l6.208-12.608c0.192-0.32 0.512-0.448 0.832-0.32s0.448 0.512 0.32 0.832z"></path>
<path fill="#fff" d="M32.128 48.64c-0.192 0.256-0.448 0.384-0.768 0.32s-0.512-0.448-0.384-0.832l4.224-13.376c0.128-0.32 0.448-0.512 0.832-0.384 0.32 0.128 0.512 0.448 0.384 0.832l-4.288 13.44c0.064-0.064 0 0 0 0z"></path>
<path fill="#fff" d="M26.688 19.776c-0.256 0.128-0.576 0-0.768-0.192l-5.888-7.296c-0.256-0.256-0.192-0.704 0.128-0.896 0.256-0.256 0.704-0.192 0.896 0.128l5.888 7.296c0.256 0.256 0.192 0.704-0.128 0.896-0.064-0.064-0.064 0-0.128 0.064z"></path>
<path fill="#fff" d="M33.408 27.072l-7.488-7.488c-0.256-0.256-0.256-0.64 0-0.896s0.64-0.256 0.896 0l7.552 7.552c0.256 0.256 0.256 0.64 0 0.896s-0.64 0.192-0.96-0.064z"></path>
<path fill="#fff" d="M17.408 15.040c-0.256 0.128-0.576 0-0.768-0.192-0.192-0.256-0.128-0.704 0.128-0.896l3.328-2.624c0.256-0.192 0.704-0.128 0.896 0.128s0.128 0.704-0.128 0.896l-3.328 2.624c0 0-0.064 0-0.128 0.064z"></path>
</svg>
<svg id="icon-gainer30" width="64" height="64" viewBox="0 0 64 64" x="0" y="1920">
<path fill="#fff" d="M39.031 40.176l-6.795-14.414 1.158-0.546 6.795 14.414-1.158 0.546z"></path>
<path fill="#fff" d="M12.953 25.509l0.062-1.278 20.392 0.988-0.062 1.278-20.392-0.988z"></path>
<path fill="#fff" d="M37.12 41.536c1.792-2.816 5.504-3.712 8.384-1.92s3.648 5.568 1.92 8.384-5.504 3.712-8.384 1.92c-2.88-1.792-3.712-5.504-1.92-8.384zM46.272 47.36c1.408-2.24 0.704-5.248-1.472-6.592s-5.248-0.704-6.592 1.472-0.704 5.248 1.472 6.592 5.184 0.768 6.592-1.472z"></path>
<path fill="#fff" d="M12.352 24.896c0-0.384 0.256-0.64 0.64-0.64s0.64 0.256 0.64 0.64l-0.192 4.224c0 0.384-0.256 0.64-0.64 0.64s-0.64-0.256-0.64-0.64l0.192-4.224z"></path>
<path fill="#fff" d="M36.736 33.92l-4.352 13.376c-0.128 0.384-0.448 0.512-0.832 0.384s-0.512-0.448-0.384-0.832l4.352-13.376c0.128-0.384 0.448-0.512 0.832-0.384s0.512 0.512 0.384 0.832z"></path>
<path fill="#fff" d="M34.496 48.128c-0.128 0.32-0.384 0.448-0.704 0.384s-0.576-0.384-0.512-0.768l2.304-13.824c0.064-0.32 0.384-0.576 0.768-0.512 0.32 0.064 0.576 0.384 0.512 0.768l-2.368 13.952c0.064-0.064 0 0 0 0z"></path>
<path fill="#fff" d="M24.96 20.288c-0.192 0.128-0.512 0.128-0.768-0.064l-6.848-6.4c-0.256-0.192-0.32-0.64 0-0.896 0.192-0.256 0.64-0.32 0.896 0l6.848 6.4c0.256 0.192 0.32 0.64 0 0.896-0.064 0-0.064 0.064-0.128 0.064z"></path>
<path fill="#fff" d="M32.704 26.56l-8.512-6.4c-0.32-0.256-0.384-0.576-0.128-0.896s0.576-0.32 0.896-0.064l8.576 6.4c0.32 0.256 0.384 0.576 0.128 0.896s-0.64 0.32-0.96 0.064z"></path>
<path fill="#fff" d="M15.168 16.96c-0.192 0.128-0.512 0.128-0.768-0.064-0.192-0.256-0.256-0.64 0-0.896l2.944-3.072c0.256-0.192 0.64-0.256 0.896 0 0.192 0.256 0.256 0.64 0 0.896l-2.944 3.072c-0.064 0-0.128 0-0.128 0.064z"></path>
</svg>
<svg id="icon-gainer31" width="64" height="64" viewBox="0 0 64 64" x="0" y="1984">
<path fill="#fff" d="M40.724 38.032l-9.842-12.534 1.007-0.791 9.842 12.534-1.007 0.791z"></path>
<path fill="#fff" d="M11.975 29.55l-0.225-1.26 20.097-3.591 0.225 1.26-20.098 3.591z"></path>
<path fill="#fff" d="M39.104 39.744c1.088-3.136 4.544-4.864 7.744-3.712s4.8 4.608 3.712 7.744c-1.088 3.136-4.544 4.864-7.744 3.712-3.2-1.088-4.8-4.544-3.712-7.744zM49.344 43.328c0.896-2.496-0.448-5.248-2.944-6.144s-5.248 0.448-6.144 2.944c-0.896 2.496 0.448 5.248 2.944 6.144s5.248-0.384 6.144-2.944z"></path>
<path fill="#fff" d="M11.264 29.056c-0.064-0.384 0.128-0.704 0.512-0.768s0.704 0.128 0.768 0.512l0.768 4.16c0.064 0.384-0.128 0.704-0.512 0.768s-0.704-0.128-0.768-0.512l-0.768-4.16z"></path>
<path fill="#fff" d="M37.056 32.448l-1.28 14.016c-0.064 0.384-0.32 0.64-0.704 0.576s-0.64-0.32-0.576-0.704l1.28-14.016c0.064-0.384 0.32-0.64 0.704-0.576 0.384 0 0.64 0.384 0.576 0.704z"></path>
<path fill="#fff" d="M38.080 46.784c-0.064 0.32-0.256 0.512-0.576 0.576s-0.704-0.256-0.704-0.64l-0.896-14.016c0-0.32 0.256-0.704 0.64-0.704 0.32 0 0.704 0.256 0.704 0.64l0.832 14.144c0-0.064 0 0 0 0z"></path>
<path fill="#fff" d="M22.528 21.76c-0.192 0.192-0.512 0.192-0.768 0.128l-8.128-4.736c-0.32-0.128-0.448-0.512-0.192-0.832 0.128-0.32 0.576-0.448 0.896-0.192l8.064 4.672c0.32 0.128 0.448 0.576 0.192 0.896 0-0.064 0 0.064-0.064 0.064z"></path>
<path fill="#fff" d="M31.488 26.176l-9.728-4.288c-0.32-0.128-0.512-0.512-0.32-0.832s0.512-0.512 0.832-0.32l9.792 4.352c0.32 0.128 0.512 0.512 0.32 0.832s-0.576 0.384-0.896 0.256z"></path>
<path fill="#fff" d="M12.224 20.672c-0.192 0.192-0.512 0.192-0.768 0.128-0.256-0.192-0.384-0.576-0.192-0.896l2.176-3.648c0.192-0.256 0.576-0.384 0.896-0.192 0.256 0.192 0.384 0.576 0.192 0.896l-2.176 3.648c-0.064 0-0.128 0.064-0.128 0.064z"></path>
</svg>
<svg id="icon-gainer32" width="64" height="64" viewBox="0 0 64 64" x="0" y="2048">
<path fill="#fff" d="M43.969 35.076l-13.127-9.036 0.726-1.054 13.126 9.036-0.726 1.054z"></path>
<path fill="#fff" d="M15.207 37.435l-0.741-1.044 16.645-11.823 0.741 1.044-16.645 11.823z"></path>
<path fill="#fff" d="M43.008 37.184c0.128-3.328 2.88-5.952 6.272-5.824s5.952 2.944 5.824 6.272c-0.064 3.328-2.88 6.016-6.272 5.888s-5.952-2.944-5.824-6.336zM53.824 37.632c0.064-2.624-1.984-4.864-4.608-4.992s-4.864 1.984-4.992 4.608 1.984 4.864 4.608 4.992c2.624 0.064 4.864-1.92 4.992-4.608z"></path>
<path fill="#fff" d="M14.336 37.312c-0.192-0.32-0.192-0.64 0.128-0.896 0.32-0.192 0.64-0.192 0.896 0.128l2.432 3.456c0.192 0.32 0.192 0.64-0.128 0.896-0.32 0.192-0.64 0.192-0.896-0.128l-2.432-3.456z"></path>
<path fill="#fff" d="M40.256 31.232l0.192 14.080c0 0.384-0.256 0.64-0.64 0.64s-0.64-0.256-0.64-0.64l-0.192-14.080c0-0.384 0.256-0.64 0.64-0.64s0.64 0.32 0.64 0.64z"></path>
<path fill="#fff" d="M42.752 45.376c0 0.32-0.192 0.576-0.576 0.64-0.32 0.064-0.704-0.192-0.768-0.576l-2.304-13.824c-0.064-0.32 0.192-0.704 0.576-0.768 0.32-0.064 0.704 0.192 0.768 0.576l2.304 13.952c0-0.064 0 0 0 0z"></path>
<path fill="#fff" d="M21.952 22.336c-0.192 0.192-0.512 0.256-0.768 0.192l-8.512-3.968c-0.32-0.128-0.512-0.512-0.256-0.832 0.128-0.32 0.512-0.512 0.832-0.256l8.512 3.968c0.32 0.128 0.512 0.512 0.256 0.832 0-0.064 0 0.064-0.064 0.064z"></path>
<path fill="#fff" d="M31.232 25.92l-10.048-3.456c-0.384-0.128-0.512-0.448-0.384-0.832s0.448-0.512 0.832-0.384l10.112 3.456c0.384 0.128 0.512 0.448 0.384 0.832s-0.512 0.512-0.896 0.384z"></path>
<path fill="#fff" d="M11.584 22.144c-0.192 0.192-0.512 0.256-0.768 0.192-0.256-0.192-0.448-0.576-0.256-0.832l1.856-3.84c0.192-0.256 0.576-0.448 0.832-0.256s0.448 0.576 0.256 0.832l-1.856 3.84c0 0-0.064 0.064-0.064 0.064z"></path>
</svg>
<svg id="icon-gainer33" width="64" height="64" viewBox="0 0 64 64" x="0" y="2112">
<path fill="#fff" d="M44.372 33.245l-14.401-6.824 0.548-1.157 14.401 6.824-0.548 1.157z"></path>
<path fill="#fff" d="M16.361 40.194l-0.898-0.912 14.542-14.33 0.898 0.912-14.542 14.33z"></path>
<path fill="#fff" d="M43.776 35.52c-0.384-3.328 1.92-6.336 5.312-6.784s6.4 1.984 6.784 5.312c0.384 3.328-1.92 6.336-5.312 6.784-3.392 0.384-6.4-1.984-6.784-5.312zM54.464 34.176c-0.32-2.624-2.752-4.48-5.376-4.16s-4.48 2.752-4.16 5.376c0.32 2.624 2.752 4.48 5.376 4.16s4.544-2.688 4.16-5.376z"></path>
<path fill="#fff" d="M15.488 40.192c-0.256-0.256-0.256-0.64 0-0.896s0.64-0.256 0.896 0l2.944 3.008c0.256 0.256 0.256 0.64 0 0.896s-0.64 0.256-0.896 0l-2.944-3.008z"></path>
<path fill="#fff" d="M41.536 31.36l-2.816 13.76c-0.064 0.384-0.384 0.576-0.768 0.512s-0.576-0.384-0.512-0.768l2.816-13.76c0.064-0.384 0.384-0.576 0.768-0.512s0.576 0.448 0.512 0.768z"></path>
<path fill="#fff" d="M40.896 45.76c-0.064 0.32-0.32 0.512-0.64 0.448-0.32 0-0.64-0.32-0.576-0.704l0.704-14.016c0-0.32 0.32-0.64 0.704-0.576 0.32 0 0.64 0.32 0.576 0.704l-0.768 14.144c0.064-0.064 0 0 0 0z"></path>
<path fill="#fff" d="M20.608 24.192c-0.128 0.192-0.448 0.32-0.704 0.32l-9.024-2.56c-0.32-0.064-0.576-0.448-0.384-0.768 0.064-0.32 0.448-0.576 0.768-0.384l9.024 2.56c0.32 0.064 0.576 0.448 0.384 0.768-0.064-0.064 0 0-0.064 0.064z"></path>
<path fill="#fff" d="M30.336 26.304l-10.496-1.792c-0.384-0.064-0.576-0.384-0.512-0.768s0.384-0.576 0.768-0.512l10.56 1.792c0.384 0.064 0.576 0.384 0.512 0.768s-0.448 0.576-0.832 0.512z"></path>
<path fill="#fff" d="M10.304 25.664c-0.128 0.192-0.448 0.32-0.704 0.32-0.32-0.128-0.512-0.512-0.384-0.768l1.216-4.096c0.128-0.32 0.512-0.512 0.768-0.384 0.32 0.128 0.512 0.512 0.384 0.768l-1.216 4.096c0 0 0 0-0.064 0.064z"></path>
</svg>
<svg id="icon-gainer34" width="64" height="64" viewBox="0 0 64 64" x="0" y="2176">
<path fill="#fff" d="M44.647 28.96l-15.793-2.139 0.172-1.268 15.793 2.139-0.172 1.268z"></path>
<path fill="#fff" d="M19.934 44.236l-1.125-0.611 9.741-17.944 1.125 0.611-9.741 17.944z"></path>
<path fill="#fff" d="M44.736 31.296c-1.408-3.008-0.128-6.656 3.008-8.064s6.656 0 8.064 3.008 0.128 6.656-3.008 8.064-6.592 0.064-8.064-3.008zM54.592 26.816c-1.088-2.368-3.968-3.456-6.4-2.368s-3.456 3.968-2.368 6.4c1.088 2.368 3.968 3.456 6.4 2.368 2.368-1.152 3.52-3.968 2.368-6.4z"></path>
<path fill="#fff" d="M19.072 44.48c-0.32-0.192-0.448-0.512-0.256-0.896 0.192-0.32 0.512-0.448 0.896-0.256l3.712 1.984c0.32 0.192 0.448 0.512 0.256 0.896-0.192 0.32-0.512 0.448-0.896 0.256l-3.712-1.984z"></path>
<path fill="#fff" d="M41.984 27.904l-2.368 13.888c-0.064 0.384-0.384 0.576-0.768 0.512s-0.576-0.384-0.512-0.768l2.368-13.888c0.064-0.384 0.384-0.576 0.768-0.512s0.576 0.448 0.512 0.768z"></path>
<path fill="#fff" d="M41.856 42.304c-0.064 0.32-0.32 0.512-0.64 0.512s-0.64-0.32-0.64-0.704l0.256-14.016c0-0.32 0.32-0.64 0.704-0.64 0.32 0 0.64 0.32 0.64 0.704l-0.32 14.144c0-0.064 0 0 0 0z"></path>
<path fill="#fff" d="M19.264 26.24c-0.128 0.256-0.384 0.384-0.64 0.448l-9.344-1.088c-0.32 0-0.64-0.32-0.512-0.704 0-0.32 0.32-0.64 0.704-0.512l9.344 1.088c0.32 0 0.64 0.32 0.512 0.704-0.064-0.064 0 0-0.064 0.064z"></path>
<path fill="#fff" d="M29.184 26.752l-10.624-0.128c-0.384 0-0.64-0.256-0.64-0.64s0.256-0.64 0.64-0.64l10.688 0.064c0.384 0 0.64 0.256 0.64 0.64 0 0.448-0.32 0.704-0.704 0.704z"></path>
<path fill="#fff" d="M9.344 29.376c-0.128 0.256-0.384 0.384-0.64 0.448-0.32-0.064-0.576-0.384-0.512-0.704l0.512-4.224c0.064-0.32 0.384-0.576 0.704-0.512s0.576 0.384 0.512 0.704l-0.512 4.224c0-0.064 0 0-0.064 0.064z"></path>
</svg>
<svg id="icon-gainer35" width="64" height="64" viewBox="0 0 64 64" x="0" y="2240">
<path fill="#fff" d="M42.136 21.93l-14.787 5.944-0.477-1.188 14.787-5.944 0.477 1.188z"></path>
<path fill="#fff" d="M21.996 46.388l-1.221-0.386 6.153-19.467 1.221 0.386-6.153 19.467z"></path>
<path fill="#fff" d="M43.392 23.936c-2.688-1.92-3.392-5.696-1.408-8.512s5.76-3.328 8.512-1.408 3.392 5.696 1.408 8.512-5.76 3.392-8.512 1.408zM49.664 15.168c-2.112-1.536-5.184-1.024-6.72 1.088s-1.024 5.184 1.088 6.72 5.184 1.024 6.72-1.088 1.152-5.184-1.088-6.72z"></path>
<path fill="#fff" d="M21.184 46.784c-0.384-0.128-0.512-0.448-0.448-0.832 0.128-0.384 0.448-0.512 0.832-0.448l4.032 1.28c0.384 0.128 0.512 0.448 0.448 0.832-0.128 0.384-0.448 0.512-0.832 0.448l-4.032-1.28z"></path>
<path fill="#fff" d="M39.040 23.104l0.448 14.080c0 0.384-0.256 0.64-0.64 0.64s-0.64-0.256-0.64-0.64l-0.448-14.080c0-0.384 0.256-0.64 0.64-0.64s0.64 0.32 0.64 0.64z"></path>
<path fill="#fff" d="M41.728 37.184c0 0.32-0.192 0.576-0.512 0.64s-0.704-0.128-0.768-0.512l-2.56-13.824c-0.064-0.32 0.128-0.704 0.512-0.768 0.32-0.064 0.704 0.128 0.768 0.512l2.56 13.952c0-0.064 0 0 0 0z"></path>
<path fill="#fff" d="M17.92 28.864c-0.064 0.256-0.32 0.448-0.576 0.512l-9.344 0.704c-0.32 0.064-0.704-0.192-0.64-0.576-0.064-0.32 0.192-0.704 0.576-0.64l9.344-0.704c0.32-0.064 0.704 0.192 0.64 0.576-0.064 0 0 0.064 0 0.128z"></path>
<path fill="#fff" d="M27.776 27.456l-10.432 1.92c-0.384 0.064-0.704-0.128-0.768-0.512s0.128-0.704 0.512-0.768l10.496-1.92c0.384-0.064 0.704 0.128 0.768 0.512s-0.192 0.704-0.576 0.768z"></path>
<path fill="#fff" d="M8.768 33.856c-0.064 0.256-0.32 0.448-0.576 0.512-0.32 0-0.64-0.256-0.64-0.576l-0.256-4.224c0-0.32 0.256-0.64 0.576-0.64s0.64 0.256 0.64 0.576l0.256 4.224c0 0 0 0.064 0 0.128z"></path>
</svg>
<svg id="icon-gainer36" width="64" height="64" viewBox="0 0 64 64" x="0" y="2304">
<path fill="#fff" d="M39.535 18.592l-12.596 9.762-0.784-1.012 12.596-9.762 0.784 1.012z"></path>
<path fill="#fff" d="M24.778 47.503l-1.268-0.175 2.789-20.224 1.268 0.175-2.789 20.224z"></path>
<path fill="#fff" d="M41.28 20.16c-3.136-1.152-4.8-4.608-3.648-7.808s4.672-4.8 7.808-3.648c3.136 1.152 4.8 4.608 3.648 7.808-1.152 3.136-4.608 4.8-7.808 3.648zM44.928 9.984c-2.496-0.896-5.248 0.448-6.144 2.88-0.896 2.496 0.448 5.248 2.88 6.144s5.248-0.448 6.144-2.88-0.32-5.248-2.88-6.144z"></path>
<path fill="#fff" d="M24.064 48.064c-0.384-0.064-0.576-0.32-0.576-0.704s0.32-0.576 0.704-0.576l4.16 0.576c0.384 0.064 0.576 0.32 0.576 0.704-0.064 0.384-0.32 0.576-0.704 0.576l-4.16-0.576z"></path>
<path fill="#fff" d="M36.48 20.736l1.216 14.016c0.064 0.384-0.192 0.64-0.576 0.704s-0.64-0.192-0.704-0.576l-1.216-14.016c-0.064-0.384 0.192-0.64 0.576-0.704 0.384 0 0.704 0.256 0.704 0.576z"></path>
<path fill="#fff" d="M40 34.688c0 0.32-0.192 0.576-0.512 0.64s-0.704-0.128-0.768-0.512l-3.328-13.632c-0.064-0.32 0.128-0.704 0.512-0.768 0.32-0.064 0.704 0.128 0.768 0.512l3.328 13.76c0-0.064 0 0 0 0z"></path>
<path fill="#fff" d="M17.792 30.976c0 0.256-0.192 0.512-0.448 0.64l-9.088 2.304c-0.32 0.128-0.704-0.064-0.768-0.448-0.128-0.32 0.064-0.704 0.448-0.768l9.088-2.304c0.32-0.128 0.704 0.064 0.768 0.448-0.064 0 0 0.064 0 0.128z"></path>
<path fill="#fff" d="M27.264 27.904l-9.984 3.648c-0.384 0.128-0.704 0-0.832-0.384s0-0.704 0.384-0.832l10.048-3.648c0.384-0.128 0.704 0 0.832 0.384 0.128 0.32-0.064 0.704-0.448 0.832z"></path>
<path fill="#fff" d="M9.664 37.376c0 0.256-0.192 0.512-0.448 0.64-0.32 0.064-0.704-0.128-0.768-0.448l-1.024-4.16c-0.064-0.32 0.128-0.704 0.448-0.768s0.704 0.128 0.768 0.448l1.024 4.16c0 0 0 0.064 0 0.128z"></path>
</svg>
<svg id="icon-gainer37" width="64" height="64" viewBox="0 0 64 64" x="0" y="2368">
<path fill="#fff" d="M38.717 17.746l-11.793 10.719-0.861-0.947 11.793-10.719 0.861 0.947z"></path>
<path fill="#fff" d="M26.276 47.736l-1.278-0.075 1.196-20.381 1.278 0.075-1.196 20.381z"></path>
<path fill="#fff" d="M40.576 19.136c-3.2-0.896-5.184-4.224-4.288-7.488s4.288-5.12 7.488-4.288c3.2 0.896 5.184 4.224 4.288 7.488s-4.224 5.184-7.488 4.288zM43.456 8.704c-2.56-0.704-5.184 0.832-5.888 3.392s0.832 5.184 3.392 5.888 5.184-0.832 5.888-3.392-0.832-5.184-3.392-5.888z"></path>
<path fill="#fff" d="M25.6 48.384c-0.384 0-0.64-0.32-0.576-0.704 0-0.384 0.32-0.64 0.704-0.576l4.224 0.256c0.384 0 0.64 0.32 0.576 0.704s-0.32 0.64-0.704 0.576l-4.224-0.256z"></path>
<path fill="#fff" d="M35.328 21.12l-3.84 13.568c-0.128 0.384-0.448 0.576-0.768 0.448-0.384-0.128-0.576-0.448-0.448-0.768l3.84-13.568c0.128-0.384 0.448-0.576 0.768-0.448s0.512 0.512 0.448 0.768z"></path>
<path fill="#fff" d="M33.6 35.456c-0.128 0.32-0.384 0.448-0.704 0.448-0.32-0.064-0.64-0.384-0.576-0.768l1.728-13.952c0.064-0.32 0.384-0.64 0.768-0.576 0.32 0.064 0.64 0.384 0.576 0.768l-1.792 14.080c0.064-0.064 0 0 0 0z"></path>
<path fill="#fff" d="M18.048 31.808c0 0.256-0.192 0.512-0.448 0.64l-8.896 3.008c-0.32 0.128-0.704-0.064-0.768-0.448-0.128-0.32 0.064-0.704 0.448-0.768l8.896-3.008c0.32-0.128 0.704 0.064 0.768 0.448-0.064 0 0 0.064 0 0.128z"></path>
<path fill="#fff" d="M27.264 27.968l-9.664 4.416c-0.32 0.192-0.704 0.064-0.832-0.32-0.192-0.32-0.064-0.704 0.32-0.832l9.728-4.48c0.32-0.192 0.704-0.064 0.832 0.32s-0.064 0.768-0.384 0.896z"></path>
<path fill="#fff" d="M10.368 38.848c0 0.256-0.192 0.512-0.448 0.64-0.32 0.064-0.704-0.128-0.768-0.448l-1.344-4.032c-0.064-0.32 0.128-0.704 0.448-0.768s0.704 0.128 0.768 0.448l1.344 4.032c0 0 0 0.064 0 0.128z"></path>
</svg>
<svg id="icon-gainer38" width="64" height="64" viewBox="0 0 64 64" x="0" y="2432">
<path fill="#fff" d="M37.832 16.828l-10.844 11.676-0.938-0.871 10.844-11.676 0.938 0.871z"></path>
<path fill="#fff" d="M27.944 47.807l-1.28 0.033-0.53-20.41 1.28-0.033 0.53 20.41z"></path>
<path fill="#fff" d="M39.808 18.112c-3.264-0.576-5.504-3.712-4.864-7.104 0.64-3.328 3.776-5.504 7.104-4.864 3.264 0.576 5.504 3.712 4.864 7.104-0.64 3.328-3.776 5.504-7.104 4.864zM41.728 7.488c-2.56-0.448-5.12 1.28-5.568 3.84s1.28 5.12 3.84 5.568 5.12-1.28 5.568-3.84-1.152-5.056-3.84-5.568z"></path>
<path fill="#fff" d="M27.392 48.512c-0.384 0-0.64-0.256-0.64-0.64s0.256-0.64 0.64-0.64l4.224-0.128c0.384 0 0.64 0.256 0.64 0.64s-0.256 0.64-0.64 0.64l-4.224 0.128z"></path>
<path fill="#fff" d="M34.816 20.16l-6.656 12.416c-0.192 0.32-0.512 0.448-0.896 0.256s-0.448-0.512-0.256-0.896l6.656-12.416c0.192-0.32 0.512-0.448 0.896-0.256 0.32 0.192 0.384 0.64 0.256 0.896z"></path>
<path fill="#fff" d="M30.080 33.728c-0.192 0.256-0.448 0.384-0.768 0.256s-0.512-0.512-0.384-0.832l4.672-13.248c0.128-0.32 0.512-0.512 0.832-0.384s0.512 0.512 0.384 0.832l-4.736 13.376c0.064 0 0 0 0 0z"></path>
<path fill="#fff" d="M17.28 31.552c-0.064 0.256-0.384 0.384-0.64 0.448l-9.344-0.768c-0.32 0-0.64-0.32-0.576-0.704 0-0.32 0.32-0.64 0.704-0.576l9.344 0.768c0.32 0 0.64 0.32 0.576 0.704-0.064 0-0.064 0.064-0.064 0.128z"></path>
<path fill="#fff" d="M27.072 28.672l-10.112 3.2c-0.384 0.128-0.704-0.064-0.832-0.448s0.064-0.704 0.448-0.832l10.176-3.2c0.384-0.128 0.704 0.064 0.832 0.448s-0.128 0.768-0.512 0.832z"></path>
<path fill="#fff" d="M7.488 35.008c-0.064 0.256-0.384 0.384-0.64 0.448-0.32-0.064-0.64-0.384-0.576-0.704l0.384-4.224c0.064-0.32 0.384-0.64 0.704-0.576s0.64 0.384 0.576 0.704l-0.384 4.224c-0.064 0-0.064 0.064-0.064 0.128z"></path>
</svg>
<svg id="icon-gainer39" width="64" height="64" viewBox="0 0 64 64" x="0" y="2496">
<path fill="#fff" d="M36.969 16.165l-10.151 12.284-0.987-0.815 10.151-12.284 0.987 0.815z"></path>
<path fill="#fff" d="M27.944 47.807l-1.28 0.033-0.53-20.41 1.28-0.033 0.53 20.41z"></path>
<path fill="#fff" d="M39.040 17.28c-3.328-0.384-5.696-3.392-5.312-6.784s3.456-5.696 6.784-5.312c3.328 0.384 5.696 3.392 5.312 6.784s-3.392 5.76-6.784 5.312zM40.384 6.592c-2.624-0.32-5.056 1.536-5.376 4.16s1.536 5.056 4.16 5.376 5.056-1.536 5.376-4.16-1.472-5.056-4.16-5.376z"></path>
<path fill="#fff" d="M27.392 48.512c-0.384 0-0.64-0.256-0.64-0.64s0.256-0.64 0.64-0.64l4.224-0.128c0.384 0 0.64 0.256 0.64 0.64s-0.256 0.64-0.64 0.64l-4.224 0.128z"></path>
<path fill="#fff" d="M33.536 20.352l-9.344 10.56c-0.256 0.256-0.64 0.32-0.896 0.064s-0.32-0.64-0.064-0.896l9.344-10.56c0.256-0.256 0.64-0.32 0.896-0.064 0.32 0.256 0.32 0.704 0.064 0.896z"></path>
<path fill="#fff" d="M25.856 32.512c-0.256 0.256-0.576 0.256-0.832 0.064s-0.384-0.576-0.192-0.896l7.616-11.776c0.192-0.256 0.576-0.384 0.896-0.192 0.256 0.192 0.384 0.576 0.192 0.896l-7.68 11.904c0.064-0.064 0 0 0 0z"></path>
<path fill="#fff" d="M17.28 31.36c-0.128 0.192-0.448 0.32-0.704 0.32l-9.024-2.752c-0.32-0.064-0.576-0.448-0.384-0.768 0.064-0.32 0.448-0.576 0.768-0.384l9.024 2.752c0.32 0.064 0.576 0.448 0.384 0.768 0-0.064 0 0.064-0.064 0.064z"></path>
<path fill="#fff" d="M27.328 29.44l-10.368 2.176c-0.384 0.064-0.704-0.128-0.768-0.512s0.128-0.704 0.512-0.768l10.432-2.176c0.384-0.064 0.704 0.128 0.768 0.512s-0.192 0.704-0.576 0.768z"></path>
<path fill="#fff" d="M6.976 32.704c-0.128 0.192-0.448 0.32-0.704 0.32-0.32-0.128-0.512-0.512-0.384-0.768l1.28-4.032c0.128-0.32 0.512-0.512 0.768-0.384 0.32 0.128 0.512 0.512 0.384 0.768l-1.28 4.032c0-0.064 0 0-0.064 0.064z"></path>
</svg>
<svg id="icon-gainer40" width="64" height="64" viewBox="0 0 64 64" x="0" y="2560">
<path fill="#fff" d="M33.152 20.352l-12.224 6.912c-0.32 0.192-0.704 0.064-0.896-0.256s-0.064-0.704 0.256-0.896l12.224-6.912c0.32-0.192 0.704-0.064 0.896 0.256 0.192 0.384 0 0.768-0.256 0.896z"></path>
<path fill="#fff" d="M21.888 29.312c-0.32 0.128-0.576 0.064-0.768-0.192s-0.192-0.704 0.128-0.896l11.008-8.64c0.256-0.192 0.704-0.192 0.896 0.128 0.192 0.256 0.192 0.704-0.128 0.896l-11.136 8.704c0.064 0 0 0 0 0z"></path>
<path fill="#fff" d="M16.576 29.568c-0.192 0.192-0.448 0.256-0.768 0.192l-8.64-3.648c-0.32-0.128-0.512-0.512-0.32-0.832 0.064-0.32 0.512-0.512 0.832-0.32l8.64 3.648c0.32 0.128 0.512 0.512 0.32 0.832-0.064 0-0.064 0.064-0.064 0.128z"></path>
<path fill="#fff" d="M26.688 28.672l-10.56 1.024c-0.384 0.064-0.64-0.192-0.704-0.576s0.192-0.64 0.576-0.704l10.624-1.088c0.384-0.064 0.64 0.192 0.704 0.576 0.064 0.448-0.256 0.768-0.64 0.768z"></path>
<path fill="#fff" d="M6.144 29.76c-0.192 0.192-0.448 0.256-0.768 0.192-0.32-0.128-0.448-0.576-0.32-0.832l1.728-3.904c0.128-0.32 0.576-0.448 0.832-0.32s0.448 0.576 0.32 0.832l-1.728 3.904c0 0 0 0.064-0.064 0.128z"></path>
<path fill="#fff" d="M26.118 28.541l9.107-13.077 1.050 0.732-9.107 13.077-1.050-0.732z"></path>
<path fill="#fff" d="M38.528 16.96c-3.328 0-6.080-2.688-6.080-6.080s2.752-6.080 6.080-6.080 6.080 2.688 6.080 6.080-2.688 6.080-6.080 6.080zM38.528 6.144c-2.624 0-4.8 2.176-4.8 4.8s2.176 4.8 4.8 4.8 4.8-2.176 4.8-4.8-2.112-4.8-4.8-4.8z"></path>
<path fill="#fff" d="M26.176 27.968h1.28v20.416h-1.28v-20.416z"></path>
<path fill="#fff" d="M26.816 49.024c-0.384 0-0.64-0.256-0.64-0.64s0.256-0.64 0.64-0.64h4.224c0.384 0 0.64 0.256 0.64 0.64s-0.256 0.64-0.64 0.64h-4.224z"></path>
</svg>
</svg>
