<svg fill="#fff" xmlns="http://www.w3.org/2000/svg" xmlns:xlink="http://www.w3.org/1999/xlink" version="1.1"  width="32" height="32" x="0px" y="0px" viewBox="0 0 100 100" style="enable-background:new 0 0 100 100;" xml:space="preserve"><g><path d="M49.1,83.4c17.9,0,32.5-14.6,32.5-32.5v-0.3c0-0.6-0.4-1-1-1H50.4V19.4c0-0.6-0.4-1-1-1h-0.3c-17.9,0-32.5,14.6-32.5,32.5   S31.2,83.4,49.1,83.4z M48.4,20.4v30.2c0,0.6,0.4,1,1,1h30.2c-0.4,16.5-13.9,29.8-30.5,29.8c-16.8,0-30.5-13.7-30.5-30.5   C18.6,34.3,31.9,20.8,48.4,20.4z"></path><path d="M59.5,12.6c-0.3,0-0.6,0-0.8,0.2c-0.2,0.2-0.3,0.5-0.3,0.8v27c0,0.6,0.4,1,1,1h27c0.3,0,0.6-0.1,0.8-0.3   c0.2-0.2,0.3-0.5,0.2-0.8l-0.1-0.4C85.3,26,74,14.7,59.9,12.7L59.5,12.6z M60.4,14.8C73,16.9,83.1,27,85.2,39.6H60.4V14.8z"></path></g></svg>